SplineFontDB: 3.0
FontName: HM_FTXtitr_Italic
FullName: HM_FTXtitr_Italic
FamilyName: HM_FTXtitr_Italic
Weight: Book
Copyright: Copyright (c) Hossein, 2013. All rights reserved.
Version: 0.1
ItalicAngle: 0
UnderlinePosition: -540
UnderlineWidth: 60
Ascent: 1638
Descent: 410
sfntRevision: 0x00010000
LayerCount: 2
Layer: 0 1 "Back"  1
Layer: 1 1 "Fore"  0
XUID: [1021 102 1371595031 6992056]
FSType: 0
OS2Version: 2
OS2_WeightWidthSlopeOnly: 0
OS2_UseTypoMetrics: 1
CreationTime: 1194658560
ModificationTime: 1360913147
PfmFamily: 17
TTFWeight: 400
TTFWidth: 5
LineGap: 0
VLineGap: 0
Panose: 2 0 5 3 8 0 0 2 0 3
OS2TypoAscent: 2100
OS2TypoAOffset: 0
OS2TypoDescent: -1000
OS2TypoDOffset: 0
OS2TypoLinegap: 0
OS2WinAscent: 2100
OS2WinAOffset: 0
OS2WinDescent: 1000
OS2WinDOffset: 0
HheadAscent: 2100
HheadAOffset: 0
HheadDescent: -1000
HheadDOffset: 0
OS2SubXSize: 1434
OS2SubYSize: 1331
OS2SubXOff: 0
OS2SubYOff: 293
OS2SupXSize: 1434
OS2SupYSize: 1331
OS2SupXOff: 0
OS2SupYOff: 928
OS2StrikeYSize: 102
OS2StrikeYPos: 512
OS2Vendor: 'pars'
OS2CodePages: 20000051.41000000
OS2UnicodeRanges: 00002003.80000000.00000008.00000000
Lookup: 4 0 1 "gsub_ligature_dfl_liga_arab_FAR_Lookup_01"  {"gsub_ligature_dfl_liga_arab_FAR_Lookup_01_Subtable_01"  } ['liga' ('arab' <'FAR ' > ) ]
Lookup: 4 0 1 "gsub_ligature_dfl_liga_arab_FAR_Lookup_02"  {"gsub_ligature_dfl_liga_arab_FAR_Lookup_02_Subtable_01"  } ['liga' ('arab' <'FAR ' > ) ]
Lookup: 3 0 0 "gsub_alternate_dfl_aalt_arab_FAR_Lookup_01"  {"gsub_alternate_dfl_aalt_arab_FAR_Lookup_01_Subtable_01"  } ['aalt' ('arab' <'FAR ' > ) ]
Lookup: 1 1 0 "gsub_single_rtl_fina_arab_FAR_Lookup_01"  {"gsub_single_rtl_fina_arab_FAR_Lookup_01_Subtable_01"  } ['fina' ('arab' <'FAR ' > ) ]
Lookup: 1 1 0 "gsub_single_rtl_init_arab_FAR_Lookup_01"  {"gsub_single_rtl_init_arab_FAR_Lookup_01_Subtable_01"  } ['init' ('arab' <'FAR ' > ) ]

StartChar: .notdef
Encoding: 65536 -1 0
Width: 1039
GlyphClass: 2
Flags: W
LayerCount: 2
Fore
SplineSet
647 299 m 0,0,1
 640 269 640 269 614.5 246.5 c 128,-1,2
 589 224 589 224 559 224 c 0,3,4
 531 224 531 224 516.5 246.5 c 128,-1,5
 502 269 502 269 509 299 c 0,6,7
 516 331 516 331 541 352.5 c 128,-1,8
 566 374 566 374 597 374 c 0,9,10
 625 374 625 374 639.5 352.5 c 128,-1,11
 654 331 654 331 647 299 c 0,0,1
859 780 m 0,12,13
 849 737 849 737 821 710 c 128,-1,14
 793 683 793 683 758 683 c 0,15,16
 728 683 728 683 715 701.5 c 128,-1,17
 702 720 702 720 708 749 c 0,18,19
 713 770 713 770 726 785 c 128,-1,20
 739 800 739 800 753 810.5 c 128,-1,21
 767 821 767 821 778 829 c 128,-1,22
 789 837 789 837 791 843 c 0,23,24
 796 863 796 863 780 875 c 128,-1,25
 764 887 764 887 737 887 c 0,26,27
 702 887 702 887 674.5 866 c 128,-1,28
 647 845 647 845 640 813 c 0,29,30
 636 795 636 795 639.5 769 c 128,-1,31
 643 743 643 743 649 718 c 128,-1,32
 655 693 655 693 661 673 c 128,-1,33
 667 653 667 653 667 648 c 0,34,35
 671 619 671 619 669 583.5 c 128,-1,36
 667 548 667 548 659 513 c 0,37,38
 654 492 654 492 647.5 470.5 c 128,-1,39
 641 449 641 449 633 424 c 1,40,-1
 597 424 l 1,41,-1
 601 442 l 1,42,-1
 612 472 l 1,43,44
 620 505 620 505 587 544 c 0,45,46
 534 609 534 609 528 620 c 0,47,48
 498 673 498 673 514 740 c 0,49,50
 523 781 523 781 545 815.5 c 128,-1,51
 567 850 567 850 596.5 875.5 c 128,-1,52
 626 901 626 901 661.5 915 c 128,-1,53
 697 929 697 929 733 929 c 0,54,55
 766 929 766 929 793 918.5 c 128,-1,56
 820 908 820 908 837 888.5 c 128,-1,57
 854 869 854 869 860.5 841.5 c 128,-1,58
 867 814 867 814 859 780 c 0,12,13
128 31 m 1,59,-1
 928 31 l 1,60,-1
 1180 1122 l 1,61,-1
 380 1122 l 1,62,-1
 128 31 l 1,59,-1
91 0 m 1,63,-1
 357 1154 l 1,64,-1
 1215 1154 l 1,65,-1
 948 0 l 1,66,-1
 91 0 l 1,63,-1
EndSplineSet
EndChar

StartChar: exclam
Encoding: 33 33 4
Width: 575
VWidth: 1639
GlyphClass: 2
Flags: W
LayerCount: 2
Fore
SplineSet
501 1215 m 1,0,1
 593 1227 593 1227 628 1151 c 0,2,3
 645 1113 645 1113 639 1066 c 0,4,5
 632 1017 632 1017 589 917 c 1,6,7
 545 805 545 805 462 635 c 0,8,9
 420 551 420 551 379 481 c 1,10,11
 350 438 350 438 342 435 c 1,12,13
 329 437 329 437 324 479 c 1,14,15
 314 531 314 531 311 635 c 0,16,17
 308 677 308 677 309 741 c 1,18,19
 307 783 307 783 310 825 c 1,20,21
 311 868 311 868 313 889 c 0,22,23
 321 1045 321 1045 355 1111 c 1,24,25
 389 1173 389 1173 447 1200 c 0,26,27
 467 1209 467 1209 501 1215 c 1,0,1
309 321 m 1,28,29
 367 328 367 328 407 291 c 0,30,31
 414 283 414 283 419 277 c 0,32,33
 454 218 454 218 419 126 c 0,34,35
 399 76 399 76 365 44 c 1,36,37
 326 11 326 11 265 2 c 1,38,39
 178 -6 178 -6 142 41 c 1,40,41
 105 93 105 93 136 186 c 0,42,43
 156 245 156 245 195 279 c 0,44,45
 231 308 231 308 309 321 c 1,28,29
EndSplineSet
EndChar

StartChar: percent
Encoding: 37 37 8
Width: 1079
VWidth: 1639
GlyphClass: 2
Flags: W
LayerCount: 2
Fore
SplineSet
1018 1250 m 1,0,-1
 1110 1250 l 1,1,-1
 496 169 l 1,2,-1
 357 -75 l 1,3,-1
 321 -139 l 1,4,-1
 306 -164 l 1,5,-1
 280 -166 l 1,6,-1
 216 -166 l 1,7,-1
 784 835 l 1,8,-1
 936 1104 l 1,9,-1
 1018 1250 l 1,0,-1
525 1209 m 1,10,11
 602 1218 602 1218 640 1173 c 0,12,13
 643 1169 643 1169 645 1166 c 0,14,15
 681 1111 681 1111 647 1018 c 0,16,17
 626 963 626 963 591 932 c 1,18,19
 553 900 553 900 499 891 c 1,20,21
 405 880 405 880 368 930 c 1,22,23
 332 984 332 984 365 1078 c 0,24,25
 386 1135 386 1135 423 1168 c 1,26,27
 461 1200 461 1200 525 1209 c 1,10,11
845 184 m 0,28,29
 909 192 909 192 949 153 c 0,30,31
 955 147 955 147 959 141 c 0,32,33
 996 85 996 85 962 -7 c 0,34,35
 941 -62 941 -62 904 -95 c 1,36,37
 866 -127 866 -127 805 -136 c 1,38,39
 721 -145 721 -145 683 -95 c 0,40,41
 646 -43 646 -43 679 50 c 0,42,43
 700 107 700 107 736 141 c 1,44,45
 776 174 776 174 845 184 c 0,28,29
EndSplineSet
EndChar

StartChar: parenleft
Encoding: 40 40 11
Width: 614
VWidth: 1639
GlyphClass: 2
Flags: W
LayerCount: 2
Fore
SplineSet
436 -371 m 1,0,1
 400 -375 400 -375 394 -374 c 0,2,3
 359 -364 359 -364 315 -312 c 0,4,5
 248 -231 248 -231 209 -116 c 0,6,7
 114 151 114 151 196 450 c 0,8,9
 214 517 214 517 240 579 c 0,10,11
 304 734 304 734 438 910 c 0,12,13
 566 1079 566 1079 691 1171 c 1,14,15
 746 1214 746 1214 775 1214 c 0,16,17
 795 1213 795 1213 800 1207 c 1,18,19
 806 1190 806 1190 764 1135 c 0,20,21
 762 1132 762 1132 761 1132 c 0,22,23
 662 986 662 986 631 933 c 0,24,25
 529 753 529 753 457 490 c 0,26,27
 416 333 416 333 402 223 c 1,28,29
 376 -12 376 -12 402 -153 c 0,30,31
 402 -155 402 -155 432 -289 c 0,32,33
 444 -342 444 -342 438 -363 c 0,34,35
 437 -367 437 -367 436 -371 c 1,0,1
EndSplineSet
EndChar

StartChar: parenright
Encoding: 41 41 12
Width: 705
VWidth: 1639
GlyphClass: 2
Flags: W
LayerCount: 2
Fore
SplineSet
392 1214 m 1,0,1
 430 1216 430 1216 473 1158 c 1,2,3
 543 1073 543 1073 598 905 c 0,4,5
 655 727 655 727 639 541 c 1,6,7
 611 251 611 251 421 -24 c 0,8,9
 382 -80 382 -80 341 -130 c 0,10,11
 245 -243 245 -243 141 -321 c 1,12,13
 70 -373 70 -373 28 -374 c 0,14,15
 -10 -374 -10 -374 29 -318 c 0,16,17
 30 -317 30 -317 32 -314 c 0,18,19
 37 -307 37 -307 38 -305 c 0,20,21
 56 -276 56 -276 96 -219 c 0,22,23
 148 -145 148 -145 169 -107 c 0,24,25
 285 90 285 90 358 379 c 1,26,27
 428 653 428 653 417 881 c 0,28,29
 414 970 414 970 374 1132 c 1,30,31
 364 1182 364 1182 366 1191 c 0,32,33
 370 1211 370 1211 392 1214 c 1,0,1
EndSplineSet
EndChar

StartChar: plus
Encoding: 43 43 14
Width: 952
VWidth: 1639
GlyphClass: 2
Flags: W
LayerCount: 2
Fore
SplineSet
650 963 m 1,0,-1
 748 963 l 1,1,-1
 650 536 l 1,2,-1
 674 536 l 1,3,-1
 668 510 l 1,4,-1
 1063 510 l 1,5,-1
 1039 405 l 1,6,-1
 644 405 l 1,7,-1
 638 379 l 1,8,-1
 613 379 l 1,9,-1
 515 -46 l 1,10,-1
 418 -46 l 1,11,-1
 516 379 l 1,12,-1
 491 379 l 1,13,-1
 497 405 l 1,14,-1
 101 405 l 1,15,-1
 125 510 l 1,16,-1
 522 510 l 1,17,-1
 528 536 l 1,18,-1
 552 536 l 1,19,-1
 650 963 l 1,0,-1
EndSplineSet
EndChar

StartChar: hyphen
Encoding: 45 45 16
AltUni2: 002212.ffffffff.0 0000ad.ffffffff.0
Width: 1033
VWidth: 1639
GlyphClass: 2
Flags: W
LayerCount: 2
Fore
SplineSet
210 435 m 1,0,-1
 1024 435 l 1,1,-1
 1000 331 l 1,2,-1
 186 331 l 1,3,-1
 210 435 l 1,0,-1
EndSplineSet
EndChar

StartChar: period
Encoding: 46 46 17
Width: 574
VWidth: 1639
GlyphClass: 2
Flags: W
LayerCount: 2
Fore
SplineSet
307 320 m 1,0,1
 366 327 366 327 407 289 c 0,2,3
 413 283 413 283 418 277 c 0,4,5
 454 220 454 220 419 127 c 0,6,7
 398 74 398 74 364 43 c 0,8,9
 327 10 327 10 265 0 c 1,10,11
 176 -8 176 -8 140 41 c 0,12,13
 102 95 102 95 137 189 c 0,14,15
 158 245 158 245 195 277 c 0,16,17
 229 307 229 307 307 320 c 1,0,1
EndSplineSet
EndChar

StartChar: slash
Encoding: 47 47 18
Width: 578
VWidth: 1639
GlyphClass: 2
Flags: W
LayerCount: 2
Fore
SplineSet
767 1250 m 1,0,-1
 859 1250 l 1,1,-1
 666 910 l 1,2,-1
 293 253 l 1,3,-1
 141 -15 l 1,4,-1
 56 -166 l 1,5,-1
 -36 -166 l 1,6,7
 26 -61 26 -61 380 567 c 0,8,9
 431 658 431 658 474 731 c 0,10,11
 507 788 507 788 571 904 c 0,12,13
 636 1019 636 1019 669 1076 c 0,14,15
 679 1093 679 1093 700 1127 c 0,16,17
 749 1209 749 1209 767 1250 c 1,0,-1
EndSplineSet
EndChar

StartChar: colon
Encoding: 58 58 29
Width: 574
VWidth: 1639
GlyphClass: 2
Flags: W
LayerCount: 2
Fore
SplineSet
422 838 m 0,0,1
 488 846 488 846 528 807 c 0,2,3
 534 801 534 801 538 795 c 0,4,5
 573 738 573 738 540 647 c 0,6,7
 519 592 519 592 481 559 c 1,8,9
 443 527 443 527 382 518 c 1,10,11
 296 510 296 510 260 559 c 0,12,13
 222 613 222 613 257 708 c 0,14,15
 278 762 278 762 313 795 c 1,16,17
 353 828 353 828 422 838 c 0,0,1
307 320 m 1,18,19
 366 327 366 327 408 289 c 0,20,21
 414 283 414 283 418 277 c 0,22,23
 454 220 454 220 419 127 c 0,24,25
 398 74 398 74 364 43 c 0,26,27
 327 10 327 10 265 0 c 1,28,29
 176 -8 176 -8 141 41 c 0,30,31
 103 95 103 95 137 189 c 0,32,33
 158 245 158 245 195 277 c 0,34,35
 229 307 229 307 307 320 c 1,18,19
EndSplineSet
EndChar

StartChar: equal
Encoding: 61 61 32
Width: 829
VWidth: 1639
GlyphClass: 2
Flags: W
LayerCount: 2
Fore
SplineSet
167 694 m 1,0,-1
 982 694 l 1,1,-1
 958 589 l 1,2,-1
 143 589 l 1,3,-1
 167 694 l 1,0,-1
87 344 m 1,4,-1
 901 344 l 1,5,-1
 877 239 l 1,6,-1
 63 239 l 1,7,-1
 87 344 l 1,4,-1
EndSplineSet
EndChar

StartChar: bracketleft
Encoding: 91 91 62
Width: 432
VWidth: 1639
GlyphClass: 2
Flags: W
LayerCount: 2
Fore
SplineSet
375 1232 m 1,0,-1
 625 1232 l 1,1,-1
 606 1148 l 1,2,-1
 464 1148 l 1,3,-1
 458 1122 l 1,4,-1
 434 1122 l 1,5,-1
 119 -241 l 1,6,-1
 144 -241 l 1,7,-1
 138 -267 l 1,8,-1
 279 -267 l 1,9,-1
 260 -353 l 1,10,-1
 10 -353 l 1,11,-1
 375 1232 l 1,0,-1
EndSplineSet
EndChar

StartChar: bracketright
Encoding: 93 93 64
Width: 523
VWidth: 1639
GlyphClass: 2
Flags: W
LayerCount: 2
Fore
SplineSet
375 1232 m 1,0,-1
 625 1232 l 1,1,-1
 260 -353 l 1,2,-1
 10 -353 l 1,3,-1
 29 -269 l 1,4,-1
 171 -269 l 1,5,-1
 177 -243 l 1,6,-1
 201 -243 l 1,7,-1
 516 1120 l 1,8,-1
 491 1120 l 1,9,-1
 498 1146 l 1,10,-1
 356 1146 l 1,11,-1
 375 1232 l 1,0,-1
EndSplineSet
EndChar

StartChar: guillemotleft
Encoding: 171 171 175
Width: 704
VWidth: 1639
GlyphClass: 2
Flags: W
LayerCount: 2
Fore
SplineSet
291 34 m 1,0,1
 270 35 270 35 249 57 c 0,2,3
 214 96 214 96 195 161 c 1,4,5
 136 339 136 339 232 538 c 0,6,7
 264 603 264 603 308 659 c 1,8,9
 369 734 369 734 412 771 c 0,10,11
 446 801 446 801 468 802 c 1,12,13
 459 784 459 784 401 699 c 0,14,15
 383 672 383 672 372 653 c 0,16,17
 270 454 270 454 263 246 c 0,18,19
 262 173 262 173 268 141 c 0,20,21
 270 130 270 130 277 106 c 0,22,23
 290 58 290 58 291 34 c 1,0,1
530 34 m 1,24,25
 506 37 506 37 488 59 c 0,26,27
 462 88 462 88 437 153 c 0,28,29
 374 323 374 323 468 526 c 0,30,31
 500 594 500 594 545 654 c 0,32,33
 590 713 590 713 649 769 c 1,34,35
 688 801 688 801 707 802 c 1,36,37
 703 793 703 793 675 753 c 0,38,39
 628 683 628 683 609 646 c 0,40,41
 537 505 537 505 511 326 c 1,42,43
 497 216 497 216 508 144 c 0,44,45
 510 132 510 132 518 106 c 0,46,47
 531 58 531 58 530 34 c 1,24,25
EndSplineSet
EndChar

StartChar: guillemotright
Encoding: 187 187 176
Width: 702
VWidth: 1639
GlyphClass: 2
Flags: W
LayerCount: 2
Fore
SplineSet
276 802 m 1,0,1
 297 801 297 801 320 776 c 0,2,3
 356 735 356 735 377 658 c 1,4,5
 429 483 429 483 326 285 c 0,6,7
 289 214 289 214 238 154 c 0,8,9
 190 97 190 97 150 62 c 0,10,11
 119 37 119 37 99 34 c 1,12,13
 104 47 104 47 130 82 c 1,14,15
 168 138 168 138 185 167 c 0,16,17
 235 258 235 258 273 397 c 0,18,19
 313 550 313 550 300 674 c 0,20,21
 299 689 299 689 284 758 c 0,22,23
 276 794 276 794 276 802 c 1,0,1
516 802 m 1,24,25
 536 801 536 801 559 777 c 1,26,27
 591 738 591 738 612 676 c 0,28,29
 670 500 670 500 574 301 c 0,30,31
 540 232 540 232 492 172 c 0,32,33
 458 128 458 128 399 71 c 0,34,35
 365 38 365 38 338 34 c 1,36,37
 345 52 345 52 395 120 c 0,38,39
 399 126 399 126 402 130 c 0,40,41
 437 182 437 182 464 248 c 0,42,43
 551 461 551 461 542 646 c 0,44,45
 541 660 541 660 523 749 c 0,46,47
 517 780 517 780 516 802 c 1,24,25
EndSplineSet
EndChar

StartChar: guilsinglleft
Encoding: 8249 8249 195
Width: 520
GlyphClass: 2
Flags: W
LayerCount: 2
Fore
SplineSet
340 70 m 1,0,1
 347 48 347 48 344 35 c 0,2,3
 342 26 342 26 331 26 c 0,4,5
 323 26 323 26 309 33 c 1,6,7
 269 73 269 73 241.5 128 c 128,-1,8
 214 183 214 183 201 255 c 0,9,10
 189 321 189 321 192.5 385 c 128,-1,11
 196 449 196 449 209 513 c 1,12,13
 242 656 242 656 331 783 c 1,14,15
 421 904 421 904 523 958 c 1,16,17
 551 969 551 969 555 969 c 0,18,19
 562 969 562 969 561 963 c 0,20,21
 559 953 559 953 528 912 c 1,22,23
 379 746 379 746 325 513 c 0,24,25
 264 249 264 249 340 70 c 1,0,1
EndSplineSet
EndChar

StartChar: guilsinglright
Encoding: 8250 8250 196
Width: 523
GlyphClass: 2
Flags: W
LayerCount: 2
Fore
SplineSet
121 70 m 1,0,1
 282 249 282 249 343 513 c 0,2,3
 398 751 398 751 322 913 c 1,4,5
 311 954 311 954 313 963 c 0,6,7
 314 969 314 969 322 969 c 0,8,9
 324 969 324 969 331 966.5 c 128,-1,10
 338 964 338 964 347 958 c 0,11,12
 388 931 388 931 415.5 887 c 128,-1,13
 443 843 443 843 459 783 c 0,14,15
 477 718 477 718 476 650.5 c 128,-1,16
 475 583 475 583 460 513 c 0,17,18
 445 450 445 450 415.5 385 c 128,-1,19
 386 320 386 320 344 255 c 0,20,21
 301 188 301 188 246.5 130 c 128,-1,22
 192 72 192 72 134 33 c 1,23,24
 119 26 119 26 109 26 c 0,25,26
 98 26 98 26 100 35 c 0,27,28
 103 47 103 47 121 70 c 1,0,1
EndSplineSet
EndChar

StartChar: afii57451
Encoding: 1611 1611 311
AltUni2: 00fe70.ffffffff.0
Width: -129
VWidth: 1639
GlyphClass: 2
Flags: HW
AnchorPoint: "GposMark2BaseAnchorHamzaErabAbove_01_01" 458 1369 mark 0
AnchorPoint: "GposMark2BaseAnchorHamzaErabBelow_01_01" 458 1776 mark 0
AnchorPoint: "GposMark2BaseAnchorClassErabAbove_01_02" 458 1369 mark 0
AnchorPoint: "GposMark2MarkAnchorHamzaErabAbove_01_01" 458 1369 mark 0
AnchorPoint: "GposMark2MarkAnchorHamzaErabBelow_01_01" 458 1776 mark 0
AnchorPoint: "GposMark2MarkAnchorShaddaErabAbove_01_02" 458 1369 mark 0
AnchorPoint: "GposMark2MarkAnchorShaddaErabBelow_01_02" 458 1776 mark 0
LayerCount: 2
Fore
SplineSet
659 1776 m 1,0,1
 659 1760 659 1760 645 1707 c 0,2,3
 640 1688 640 1688 638 1686 c 0,4,5
 631 1679 631 1679 610 1671 c 1,6,-1
 545 1640 l 1,7,-1
 377 1560 l 2,8,9
 368 1556 368 1556 351 1546 c 0,10,11
 312 1526 312 1526 293 1520 c 1,12,-1
 308 1584 l 1,13,-1
 316 1610 l 1,14,-1
 342 1624 l 1,15,-1
 410 1656 l 1,16,-1
 659 1776 l 1,0,1
623 1627 m 1,17,18
 623 1611 623 1611 609 1558 c 0,19,20
 604 1539 604 1539 602 1537 c 0,21,22
 595 1530 595 1530 574 1522 c 1,23,-1
 506 1489 l 2,24,25
 478 1475 478 1475 420 1447 c 0,26,27
 311 1392 311 1392 257 1369 c 1,28,-1
 272 1435 l 1,29,-1
 279 1460 l 1,30,-1
 307 1474 l 1,31,-1
 374 1507 l 1,32,-1
 623 1627 l 1,17,18
EndSplineSet
EndChar

StartChar: afii57452
Encoding: 1612 1612 312
AltUni2: 00fe72.ffffffff.0
Width: -131
VWidth: 1639
GlyphClass: 2
Flags: HW
AnchorPoint: "GposMark2BaseAnchorHamzaErabAbove_01_01" 434 1369 mark 0
AnchorPoint: "GposMark2BaseAnchorHamzaErabBelow_01_01" 434 1746 mark 0
AnchorPoint: "GposMark2BaseAnchorClassErabAbove_01_02" 434 1369 mark 0
AnchorPoint: "GposMark2MarkAnchorHamzaErabAbove_01_01" 434 1369 mark 0
AnchorPoint: "GposMark2MarkAnchorHamzaErabBelow_01_01" 434 1746 mark 0
AnchorPoint: "GposMark2MarkAnchorShaddaErabAbove_01_02" 434 1369 mark 0
AnchorPoint: "GposMark2MarkAnchorShaddaErabBelow_01_02" 434 1746 mark 0
LayerCount: 2
Fore
SplineSet
435 1522 m 1,0,1
 389 1538 389 1538 402 1607 c 0,2,3
 406 1625 406 1625 412 1640 c 0,4,5
 442 1716 442 1716 505 1737 c 0,6,7
 533 1746 533 1746 560 1740 c 0,8,9
 626 1723 626 1723 612 1640 c 0,10,11
 602 1584 602 1584 564 1538 c 1,12,13
 524 1492 524 1492 459 1455 c 0,14,15
 350 1391 350 1391 246 1369 c 1,16,17
 247 1376 247 1376 248 1392 c 0,18,19
 249 1408 249 1408 250 1415 c 0,20,21
 250 1429 250 1429 253 1435 c 0,22,23
 259 1442 259 1442 291 1454 c 1,24,25
 312 1465 312 1465 315 1484 c 1,26,27
 316 1515 316 1515 275 1503 c 0,28,29
 274 1503 274 1503 271 1502 c 128,-1,30
 268 1501 268 1501 267 1501 c 0,31,32
 242 1499 242 1499 245 1520 c 0,33,34
 247 1528 247 1528 250 1532 c 0,35,36
 269 1575 269 1575 316 1592 c 1,37,38
 358 1605 358 1605 378 1578 c 1,39,40
 393 1551 393 1551 372 1487 c 1,41,42
 404 1498 404 1498 435 1522 c 1,0,1
511 1665 m 1,43,44
 481 1660 481 1660 469 1628 c 0,45,46
 464 1609 464 1609 470 1596 c 1,47,48
 480 1580 480 1580 508 1583 c 1,49,50
 537 1588 537 1588 545 1625 c 0,51,52
 547 1640 547 1640 544 1650 c 0,53,54
 536 1667 536 1667 511 1665 c 1,43,44
EndSplineSet
EndChar

StartChar: afii57453
Encoding: 1613 1613 313
AltUni2: 00fe74.ffffffff.0
Width: -131
VWidth: 1639
GlyphClass: 2
Flags: HW
AnchorPoint: "GposMark2BaseAnchorClassErabBelow_01_02" -184 -126 mark 0
LayerCount: 2
Fore
SplineSet
17 -126 m 1,0,1
 17 -142 17 -142 2 -195 c 0,2,3
 -3 -214 -3 -214 -4 -216 c 0,4,5
 -11 -223 -11 -223 -32 -231 c 1,6,-1
 -97 -262 l 1,7,-1
 -265 -343 l 2,8,9
 -274 -347 -274 -347 -291 -356 c 0,10,11
 -330 -376 -330 -376 -349 -382 c 1,12,-1
 -334 -318 l 1,13,-1
 -326 -292 l 1,14,-1
 -301 -279 l 1,15,-1
 -232 -246 l 1,16,-1
 17 -126 l 1,0,1
-19 -276 m 1,17,18
 -20 -292 -20 -292 -34 -344 c 0,19,20
 -39 -363 -39 -363 -40 -366 c 0,21,22
 -47 -373 -47 -373 -68 -380 c 1,23,-1
 -136 -413 l 2,24,25
 -164 -427 -164 -427 -222 -456 c 0,26,27
 -331 -511 -331 -511 -385 -533 c 1,28,-1
 -370 -467 l 1,29,-1
 -363 -443 l 1,30,-1
 -335 -428 l 1,31,-1
 -268 -395 l 1,32,-1
 -19 -276 l 1,17,18
EndSplineSet
EndChar

StartChar: afii57454
Encoding: 1614 1614 314
AltUni2: 00fe76.ffffffff.0
Width: -121
VWidth: 1639
GlyphClass: 2
Flags: HW
AnchorPoint: "GposMark2BaseAnchorHamzaErabAbove_01_01" 415 1369 mark 0
AnchorPoint: "GposMark2BaseAnchorHamzaErabBelow_01_01" 415 1627 mark 0
AnchorPoint: "GposMark2BaseAnchorClassErabAbove_01_02" 415 1369 mark 0
AnchorPoint: "GposMark2MarkAnchorHamzaErabAbove_01_01" 415 1369 mark 0
AnchorPoint: "GposMark2MarkAnchorHamzaErabBelow_01_01" 415 1627 mark 0
AnchorPoint: "GposMark2MarkAnchorShaddaErabAbove_01_02" 415 1369 mark 0
AnchorPoint: "GposMark2MarkAnchorShaddaErabBelow_01_02" 415 1627 mark 0
LayerCount: 2
Fore
SplineSet
598 1627 m 1,0,1
 598 1611 598 1611 583 1558 c 0,2,3
 578 1539 578 1539 577 1537 c 0,4,5
 570 1530 570 1530 549 1522 c 1,6,-1
 480 1489 l 2,7,8
 452 1475 452 1475 395 1447 c 0,9,10
 286 1392 286 1392 232 1369 c 1,11,-1
 247 1435 l 1,12,-1
 254 1460 l 1,13,-1
 282 1474 l 1,14,-1
 349 1507 l 1,15,-1
 598 1627 l 1,0,1
EndSplineSet
EndChar

StartChar: afii57455
Encoding: 1615 1615 315
AltUni2: 00fe78.ffffffff.0
Width: -152
VWidth: 1639
GlyphClass: 2
Flags: HW
AnchorPoint: "GposMark2BaseAnchorHamzaErabAbove_01_01" 380.5 1371 mark 0
AnchorPoint: "GposMark2BaseAnchorHamzaErabBelow_01_01" 380.5 1757 mark 0
AnchorPoint: "GposMark2BaseAnchorClassErabAbove_01_02" 380.5 1371 mark 0
AnchorPoint: "GposMark2MarkAnchorHamzaErabAbove_01_01" 380.5 1371 mark 0
AnchorPoint: "GposMark2MarkAnchorHamzaErabBelow_01_01" 380.5 1757 mark 0
AnchorPoint: "GposMark2MarkAnchorShaddaErabAbove_01_02" 380.5 1371 mark 0
AnchorPoint: "GposMark2MarkAnchorShaddaErabBelow_01_02" 380.5 1757 mark 0
LayerCount: 2
Fore
SplineSet
371 1517 m 1,0,1
 321 1545 321 1545 345 1626 c 0,2,3
 363 1683 363 1683 403 1717 c 1,4,5
 454 1757 454 1757 512 1736 c 0,6,7
 517 1734 517 1734 521 1732 c 0,8,9
 574 1701 574 1701 548 1615 c 0,10,11
 537 1582 537 1582 518 1555 c 0,12,13
 444 1454 444 1454 253 1384 c 0,14,15
 225 1375 225 1375 206 1371 c 1,16,-1
 189 1371 l 1,17,18
 187 1374 187 1374 187 1384 c 0,19,20
 191 1431 191 1431 196 1435 c 0,21,22
 204 1439 204 1439 262 1458 c 1,23,24
 313 1478 313 1478 371 1517 c 1,0,1
455 1663 m 0,25,26
 426 1660 426 1660 411 1629 c 0,27,28
 401 1608 401 1608 411 1592 c 1,29,30
 423 1578 423 1578 448 1581 c 0,31,32
 479 1584 479 1584 485 1621 c 0,33,34
 491 1657 491 1657 465 1663 c 0,35,36
 460 1663 460 1663 455 1663 c 0,25,26
EndSplineSet
EndChar

StartChar: afii57456
Encoding: 1616 1616 316
AltUni2: 00fe7a.ffffffff.0
Width: -123
VWidth: 1639
GlyphClass: 2
Flags: HW
AnchorPoint: "GposMark2BaseAnchorClassErabBelow_01_02" -162 -126 mark 0
LayerCount: 2
Fore
SplineSet
21 -126 m 1,0,1
 21 -142 21 -142 6 -195 c 0,2,3
 1 -215 1 -215 -2 -218 c 0,4,5
 -4 -220 -4 -220 -7 -222.5 c 128,-1,6
 -10 -225 -10 -225 -12.5 -225.5 c 128,-1,7
 -15 -226 -15 -226 -18 -228 c 128,-1,8
 -21 -230 -21 -230 -23 -230.5 c 128,-1,9
 -25 -231 -25 -231 -29 -233 c 2,10,-1
 -33 -235 l 1,11,-1
 -102 -267 l 1,12,13
 -311 -369 -311 -369 -313 -370 c 0,14,15
 -331 -378 -331 -378 -345 -384 c 1,16,-1
 -330 -318 l 1,17,-1
 -323 -294 l 1,18,-1
 -295 -279 l 1,19,-1
 -226 -246 l 1,20,-1
 21 -126 l 1,0,1
EndSplineSet
EndChar

StartChar: afii57457
Encoding: 1617 1617 317
AltUni2: 00fe7c.ffffffff.0
Width: -38
VWidth: 1639
GlyphClass: 2
Flags: HW
AnchorPoint: "GposMark2BaseAnchorHamzaErabAbove_01_01" 474 1352 mark 0
AnchorPoint: "GposMark2BaseAnchorHamzaErabBelow_01_01" 474 1676 mark 0
AnchorPoint: "GposMark2BaseAnchorClassErabAbove_01_02" 474 1352 mark 0
AnchorPoint: "GposMark2MarkAnchorHamzaErabAbove_01_01" 474 1352 mark 0
AnchorPoint: "GposMark2MarkAnchorHamzaErabBelow_01_01" 474 1676 mark 0
AnchorPoint: "GposMark2MarkAnchorShaddaErabAbove_01_02" 474 1826 basemark 0
AnchorPoint: "GposMark2MarkAnchorShaddaErabBelow_01_02" 474 1202 basemark 0
LayerCount: 2
Fore
SplineSet
673 1676 m 1,0,1
 674 1662 674 1662 654 1599 c 0,2,3
 597 1432 597 1432 517 1428 c 0,4,5
 506 1428 506 1428 490 1432 c 0,6,7
 484 1434 484 1434 480.5 1437 c 128,-1,8
 477 1440 477 1440 470 1446 c 2,9,-1
 463 1453 l 1,10,11
 437 1401 437 1401 382 1377 c 0,12,13
 326 1352 326 1352 299 1391 c 1,14,15
 274 1431 274 1431 304 1515 c 0,16,17
 316 1552 316 1552 321 1566 c 1,18,-1
 332 1584 l 1,19,20
 335 1585 335 1585 353 1589 c 0,21,22
 387 1595 387 1595 406 1597 c 1,23,24
 402 1586 402 1586 392 1564 c 0,25,26
 377 1529 377 1529 372 1512 c 0,27,28
 365 1485 365 1485 377 1478 c 1,29,30
 394 1472 394 1472 415 1504 c 0,31,32
 434 1532 434 1532 465 1620 c 1,33,-1
 547 1645 l 1,34,35
 545 1636 545 1636 540 1618 c 0,36,37
 527 1572 527 1572 529 1551 c 0,38,39
 531 1525 531 1525 555 1540 c 0,40,41
 564 1547 564 1547 569 1555 c 0,42,43
 577 1567 577 1567 590 1617 c 0,44,45
 592 1625 592 1625 594 1630 c 0,46,47
 595 1633 595 1633 597 1639 c 0,48,49
 600 1648 600 1648 602 1651 c 0,50,51
 606 1655 606 1655 622 1660 c 0,52,53
 630 1663 630 1663 648 1668 c 0,54,55
 665 1673 665 1673 673 1676 c 1,0,1
EndSplineSet
EndChar

StartChar: afii57458
Encoding: 1618 1618 318
AltUni2: 00fe7e.ffffffff.0
Width: -96
VWidth: 1639
GlyphClass: 2
Flags: HW
AnchorPoint: "GposMark2BaseAnchorHamzaErabAbove_01_01" 412.5 1368 mark 0
AnchorPoint: "GposMark2BaseAnchorHamzaErabBelow_01_01" 412.5 1681 mark 0
AnchorPoint: "GposMark2BaseAnchorClassErabAbove_01_02" 412.5 1368 mark 0
AnchorPoint: "GposMark2MarkAnchorHamzaErabAbove_01_01" 412.5 1368 mark 0
AnchorPoint: "GposMark2MarkAnchorHamzaErabBelow_01_01" 412.5 1681 mark 0
AnchorPoint: "GposMark2MarkAnchorShaddaErabAbove_01_02" 412.5 1368 mark 0
AnchorPoint: "GposMark2MarkAnchorShaddaErabBelow_01_02" 412.5 1681 mark 0
LayerCount: 2
Fore
SplineSet
441 1679 m 0,0,1
 476 1681 476 1681 502 1663 c 0,2,3
 544 1630 544 1630 551 1584 c 0,4,5
 561 1505 561 1505 502 1432 c 1,6,7
 453 1374 453 1374 393 1369 c 0,8,9
 377 1368 377 1368 351 1374 c 1,10,11
 332 1381 332 1381 323 1389 c 0,12,13
 264 1440 264 1440 340 1583 c 1,14,15
 396 1675 396 1675 441 1679 c 0,0,1
411 1586 m 0,16,17
 381 1582 381 1582 367 1538 c 0,18,19
 359 1513 359 1513 366 1499 c 0,20,21
 383 1469 383 1469 449 1481 c 0,22,23
 488 1489 488 1489 487 1523 c 0,24,25
 486 1532 486 1532 482 1540 c 0,26,27
 462 1584 462 1584 421 1586 c 0,28,29
 415 1587 415 1587 411 1586 c 0,16,17
EndSplineSet
EndChar

StartChar: uni0654
Encoding: 1620 1620 320
Width: -4
VWidth: 1639
GlyphClass: 2
Flags: HW
AnchorPoint: "GposMark2BaseAnchorClassErabAbove_01_02" 480 1369 mark 0
AnchorPoint: "GposMark2MarkAnchorHamzaErabAbove_01_01" 480 1956 basemark 0
AnchorPoint: "GposMark2MarkAnchorHamzaErabBelow_01_01" 480 1219 basemark 0
LayerCount: 2
Fore
SplineSet
405 1524 m 1,0,1
 353 1531 353 1531 362 1601 c 0,2,3
 364 1618 364 1618 370 1635 c 0,4,5
 404 1726 404 1726 474 1777 c 0,6,7
 515 1806 515 1806 553 1806 c 0,8,9
 615 1803 615 1803 643 1754 c 0,10,11
 646 1748 646 1748 648 1743 c 0,12,13
 658 1704 658 1704 645 1691 c 1,14,15
 633 1681 633 1681 589 1696 c 0,16,17
 585 1697 585 1697 583 1697 c 0,18,19
 532 1701 532 1701 485 1671 c 0,20,21
 446 1645 446 1645 466 1616 c 0,22,23
 478 1601 478 1601 497 1599 c 0,24,25
 532 1595 532 1595 624 1629 c 0,26,27
 657 1641 657 1641 676 1645 c 1,28,29
 671 1628 671 1628 658 1593 c 0,30,31
 649 1570 649 1570 645 1560 c 0,32,33
 630 1526 630 1526 632 1527 c 1,34,35
 629 1525 629 1525 602 1515 c 0,36,37
 549 1498 549 1498 524 1489 c 0,38,39
 464 1466 464 1466 291 1373 c 0,40,41
 287 1371 287 1371 284 1369 c 1,42,43
 292 1403 292 1403 305 1438 c 1,44,45
 310 1457 310 1457 311 1460 c 0,46,47
 316 1467 316 1467 332 1478 c 2,48,-1
 334 1479 l 2,49,50
 391 1517 391 1517 405 1522 c 1,51,-1
 405 1524 l 1,0,1
EndSplineSet
EndChar

StartChar: uni0655
Encoding: 1621 1621 321
Width: -3
VWidth: 1639
GlyphClass: 2
Flags: HW
AnchorPoint: "GposMark2BaseAnchorClassErabBelow_01_02" -166 -126 mark 0
LayerCount: 2
Fore
SplineSet
-241 -408 m 1,0,1
 -293 -401 -293 -401 -284 -331 c 0,2,3
 -281 -313 -281 -313 -276 -297 c 0,4,5
 -242 -206 -242 -206 -172 -155 c 0,6,7
 -131 -126 -131 -126 -93 -126 c 0,8,9
 -31 -129 -31 -129 -3 -178 c 0,10,11
 0 -184 0 -184 2 -189 c 0,12,13
 12 -228 12 -228 -1 -241 c 1,14,15
 -13 -251 -13 -251 -58 -236 c 0,16,17
 -62 -235 -62 -235 -64 -235 c 0,18,19
 -115 -231 -115 -231 -161 -261 c 0,20,21
 -200 -287 -200 -287 -180 -316 c 0,22,23
 -168 -331 -168 -331 -149 -333 c 0,24,25
 -114 -337 -114 -337 -22 -303 c 0,26,27
 11 -291 11 -291 30 -287 c 1,28,29
 25 -304 25 -304 12 -339 c 0,30,31
 3 -362 3 -362 -1 -372 c 0,32,33
 -16 -406 -16 -406 -14 -405 c 1,34,35
 -17 -407 -17 -407 -45 -417 c 0,36,37
 -98 -434 -98 -434 -122 -443 c 0,38,39
 -182 -466 -182 -466 -355 -559 c 0,40,41
 -359 -561 -359 -561 -362 -563 c 1,42,43
 -354 -529 -354 -529 -341 -494 c 1,44,45
 -336 -475 -336 -475 -335 -472 c 0,46,47
 -330 -465 -330 -465 -315 -454 c 2,48,-1
 -312 -453 l 2,49,50
 -255 -415 -255 -415 -241 -410 c 1,51,-1
 -241 -408 l 1,0,1
EndSplineSet
EndChar

StartChar: uni0656
Encoding: 1622 1622 322
Width: 66
VWidth: 1639
GlyphClass: 2
Flags: HW
AnchorPoint: "GposMark2BaseAnchorClassErabBelow_01_02" -80.5 -128 mark 0
LayerCount: 2
Fore
SplineSet
-156 -236 m 1,0,1
 -147 -231 -147 -231 -47 -157 c 0,2,3
 -44 -155 -44 -155 -43 -154 c 0,4,5
 -40 -152 -40 -152 -32 -146 c 0,6,7
 -9 -128 -9 -128 -1 -130 c 0,8,9
 2 -132 2 -132 3 -135 c 128,-1,10
 4 -138 4 -138 4.5 -141 c 128,-1,11
 5 -144 5 -144 5 -150 c 2,12,-1
 4 -156 l 1,13,14
 0 -211 0 -211 -5 -241 c 0,15,16
 -8 -258 -8 -258 -14 -293 c 0,17,18
 -38 -444 -38 -444 -74 -512 c 0,19,20
 -111 -583 -111 -583 -142 -590 c 1,21,22
 -153 -588 -153 -588 -161 -574 c 1,23,24
 -166 -555 -166 -555 -165 -512 c 0,25,26
 -166 -321 -166 -321 -156 -236 c 1,0,1
EndSplineSet
EndChar

StartChar: uni0670
Encoding: 1648 1648 326
Width: 66
VWidth: 1639
GlyphClass: 2
Flags: HW
AnchorPoint: "GposMark2BaseAnchorHamzaErabAbove_01_01" 524 1369 mark 0
AnchorPoint: "GposMark2BaseAnchorHamzaErabBelow_01_01" 524 1832 mark 0
AnchorPoint: "GposMark2BaseAnchorClassErabAbove_01_02" 524 1369 mark 0
AnchorPoint: "GposMark2MarkAnchorHamzaErabAbove_01_01" 524 1369 mark 0
AnchorPoint: "GposMark2MarkAnchorHamzaErabBelow_01_01" 524 1832 mark 0
AnchorPoint: "GposMark2MarkAnchorShaddaErabAbove_01_02" 524 1369 mark 0
AnchorPoint: "GposMark2MarkAnchorShaddaErabBelow_01_02" 524 1832 mark 0
LayerCount: 2
Fore
SplineSet
448 1724 m 1,0,1
 457 1729 457 1729 558 1803 c 0,2,3
 561 1805 561 1805 561 1806 c 0,4,5
 564 1808 564 1808 572 1814 c 0,6,7
 595 1832 595 1832 604 1830 c 0,8,9
 607 1828 607 1828 607.5 1825 c 128,-1,10
 608 1822 608 1822 609 1818.5 c 128,-1,11
 610 1815 610 1815 609 1810 c 2,12,-1
 608 1804 l 1,13,14
 604 1749 604 1749 599 1719 c 0,15,16
 596 1702 596 1702 591 1667 c 0,17,18
 567 1516 567 1516 531 1448 c 0,19,20
 494 1377 494 1377 462 1369 c 1,21,22
 451 1371 451 1371 443 1386 c 1,23,24
 438 1405 438 1405 439 1448 c 0,25,26
 438 1639 438 1639 448 1724 c 1,0,1
EndSplineSet
EndChar

StartChar: uni0674
Encoding: 1652 1652 327
Width: 107
GlyphClass: 2
Flags: HW
AnchorPoint: "GposMark2BaseAnchorClassErabAbove_01_02" 590 1014 mark 0
AnchorPoint: "GposMark2MarkAnchorHamzaErabAbove_01_01" 590 1579 basemark 0
AnchorPoint: "GposMark2MarkAnchorHamzaErabBelow_01_01" 590 864 basemark 0
LayerCount: 2
Fore
SplineSet
764 1178 m 2,0,1
 755 1160 755 1160 745 1145 c 128,-1,2
 735 1130 735 1130 731 1129 c 0,3,4
 684 1118 684 1118 644.5 1109 c 128,-1,5
 605 1100 605 1100 587 1095 c 0,6,7
 541 1082 541 1082 496.5 1062 c 128,-1,8
 452 1042 452 1042 414 1018 c 1,9,10
 409 1014 409 1014 405 1014 c 0,11,12
 402 1014 402 1014 398.5 1018 c 128,-1,13
 395 1022 395 1022 396 1025 c 256,14,15
 397 1028 397 1028 402 1032 c 1,16,-1
 402 1031 l 1,17,18
 417 1051 417 1051 447 1076 c 128,-1,19
 477 1101 477 1101 522 1136 c 1,20,21
 448 1171 448 1171 463 1233 c 0,22,23
 474 1282 474 1282 559 1355 c 1,24,25
 648 1429 648 1429 708 1429 c 0,26,27
 718 1429 718 1429 729 1425.5 c 128,-1,28
 740 1422 740 1422 747.5 1415.5 c 128,-1,29
 755 1409 755 1409 759 1400.5 c 128,-1,30
 763 1392 763 1392 761 1382 c 0,31,32
 758 1368 758 1368 751.5 1353.5 c 128,-1,33
 745 1339 745 1339 736.5 1327 c 128,-1,34
 728 1315 728 1315 719 1307.5 c 128,-1,35
 710 1300 710 1300 703 1300 c 0,36,37
 699 1300 699 1300 694 1307.5 c 128,-1,38
 689 1315 689 1315 681.5 1323.5 c 128,-1,39
 674 1332 674 1332 664 1339.5 c 128,-1,40
 654 1347 654 1347 641 1347 c 256,41,42
 628 1347 628 1347 611.5 1339.5 c 128,-1,43
 595 1332 595 1332 579.5 1321.5 c 128,-1,44
 564 1311 564 1311 553 1299 c 128,-1,45
 542 1287 542 1287 540 1277 c 0,46,47
 536 1259 536 1259 543.5 1244 c 128,-1,48
 551 1229 551 1229 565.5 1218 c 128,-1,49
 580 1207 580 1207 601 1201 c 128,-1,50
 622 1195 622 1195 644 1195 c 0,51,52
 647 1195 647 1195 668 1200 c 128,-1,53
 689 1205 689 1205 713.5 1210.5 c 128,-1,54
 738 1216 738 1216 759.5 1221 c 128,-1,55
 781 1226 781 1226 785 1226 c 1,56,-1
 764 1178 l 2,0,1
EndSplineSet
EndChar

StartChar: afii57388
Encoding: 1548 1548 329
Width: 585
VWidth: 1639
GlyphClass: 2
Flags: W
LayerCount: 2
Fore
SplineSet
332 333 m 1,0,1
 400 332 400 332 425 300 c 1,2,3
 437 281 437 281 440 239 c 0,4,5
 444 136 444 136 386 62 c 0,6,7
 374 48 374 48 363 38 c 0,8,9
 309 -5 309 -5 233 0 c 0,10,11
 179 4 179 4 153 36 c 1,12,13
 115 89 115 89 138 187 c 0,14,15
 183 379 183 379 387 600 c 0,16,17
 455 675 455 675 482 694 c 0,18,19
 491 700 491 700 498 704 c 0,20,21
 535 719 535 719 543 704 c 0,22,23
 544 701 544 701 545 700 c 0,24,25
 549 671 549 671 489 606 c 0,26,27
 483 600 483 600 481 597 c 0,28,29
 361 455 361 455 313 359 c 1,30,-1
 343 358 l 1,31,-1
 332 333 l 1,0,1
EndSplineSet
EndChar

StartChar: afii57403
Encoding: 1563 1563 334
Width: 587
VWidth: 1639
GlyphClass: 2
Flags: W
LayerCount: 2
Fore
SplineSet
453 850 m 1,0,1
 521 849 521 849 546 817 c 1,2,3
 558 798 558 798 561 756 c 0,4,5
 565 653 565 653 507 579 c 0,6,7
 495 565 495 565 484 554 c 0,8,9
 430 511 430 511 355 517 c 0,10,11
 301 521 301 521 274 553 c 1,12,13
 236 606 236 606 259 704 c 0,14,15
 304 896 304 896 508 1117 c 0,16,17
 576 1192 576 1192 604 1210 c 0,18,19
 613 1216 613 1216 619 1220 c 0,20,21
 656 1235 656 1235 665 1221 c 0,22,23
 666 1218 666 1218 666 1217 c 0,24,25
 670 1188 670 1188 611 1123 c 0,26,27
 605 1117 605 1117 602 1114 c 0,28,29
 482 972 482 972 434 876 c 1,30,-1
 465 874 l 1,31,-1
 453 850 l 1,0,1
310 318 m 1,32,33
 369 325 369 325 411 287 c 0,34,35
 417 281 417 281 421 276 c 0,36,37
 457 219 457 219 422 126 c 0,38,39
 401 73 401 73 367 41 c 0,40,41
 330 8 330 8 268 -2 c 1,42,43
 179 -10 179 -10 144 39 c 0,44,45
 106 93 106 93 140 187 c 0,46,47
 161 243 161 243 198 276 c 0,48,49
 232 305 232 305 310 318 c 1,32,33
EndSplineSet
EndChar

StartChar: afii57407
Encoding: 1567 1567 335
Width: 730
VWidth: 1639
GlyphClass: 2
Flags: W
LayerCount: 2
Fore
SplineSet
470 553 m 1,0,1
 499 557 499 557 497 583 c 0,2,3
 496 589 496 589 495 594 c 0,4,5
 481 621 481 621 438 672 c 0,6,7
 332 797 332 797 318 891 c 0,8,9
 307 964 307 964 340 1040 c 0,10,11
 354 1072 354 1072 380 1107 c 1,12,13
 419 1156 419 1156 463 1179 c 1,14,15
 566 1228 566 1228 677 1207 c 0,16,17
 736 1197 736 1197 762 1166 c 1,18,19
 777 1144 777 1144 780 1102 c 0,20,21
 788 1007 788 1007 738 907 c 1,22,23
 705 848 705 848 682 831 c 1,24,-1
 632 897 l 1,25,-1
 632 899 l 1,26,27
 686 946 686 946 693 1008 c 0,28,29
 694 1018 694 1018 694 1027 c 0,30,31
 691 1042 691 1042 673 1068 c 0,32,33
 654 1095 654 1095 650 1097 c 0,34,35
 603 1126 603 1126 537 1068 c 0,36,37
 508 1042 508 1042 504 1036 c 0,38,39
 461 974 461 974 521 872 c 0,40,41
 529 858 529 858 546 831 c 0,42,43
 583 771 583 771 595 738 c 0,44,45
 620 667 620 667 604 584 c 0,46,47
 588 508 588 508 538 464 c 1,48,49
 464 406 464 406 374 426 c 0,50,51
 335 435 335 435 293 467 c 0,52,53
 292 468 292 468 287 472 c 0,54,55
 272 485 272 485 272 490 c 1,56,57
 274 496 274 496 299 522 c 0,58,59
 301 524 301 524 308 532 c 0,60,61
 330 559 330 559 337 559 c 0,62,63
 340 558 340 558 360 541 c 1,64,65
 413 511 413 511 449 529 c 1,66,67
 464 538 464 538 470 553 c 1,0,1
365 318 m 1,68,69
 442 327 442 327 481 284 c 0,70,71
 485 279 485 279 487 276 c 0,72,73
 523 217 523 217 488 124 c 0,74,75
 468 74 468 74 434 43 c 0,76,77
 399 10 399 10 341 0 c 1,78,79
 248 -11 248 -11 210 41 c 1,80,81
 173 95 173 95 207 188 c 0,82,83
 228 244 228 244 264 277 c 1,84,85
 304 309 304 309 365 318 c 1,68,69
EndSplineSet
EndChar

StartChar: afii57409
Encoding: 1569 1569 336
AltUni2: 00fe80.ffffffff.0
Width: 599
VWidth: 1639
GlyphClass: 2
Flags: HW
AnchorPoint: "GposMark2BaseAnchorHamzaErabAbove_01_01" 267.5 777 basechar 0
AnchorPoint: "GposMark2BaseAnchorHamzaErabBelow_01_01" 267.5 -155 basechar 0
LayerCount: 2
Fore
SplineSet
157 216 m 1,0,1
 83 219 83 219 109 328 c 0,2,3
 117 361 117 361 131 390 c 0,4,5
 197 529 197 529 280 579 c 1,6,7
 365 627 365 627 444 589 c 1,8,9
 516 552 516 552 513 471 c 1,10,11
 498 473 498 473 471 480 c 0,12,13
 443 487 443 487 429 489 c 0,14,15
 360 494 360 494 295 458 c 1,16,17
 229 419 229 419 212 373 c 0,18,19
 211 370 211 370 210 369 c 0,20,21
 209 364 209 364 208 360 c 128,-1,22
 207 356 207 356 208.5 352 c 128,-1,23
 210 348 210 348 210 345.5 c 128,-1,24
 210 343 210 343 213 339 c 128,-1,25
 216 335 216 335 217 333 c 128,-1,26
 218 331 218 331 223 326 c 2,27,-1
 227 321 l 2,28,29
 251 291 251 291 265 287 c 0,30,31
 268 286 268 286 269 285 c 0,32,33
 327 268 327 268 442 310 c 0,34,35
 510 334 510 334 536 341 c 1,36,37
 529 321 529 321 514 282 c 0,38,39
 505 260 505 260 501 249 c 2,40,-1
 487 213 l 1,41,42
 480 207 480 207 445 198 c 1,43,-1
 336 159 l 2,44,45
 236 122 236 122 109 56 c 0,46,47
 96 49 96 49 69 33 c 0,48,49
 22 6 22 6 -1 -5 c 1,50,51
 7 29 7 29 19 64 c 1,52,53
 24 84 24 84 26 87 c 0,54,55
 30 92 30 92 57 110 c 0,56,57
 115 151 115 151 144 162 c 1,58,-1
 145 164 l 1,59,-1
 134 166 l 1,60,-1
 135 167 l 1,61,-1
 175 189 l 1,62,-1
 175 190 l 1,63,-1
 138 203 l 1,64,-1
 139 207 l 1,65,-1
 156 215 l 1,66,-1
 157 216 l 1,0,1
EndSplineSet
EndChar

StartChar: afii57410
Encoding: 1570 1570 337
AltUni2: 00fe81.ffffffff.0
Width: 415
VWidth: 1639
GlyphClass: 2
Flags: W
LayerCount: 2
Fore
SplineSet
251 1320 m 1,0,-1
 269 1322 l 1,1,-1
 254 1317 l 1,2,3
 317 1293 317 1293 455 1266 c 0,4,5
 557 1248 557 1248 596 1253 c 0,6,7
 649 1260 649 1260 742 1292 c 0,8,9
 749 1294 749 1294 765 1300 c 0,10,11
 807 1315 807 1315 825 1315 c 1,12,13
 811 1253 811 1253 708 1204 c 0,14,15
 702 1201 702 1201 679 1191 c 0,16,17
 518 1113 518 1113 381 1127 c 0,18,19
 371 1128 371 1128 274 1153 c 0,20,21
 239 1162 239 1162 212 1163 c 1,22,23
 183 1162 183 1162 135 1105 c 0,24,25
 116 1083 116 1083 114 1083 c 0,26,27
 107 1081 107 1081 102 1082 c 0,28,29
 98 1085 98 1085 101 1099 c 0,30,31
 105 1123 105 1123 117 1146 c 0,32,33
 141 1196 141 1196 203 1271 c 1,34,35
 239 1311 239 1311 252 1317 c 1,36,-1
 251 1320 l 1,0,-1
533 1068 m 1,37,38
 478 832 478 832 416 599 c 0,39,40
 361 393 361 393 352 366 c 0,41,42
 327 293 327 293 295 235 c 0,43,44
 221 103 221 103 176 44 c 0,45,46
 144 5 144 5 136 0 c 0,47,48
 126 -4 126 -4 120 -2 c 0,49,50
 115 1 115 1 115 18 c 1,51,52
 110 51 110 51 113 80 c 0,53,54
 120 176 120 176 150 333 c 0,55,56
 222 711 222 711 239 784 c 0,57,58
 259 870 259 870 261 886 c 0,59,60
 267 930 267 930 273 940 c 0,61,62
 276 942 276 942 291 950 c 0,63,64
 315 962 315 962 335 971 c 0,65,66
 340 974 340 974 454 1030 c 1,67,68
 517 1064 517 1064 533 1068 c 1,37,38
EndSplineSet
AlternateSubs2: "gsub_alternate_dfl_aalt_arab_FAR_Lookup_01_Subtable_01" uniFE82 afii57410
Substitution2: "gsub_single_rtl_fina_arab_FAR_Lookup_01_Subtable_01" uniFE82
EndChar

StartChar: uniFE83
Encoding: 1571 1571 339
AltUni2: 00fe83.ffffffff.0
Width: 399
VWidth: 1639
GlyphClass: 2
Flags: W
LayerCount: 2
Fore
SplineSet
532 1184 m 1,0,1
 534 1174 534 1174 530 1122 c 1,2,3
 527 1063 527 1063 510 950 c 0,4,5
 491 822 491 822 433 571 c 0,6,7
 380 344 380 344 350 264 c 1,8,9
 295 127 295 127 251 54 c 1,10,11
 219 5 219 5 206 -2 c 0,12,13
 199 -5 199 -5 195 -5 c 0,14,15
 188 -3 188 -3 185 11 c 0,16,17
 181 33 181 33 181 67 c 0,18,19
 181 149 181 149 195 312 c 0,20,21
 217 608 217 608 231 754 c 1,22,23
 237 833 237 833 242 872 c 0,24,25
 242 876 242 876 242 886 c 0,26,27
 243 911 243 911 248 920 c 0,28,29
 254 929 254 929 274 946 c 0,30,31
 293 962 293 962 326 994 c 0,32,33
 365 1031 365 1031 532 1184 c 1,0,1
417 1420 m 1,34,35
 365 1427 365 1427 373 1497 c 0,36,37
 376 1515 376 1515 382 1532 c 0,38,39
 416 1623 416 1623 485 1674 c 0,40,41
 526 1703 526 1703 564 1702 c 0,42,43
 626 1699 626 1699 655 1650 c 0,44,45
 658 1644 658 1644 660 1640 c 0,46,47
 670 1601 670 1601 657 1588 c 1,48,49
 645 1578 645 1578 600 1592 c 0,50,51
 596 1593 596 1593 594 1594 c 0,52,53
 543 1598 543 1598 497 1568 c 0,54,55
 458 1542 458 1542 477 1513 c 0,56,57
 489 1498 489 1498 509 1496 c 0,58,59
 544 1492 544 1492 636 1525 c 0,60,61
 669 1537 669 1537 687 1542 c 1,62,63
 682 1525 682 1525 669 1490 c 0,64,65
 660 1467 660 1467 657 1456 c 0,66,67
 643 1423 643 1423 643 1424 c 1,68,69
 640 1422 640 1422 613 1412 c 0,70,71
 560 1395 560 1395 536 1386 c 0,72,73
 476 1363 476 1363 303 1270 c 0,74,75
 299 1268 299 1268 296 1266 c 1,76,77
 304 1300 304 1300 316 1335 c 1,78,79
 321 1354 321 1354 323 1356 c 0,80,81
 328 1363 328 1363 343 1374 c 2,82,-1
 346 1376 l 2,83,84
 403 1414 403 1414 417 1419 c 1,85,-1
 417 1420 l 1,34,35
EndSplineSet
AlternateSubs2: "gsub_alternate_dfl_aalt_arab_FAR_Lookup_01_Subtable_01" uniFE84 uniFE83
Substitution2: "gsub_single_rtl_fina_arab_FAR_Lookup_01_Subtable_01" uniFE84
EndChar

StartChar: uniFE84
Encoding: 65156 65156 340
Width: 380
VWidth: 1639
GlyphClass: 2
Flags: W
LayerCount: 2
Fore
SplineSet
410 0 m 1,0,1
 272 0 272 0 238 6 c 0,2,3
 211 11 211 11 190 20 c 0,4,5
 144 37 144 37 125 62 c 1,6,7
 80 132 80 132 123 318 c 0,8,9
 142 400 142 400 217 790 c 0,10,11
 227 842 227 842 242 943 c 1,12,13
 246 997 246 997 252 1009 c 0,14,15
 254 1012 254 1012 255 1014 c 0,16,17
 263 1026 263 1026 315 1055 c 0,18,19
 322 1059 322 1059 325 1061 c 0,20,21
 347 1075 347 1075 389 1102 c 0,22,23
 432 1129 432 1129 453 1143 c 0,24,25
 509 1181 509 1181 522 1186 c 1,26,-1
 401 661 l 1,27,-1
 367 513 l 2,28,29
 350 437 350 437 352 410 c 0,30,31
 358 362 358 362 398 335 c 0,32,33
 406 329 406 329 415 326 c 0,34,35
 428 322 428 322 484 323 c 1,36,-1
 410 0 l 1,0,1
426 1422 m 1,37,38
 374 1429 374 1429 382 1499 c 0,39,40
 385 1517 385 1517 390 1533 c 0,41,42
 424 1624 424 1624 494 1675 c 0,43,44
 535 1704 535 1704 573 1704 c 0,45,46
 635 1701 635 1701 663 1652 c 0,47,48
 666 1646 666 1646 668 1642 c 0,49,50
 678 1603 678 1603 665 1589 c 1,51,52
 653 1579 653 1579 609 1594 c 0,53,54
 605 1595 605 1595 603 1596 c 0,55,56
 552 1600 552 1600 505 1569 c 0,57,58
 466 1543 466 1543 486 1515 c 0,59,60
 498 1500 498 1500 518 1497 c 0,61,62
 553 1493 553 1493 644 1527 c 0,63,64
 677 1539 677 1539 696 1543 c 1,65,66
 691 1526 691 1526 678 1491 c 0,67,68
 669 1468 669 1468 666 1458 c 0,69,70
 652 1425 l 1,71,72
 649 1423 649 1423 622 1414 c 0,73,74
 569 1397 569 1397 544 1387 c 0,75,76
 484 1364 484 1364 311 1271 c 0,77,78
 307 1269 307 1269 305 1268 c 1,79,80
 313 1302 313 1302 325 1337 c 1,81,82
 330 1356 330 1356 331 1358 c 0,83,84
 336 1365 336 1365 352 1376 c 2,85,-1
 354 1378 l 2,86,87
 411 1416 411 1416 425 1420 c 1,88,-1
 426 1422 l 1,37,38
EndSplineSet
EndChar

StartChar: uniFE85
Encoding: 1572 1572 341
AltUni2: 00fe85.ffffffff.0
Width: 618
VWidth: 1639
GlyphClass: 2
Flags: W
LayerCount: 2
Fore
SplineSet
340 -10 m 1,0,1
 219 -10 219 -10 164 3 c 0,2,3
 117 15 117 15 104 39 c 1,4,5
 81 91 81 91 104 194 c 0,6,7
 114 235 114 235 128 276 c 0,8,9
 168 394 168 394 226 484 c 0,10,11
 264 545 264 545 293 569 c 1,12,13
 352 613 352 613 424 605 c 0,14,15
 535 592 535 592 536 398 c 0,16,17
 536 391 536 391 536 385 c 0,18,19
 537 250 537 250 488 72 c 0,20,21
 435 -118 435 -118 378 -231 c 0,22,23
 334 -320 334 -320 284 -380 c 1,24,25
 251 -418 251 -418 241 -425 c 1,26,27
 207 -437 207 -437 137 -433 c 1,28,-1
 -110 -433 l 2,29,30
 -170 -433 -170 -433 -180 -428 c 0,31,32
 -197 -416 -197 -416 -181 -389 c 0,33,34
 -176 -383 -176 -383 -143 -367 c 1,35,36
 -77 -334 -77 -334 -46 -318 c 0,37,38
 152 -210 152 -210 250 -139 c 0,39,40
 337 -75 337 -75 358 -36 c 1,41,-1
 325 -34 l 1,42,-1
 340 -10 l 1,0,1
395 269 m 1,43,44
 430 275 430 275 423 303 c 0,45,46
 415 328 415 328 387 354 c 1,47,48
 319 405 319 405 250 344 c 0,49,50
 247 341 247 341 239 334 c 0,51,52
 203 303 203 303 214 284 c 0,53,54
 215 283 215 283 228 272 c 0,55,56
 230 270 230 270 232 263 c 0,57,58
 234 255 234 255 237 251 c 0,59,60
 263 237 263 237 335 239 c 0,61,62
 389 239 389 239 394 264 c 0,63,64
 395 267 395 267 395 269 c 1,43,44
429 846 m 1,65,66
 377 853 377 853 385 923 c 0,67,68
 388 941 388 941 394 958 c 0,69,70
 428 1049 428 1049 497 1100 c 0,71,72
 538 1129 538 1129 576 1128 c 0,73,74
 638 1125 638 1125 667 1076 c 0,75,76
 670 1070 670 1070 672 1066 c 0,77,78
 682 1027 682 1027 669 1014 c 1,79,80
 657 1004 657 1004 612 1018 c 0,81,82
 608 1019 608 1019 606 1020 c 0,83,84
 555 1024 555 1024 509 994 c 0,85,86
 470 968 470 968 489 939 c 0,87,88
 501 924 501 924 521 922 c 0,89,90
 556 918 556 918 648 951 c 0,91,92
 681 963 681 963 699 968 c 1,93,94
 694 951 694 951 681 916 c 0,95,96
 672 893 672 893 669 882 c 0,97,98
 654 848 654 848 655 850 c 1,99,100
 652 848 652 848 625 838 c 0,101,102
 572 821 572 821 548 812 c 0,103,104
 488 789 488 789 315 696 c 0,105,106
 311 694 311 694 308 692 c 1,107,108
 316 726 316 726 328 761 c 1,109,110
 333 780 333 780 335 782 c 0,111,112
 340 789 340 789 355 800 c 2,113,-1
 358 802 l 2,114,115
 415 840 415 840 428 845 c 1,116,-1
 429 846 l 1,65,66
EndSplineSet
AlternateSubs2: "gsub_alternate_dfl_aalt_arab_FAR_Lookup_01_Subtable_01" uniFE86 uniFE85
Substitution2: "gsub_single_rtl_fina_arab_FAR_Lookup_01_Subtable_01" uniFE86
EndChar

StartChar: uniFE86
Encoding: 65158 65158 342
Width: 509
VWidth: 1639
GlyphClass: 2
Flags: W
LayerCount: 2
Fore
SplineSet
292 -10 m 1,0,1
 187 -10 187 -10 124 2 c 1,2,3
 74 14 74 14 59 36 c 0,4,5
 32 82 32 82 54 180 c 0,6,7
 94 350 94 350 179 484 c 0,8,9
 235 575 235 575 298 597 c 0,10,11
 379 625 379 625 436 584 c 0,12,13
 449 574 449 574 458 563 c 0,14,15
 480 528 480 528 489 454 c 0,16,17
 492 418 492 418 491 384 c 0,18,19
 491 381 491 381 491 372 c 0,20,21
 491 356 491 356 493 353 c 0,22,23
 495 351 495 351 500 350 c 0,24,25
 506 348 506 348 508 346 c 0,26,27
 509 344 509 344 509 337 c 0,28,29
 510 327 510 327 513 325 c 0,30,31
 518 323 518 323 543 323 c 2,32,-1
 613 323 l 1,33,-1
 538 0 l 1,34,-1
 442 0 l 1,35,-1
 435 -26 l 1,36,-1
 412 -26 l 1,37,38
 405 -53 405 -53 378 -128 c 0,39,40
 327 -263 327 -263 263 -346 c 0,41,42
 217 -406 217 -406 209 -413 c 0,43,44
 193 -427 193 -427 179 -431 c 1,45,46
 153 -435 153 -435 72 -433 c 1,47,-1
 -147 -433 l 1,48,-1
 -210 -433 l 2,49,50
 -230 -432 -230 -432 -234 -426 c 0,51,52
 -239 -420 -239 -420 -235 -402 c 0,53,54
 -230 -385 -230 -385 -203 -373 c 0,55,56
 -196 -370 -196 -370 -194 -369 c 0,57,58
 -121 -333 -121 -333 -85 -313 c 0,59,60
 121 -202 121 -202 216 -130 c 0,61,62
 287 -75 287 -75 305 -46 c 0,63,64
 308 -41 308 -41 310 -36 c 1,65,-1
 277 -34 l 1,66,-1
 292 -10 l 1,0,1
343 266 m 1,67,68
 349 267 349 267 358 269 c 0,69,70
 390 277 390 277 357 322 c 0,71,72
 356 323 356 323 355 325 c 2,73,-1
 354 326 l 2,74,75
 315 382 315 382 259 377 c 1,76,77
 233 371 233 371 200 344 c 0,78,79
 196 341 196 341 189 336 c 0,80,81
 178 329 178 329 174 323 c 0,82,83
 149 289 149 289 170 274 c 0,84,85
 175 271 175 271 180 271 c 1,86,87
 179 248 179 248 205 241 c 0,88,89
 248 232 248 232 305 238 c 1,90,91
 338 244 338 244 342 255 c 0,92,93
 344 260 344 260 343 266 c 1,67,68
493 853 m 1,94,95
 441 860 441 860 449 930 c 0,96,97
 452 948 452 948 457 964 c 0,98,99
 491 1055 491 1055 561 1106 c 0,100,101
 602 1135 602 1135 640 1135 c 0,102,103
 702 1132 702 1132 731 1083 c 0,104,105
 734 1077 734 1077 736 1073 c 0,106,107
 746 1034 746 1034 733 1020 c 1,108,109
 721 1010 721 1010 676 1025 c 0,110,111
 672 1026 672 1026 670 1027 c 0,112,113
 619 1031 619 1031 572 1000 c 0,114,115
 533 974 533 974 553 946 c 0,116,117
 565 931 565 931 585 928 c 0,118,119
 620 924 620 924 711 958 c 0,120,121
 744 970 744 970 763 974 c 1,122,123
 758 957 758 957 745 922 c 0,124,125
 736 899 736 899 733 889 c 0,126,127
 719 856 l 1,128,129
 716 854 716 854 689 845 c 0,130,131
 636 828 636 828 611 818 c 0,132,133
 551 795 551 795 379 702 c 0,134,135
 375 700 375 700 372 699 c 1,136,137
 380 733 380 733 392 768 c 1,138,139
 397 787 397 787 399 789 c 0,140,141
 404 796 404 796 419 807 c 2,142,-1
 421 809 l 2,143,144
 478 847 478 847 492 851 c 1,145,-1
 493 853 l 1,94,95
EndSplineSet
EndChar

StartChar: uniFE87
Encoding: 1573 1573 343
AltUni2: 00fe87.ffffffff.0
Width: 402
VWidth: 1639
GlyphClass: 2
Flags: W
LayerCount: 2
Fore
SplineSet
584 1184 m 1,0,1
 586 1174 586 1174 582 1122 c 1,2,3
 579 1063 579 1063 562 950 c 0,4,5
 543 822 543 822 486 571 c 0,6,7
 433 344 433 344 403 264 c 1,8,9
 348 127 348 127 304 54 c 1,10,11
 272 5 272 5 259 -2 c 0,12,13
 252 -5 252 -5 247 -5 c 0,14,15
 240 -3 240 -3 238 11 c 0,16,17
 234 33 234 33 234 67 c 0,18,19
 234 149 234 149 247 312 c 0,20,21
 269 608 269 608 284 754 c 1,22,23
 290 833 290 833 294 872 c 0,24,25
 294 876 294 876 295 886 c 0,26,27
 296 911 296 911 301 920 c 0,28,29
 307 929 307 929 327 946 c 0,30,31
 346 962 346 962 379 994 c 0,32,33
 417 1031 417 1031 584 1184 c 1,0,1
37 -453 m 1,34,35
 -15 -446 -15 -446 -6 -376 c 0,36,37
 -3 -358 -3 -358 2 -341 c 0,38,39
 36 -250 36 -250 106 -199 c 0,40,41
 147 -170 147 -170 185 -171 c 0,42,43
 247 -174 247 -174 275 -223 c 0,44,45
 278 -229 278 -229 280 -233 c 0,46,47
 290 -272 290 -272 277 -285 c 1,48,49
 265 -295 265 -295 221 -281 c 0,50,51
 217 -280 217 -280 215 -279 c 0,52,53
 164 -275 164 -275 117 -305 c 0,54,55
 78 -331 78 -331 98 -360 c 0,56,57
 110 -375 110 -375 129 -377 c 0,58,59
 164 -381 164 -381 256 -348 c 0,60,61
 289 -336 289 -336 308 -331 c 1,62,63
 303 -348 303 -348 290 -383 c 0,64,65
 281 -406 281 -406 277 -417 c 0,66,67
 263 -450 263 -450 264 -449 c 1,68,69
 261 -451 261 -451 234 -461 c 0,70,71
 181 -478 181 -478 156 -487 c 0,72,73
 96 -510 96 -510 -77 -603 c 0,74,75
 -81 -605 -81 -605 -84 -607 c 1,76,77
 -76 -573 -76 -573 -63 -538 c 1,78,79
 -58 -519 -58 -519 -57 -517 c 0,80,81
 -52 -510 -52 -510 -36 -499 c 2,82,-1
 -34 -497 l 2,83,84
 23 -459 23 -459 37 -454 c 1,85,-1
 37 -453 l 1,34,35
EndSplineSet
AlternateSubs2: "gsub_alternate_dfl_aalt_arab_FAR_Lookup_01_Subtable_01" uniFE88 uniFE87
Substitution2: "gsub_single_rtl_fina_arab_FAR_Lookup_01_Subtable_01" uniFE88
EndChar

StartChar: uniFE88
Encoding: 65160 65160 344
Width: 536
VWidth: 1639
GlyphClass: 2
Flags: W
LayerCount: 2
Fore
SplineSet
565 0 m 1,0,1
 427 0 427 0 393 6 c 0,2,3
 366 11 366 11 345 20 c 0,4,5
 299 37 299 37 280 62 c 1,6,7
 235 132 235 132 278 318 c 0,8,9
 297 400 297 400 372 790 c 0,10,11
 382 842 382 842 397 943 c 1,12,13
 401 997 401 997 407 1009 c 0,14,15
 409 1012 409 1012 410 1014 c 0,16,17
 418 1026 418 1026 470 1055 c 0,18,19
 477 1059 477 1059 480 1061 c 0,20,21
 502 1075 502 1075 544 1102 c 0,22,23
 587 1129 587 1129 608 1143 c 0,24,25
 664 1181 664 1181 677 1186 c 1,26,-1
 556 661 l 1,27,-1
 522 513 l 2,28,29
 505 437 505 437 507 410 c 0,30,31
 513 362 513 362 553 335 c 0,32,33
 561 329 561 329 570 326 c 0,34,35
 583 322 583 322 640 323 c 1,36,-1
 565 0 l 1,0,1
47 -408 m 1,37,38
 -5 -401 -5 -401 3 -331 c 0,39,40
 6 -313 6 -313 11 -297 c 0,41,42
 45 -206 45 -206 115 -155 c 0,43,44
 156 -126 156 -126 194 -126 c 0,45,46
 256 -129 256 -129 285 -178 c 0,47,48
 288 -184 288 -184 290 -189 c 0,49,50
 300 -228 300 -228 287 -241 c 1,51,52
 275 -251 275 -251 230 -236 c 0,53,54
 226 -235 226 -235 224 -235 c 0,55,56
 173 -231 173 -231 126 -261 c 0,57,58
 87 -287 87 -287 107 -316 c 0,59,60
 119 -331 119 -331 139 -333 c 0,61,62
 174 -337 174 -337 265 -303 c 0,63,64
 298 -291 298 -291 317 -287 c 1,65,66
 312 -304 312 -304 299 -339 c 0,67,68
 290 -362 290 -362 287 -372 c 0,69,70
 272 -406 272 -406 273 -405 c 1,71,72
 270 -407 270 -407 243 -417 c 0,73,74
 190 -434 190 -434 165 -443 c 0,75,76
 105 -466 105 -466 -67 -559 c 0,77,78
 -71 -561 -71 -561 -74 -563 c 1,79,80
 -66 -529 -66 -529 -54 -494 c 1,81,82
 -49 -475 -49 -475 -47 -472 c 0,83,84
 -42 -465 -42 -465 -27 -454 c 2,85,-1
 -25 -453 l 2,86,87
 32 -415 32 -415 46 -410 c 1,88,-1
 47 -408 l 1,37,38
EndSplineSet
EndChar

StartChar: uniFE89
Encoding: 1574 1574 345
AltUni2: 00fe89.ffffffff.0
Width: 1110
VWidth: 1639
GlyphClass: 2
Flags: W
LayerCount: 2
Fore
SplineSet
871 15 m 1,0,1
 879 38 879 38 841 43 c 0,2,3
 819 45 819 45 773 50 c 0,4,5
 727 55 727 55 706 57 c 0,6,7
 691 59 691 59 660 63 c 0,8,9
 575 72 575 72 537 89 c 0,10,11
 499 105 499 105 490 121 c 0,12,13
 462 173 462 173 522 305 c 1,14,15
 577 421 577 421 667 536 c 1,16,17
 761 653 761 653 849 686 c 0,18,19
 952 724 952 724 1020 670 c 0,20,21
 1031 661 1031 661 1039 651 c 0,22,23
 1059 624 1059 624 1074 563 c 0,24,25
 1092 482 1092 482 1059 417 c 1,26,27
 1051 419 1051 419 969 451 c 1,28,29
 869 480 869 480 790 454 c 0,30,31
 733 435 733 435 664 374 c 1,32,33
 622 329 622 329 658 318 c 1,34,35
 652 293 652 293 707 282 c 0,36,37
 714 281 714 281 716 280 c 0,38,39
 744 275 744 275 801 269 c 0,40,41
 891 258 891 258 932 246 c 0,42,43
 970 234 970 234 982 218 c 1,44,45
 995 196 995 196 993 148 c 0,46,47
 993 77 993 77 953 -36 c 1,48,49
 896 -187 896 -187 800 -276 c 0,50,51
 744 -327 744 -327 654 -362 c 0,52,53
 478 -435 478 -435 274 -425 c 0,54,55
 58 -415 58 -415 -14 -330 c 0,56,57
 -20 -323 -20 -323 -24 -317 c 0,58,59
 -109 -193 -109 -193 -13 66 c 0,60,61
 -6 85 -6 85 1 102 c 0,62,63
 68 265 68 265 116 329 c 0,64,65
 118 332 118 332 120 333 c 0,66,67
 137 356 137 356 165 350 c 0,68,69
 174 347 174 347 178 343 c 1,70,71
 184 330 184 330 178 302 c 0,72,73
 174 282 174 282 138 181 c 0,74,75
 117 121 117 121 118 80 c 0,76,77
 120 33 120 33 153 -11 c 1,78,79
 221 -113 221 -113 435 -118 c 0,80,81
 451 -118 451 -118 468 -118 c 0,82,83
 615 -118 615 -118 766 -75 c 0,84,85
 832 -57 832 -57 847 -48 c 0,86,87
 859 -38 859 -38 863 -28 c 1,88,89
 889 -19 889 -19 892 -5 c 0,90,91
 892 -1 892 -1 891 2 c 0,92,93
 888 8 888 8 871 15 c 1,0,1
200 702 m 1,94,95
 148 709 148 709 157 779 c 0,96,97
 160 797 160 797 165 813 c 0,98,99
 199 904 199 904 269 955 c 0,100,101
 310 984 310 984 348 984 c 0,102,103
 410 981 410 981 438 932 c 0,104,105
 441 926 441 926 443 922 c 0,106,107
 453 883 453 883 440 869 c 1,108,109
 428 859 428 859 383 874 c 0,110,111
 379 875 379 875 378 876 c 0,112,113
 327 880 327 880 280 850 c 0,114,115
 241 824 241 824 261 795 c 0,116,117
 273 780 273 780 292 777 c 0,118,119
 327 773 327 773 419 807 c 0,120,121
 452 819 452 819 471 823 c 1,122,123
 466 806 466 806 453 771 c 0,124,125
 444 748 444 748 440 738 c 0,126,127
 426 705 426 705 427 705 c 1,128,129
 424 703 424 703 397 694 c 0,130,131
 344 677 344 677 319 667 c 0,132,133
 259 644 259 644 86 551 c 0,134,135
 82 549 82 549 79 548 c 1,136,137
 87 582 87 582 100 617 c 1,138,139
 105 636 105 636 106 638 c 0,140,141
 111 645 111 645 126 656 c 2,142,-1
 129 658 l 2,143,144
 186 696 186 696 200 700 c 1,145,-1
 200 702 l 1,94,95
EndSplineSet
AlternateSubs2: "gsub_alternate_dfl_aalt_arab_FAR_Lookup_01_Subtable_01" uniFE8A uniFE8B uniFE89 uniFE8C
Substitution2: "gsub_single_rtl_fina_arab_FAR_Lookup_01_Subtable_01" uniFE8A
Substitution2: "gsub_single_rtl_init_arab_FAR_Lookup_01_Subtable_01" uniFE8B
Substitution2: "gsub_single_rtl_medi_arab_FAR_Lookup_01_Subtable_01" uniFE8C
EndChar

StartChar: uniFE8A
Encoding: 65162 65162 346
Width: 1091
VWidth: 1639
GlyphClass: 2
Flags: W
LayerCount: 2
Fore
SplineSet
831 -69 m 1,0,1
 841 -53 841 -53 822 -46 c 0,2,3
 801 -39 801 -39 757 -39 c 0,4,5
 582 -35 582 -35 559 -33 c 0,6,7
 546 -31 546 -31 536 -30 c 0,8,9
 477 -16 477 -16 470 8 c 1,10,11
 457 72 457 72 512 153 c 0,12,13
 529 177 529 177 548 194 c 0,14,15
 575 217 575 217 637 244 c 0,16,17
 715 281 715 281 818 298 c 1,18,19
 949 323 949 323 1194 323 c 1,20,-1
 1119 0 l 1,21,-1
 1065 0 l 2,22,23
 1044 1 1044 1 1041 2 c 0,24,25
 1035 7 1035 7 1018 34 c 1,26,27
 976 92 976 92 956 107 c 0,28,29
 885 153 885 153 741 153 c 0,30,31
 680 152 680 152 630 134 c 0,32,33
 599 123 599 123 596 112 c 0,34,35
 595 110 595 110 595 107 c 1,36,37
 569 95 569 95 566 87 c 0,38,39
 565 84 565 84 566 81.5 c 128,-1,40
 567 79 567 79 569 77 c 128,-1,41
 571 75 571 75 574.5 74.5 c 128,-1,42
 578 74 578 74 579.5 73 c 128,-1,43
 581 72 581 72 585 71 c 2,44,-1
 590 71 l 1,45,46
 579 52 579 52 607 44 c 0,47,48
 614 42 614 42 692 40 c 0,49,50
 694 40 694 40 697 39 c 0,51,52
 711 38 711 38 740 38 c 0,53,54
 822 36 822 36 858 23 c 1,55,56
 897 7 897 7 906 -8 c 0,57,58
 925 -47 925 -47 898 -134 c 0,59,60
 865 -238 865 -238 795 -303 c 1,61,62
 715 -372 715 -372 563 -403 c 0,63,64
 319 -454 319 -454 128 -405 c 0,65,66
 10 -374 10 -374 -33 -313 c 1,67,68
 -72 -253 -72 -253 -63 -139 c 1,69,70
 -47 34 -47 34 61 213 c 0,71,72
 100 278 100 278 121 291 c 0,73,74
 135 299 135 299 149 300 c 0,75,76
 168 299 168 299 173 294 c 1,77,78
 182 276 182 276 165 235 c 1,79,-1
 122 107 l 1,80,81
 92 6 92 6 165 -75 c 0,82,83
 184 -95 184 -95 205 -108 c 0,84,85
 259 -142 259 -142 367 -154 c 0,86,87
 457 -164 457 -164 667 -151 c 0,88,89
 725 -148 725 -148 788 -133 c 1,90,91
 823 -122 823 -122 825 -105 c 1,92,93
 850 -95 850 -95 854 -88 c 0,94,95
 855 -85 855 -85 855 -84 c 0,96,97
 853 -76 853 -76 831 -69 c 1,0,1
167 559 m 1,98,99
 115 566 115 566 124 636 c 0,100,101
 127 654 127 654 132 671 c 0,102,103
 166 762 166 762 236 813 c 0,104,105
 277 842 277 842 315 841 c 0,106,107
 377 838 377 838 405 789 c 0,108,109
 408 783 408 783 410 779 c 0,110,111
 420 740 420 740 407 727 c 1,112,113
 395 717 395 717 350 731 c 0,114,115
 346 732 346 732 345 733 c 0,116,117
 294 737 294 737 247 707 c 0,118,119
 208 681 208 681 228 652 c 0,120,121
 240 637 240 637 259 635 c 0,122,123
 294 631 294 631 386 664 c 0,124,125
 419 676 419 676 438 681 c 1,126,127
 433 664 433 664 420 629 c 0,128,129
 411 606 411 606 407 595 c 0,130,131
 393 562 393 562 394 563 c 1,132,133
 391 561 391 561 364 551 c 0,134,135
 311 534 311 534 286 525 c 0,136,137
 226 502 226 502 53 409 c 0,138,139
 49 407 49 407 46 405 c 1,140,141
 54 439 54 439 67 474 c 1,142,143
 72 493 72 493 73 495 c 0,144,145
 78 502 78 502 94 513 c 2,146,-1
 96 515 l 2,147,148
 153 553 153 553 167 558 c 1,149,-1
 167 559 l 1,98,99
EndSplineSet
EndChar

StartChar: uniFE8B
Encoding: 65163 65163 347
Width: 452
VWidth: 1639
GlyphClass: 2
Flags: W
LayerCount: 2
Fore
SplineSet
350 1061 m 1,0,1
 302 1066 302 1066 339 1159 c 1,2,3
 376 1240 376 1240 420 1269 c 0,4,5
 472 1302 472 1302 526 1282 c 1,6,7
 566 1265 566 1265 568 1225 c 1,8,9
 559 1225 559 1225 542 1230 c 0,10,11
 526 1234 526 1234 518 1235 c 0,12,13
 473 1237 473 1237 432 1210 c 0,14,15
 427 1206 427 1206 409 1191 c 0,16,17
 405 1187 405 1187 398 1181 c 0,18,19
 380 1165 380 1165 374 1153 c 1,20,21
 369 1137 369 1137 386 1118 c 0,22,23
 388 1116 388 1116 388 1115 c 0,24,25
 390 1113 390 1113 392 1107 c 0,26,27
 395 1099 395 1099 398 1096 c 0,28,29
 413 1081 413 1081 452 1081 c 0,30,31
 476 1081 476 1081 559 1112 c 0,32,33
 570 1116 570 1116 577 1118 c 1,34,35
 575 1111 575 1111 569 1096 c 0,36,37
 563 1081 563 1081 561 1074 c 0,38,39
 560 1072 560 1072 558 1068 c 0,40,41
 554 1059 554 1059 552 1056 c 0,42,43
 548 1053 548 1053 523 1045 c 0,44,45
 485 1033 485 1033 457 1020 c 0,46,47
 423 1007 423 1007 269 929 c 0,48,49
 264 926 264 926 261 925 c 1,50,51
 269 959 269 959 273 966 c 0,52,53
 289 988 289 988 331 1005 c 0,54,55
 335 1007 335 1007 338 1007 c 1,56,-1
 338 1009 l 1,57,-1
 329 1010 l 1,58,-1
 330 1012 l 1,59,-1
 368 1033 l 1,60,-1
 368 1035 l 1,61,62
 344 1039 344 1039 336 1053 c 1,63,-1
 350 1059 l 1,64,-1
 350 1061 l 1,0,1
410 792 m 1,65,66
 435 760 435 760 448 674 c 0,67,68
 477 510 477 510 392 259 c 0,69,70
 345 120 345 120 282 66 c 0,71,72
 202 0 202 0 39 -1 c 0,73,74
 27 -1 27 -1 4 -0 c 0,75,76
 -19 0 -19 0 -29 0 c 1,77,-1
 45 323 l 1,78,-1
 180 323 l 2,79,80
 247 323 247 323 253 325 c 0,81,82
 263 328 263 328 278 344 c 0,83,84
 282 348 282 348 283 349 c 0,85,86
 287 354 287 354 297 360 c 0,87,88
 314 374 314 374 314 389 c 1,89,90
 311 404 311 404 295 431 c 0,91,92
 278 462 278 462 242 513 c 0,93,94
 240 515 240 515 234 523 c 0,95,96
 212 549 212 549 213 561 c 0,97,98
 216 574 216 574 257 617 c 0,99,100
 263 623 263 623 265 626 c 0,101,102
 289 654 289 654 337 709 c 0,103,104
 386 765 386 765 410 792 c 1,65,66
EndSplineSet
EndChar

StartChar: uniFE8C
Encoding: 65164 65164 348
Width: 455
VWidth: 1639
GlyphClass: 2
Flags: W
LayerCount: 2
Fore
SplineSet
353 910 m 1,0,1
 351 911 351 911 345 913 c 0,2,3
 334 917 334 917 331 920 c 0,4,5
 314 946 314 946 345 1014 c 1,6,7
 406 1134 406 1134 492 1140 c 1,8,9
 549 1140 549 1140 567 1101 c 0,10,11
 572 1088 572 1088 572 1076 c 1,12,13
 563 1076 563 1076 546 1081 c 0,14,15
 532 1085 532 1085 525 1086 c 0,16,17
 478 1088 478 1088 439 1063 c 0,18,19
 437 1062 437 1062 416 1044 c 0,20,21
 413 1042 413 1042 413 1041 c 0,22,23
 410 1038 410 1038 402 1032 c 0,24,25
 382 1014 382 1014 377 1000 c 0,26,27
 373 986 373 986 390 969 c 0,28,29
 391 968 391 968 392 966 c 0,30,31
 394 964 394 964 396 958 c 0,32,33
 398 952 398 952 399 950 c 0,34,35
 409 938 409 938 429 935 c 0,36,37
 464 927 464 927 540 955 c 0,38,39
 567 965 567 965 582 969 c 1,40,-1
 558 905 l 1,41,42
 474 886 474 886 301 795 c 0,43,44
 278 783 278 783 264 776 c 1,45,46
 272 810 272 810 277 817 c 0,47,48
 296 839 296 839 341 858 c 1,49,-1
 335 863 l 1,50,-1
 372 884 l 1,51,-1
 341 902 l 1,52,-1
 353 910 l 1,0,1
45 323 m 1,53,54
 135 323 135 323 159 329 c 0,55,56
 178 334 178 334 193 343 c 1,57,58
 224 362 224 362 255 394 c 0,59,60
 270 409 270 409 306 477 c 0,61,62
 309 482 309 482 310 485 c 0,63,64
 326 520 326 520 341 525 c 0,65,66
 347 526 347 526 352 526 c 0,67,68
 370 526 370 526 369 498 c 0,69,70
 369 491 369 491 369 489 c 0,71,72
 366 413 366 413 378 389 c 1,73,74
 402 350 402 350 420 338 c 0,75,76
 448 320 448 320 540 323 c 0,77,78
 551 323 551 323 558 323 c 1,79,-1
 483 0 l 1,80,81
 372 0 372 0 339 13 c 0,82,83
 292 34 292 34 286 82 c 1,84,-1
 283 82 l 1,85,-1
 280 77 l 1,86,-1
 278 77 l 1,87,-1
 267 108 l 1,88,-1
 264 108 l 1,89,-1
 239 77 l 1,90,-1
 237 77 l 1,91,-1
 237 82 l 1,92,-1
 234 82 l 1,93,94
 214 46 214 46 164 23 c 0,95,96
 111 -2 111 -2 3 -0 c 0,97,98
 -19 0 -19 0 -29 0 c 1,99,-1
 45 323 l 1,53,54
EndSplineSet
EndChar

StartChar: alefarabic
Encoding: 1575 1575 349
AltUni2: 00fe8d.ffffffff.0
Width: 502
VWidth: 1639
GlyphClass: 2
Flags: HW
AnchorPoint: "GposMark2BaseAnchorClassErabAbove_01_02" 417.5 1334 basechar 0
AnchorPoint: "GposMark2BaseAnchorClassErabBelow_01_02" 417.5 -155 basechar 0
LayerCount: 2
Fore
SplineSet
592 1184 m 1,0,1
 594 1174 594 1174 589 1122 c 1,2,3
 586 1063 586 1063 569 950 c 0,4,5
 550 822 550 822 493 571 c 0,6,7
 440 344 440 344 410 264 c 1,8,9
 355 127 355 127 311 54 c 1,10,11
 279 5 279 5 266 -2 c 0,12,13
 259 -5 259 -5 255 -5 c 0,14,15
 248 -3 248 -3 245 11 c 0,16,17
 241 33 241 33 241 67 c 0,18,19
 241 149 241 149 254 312 c 0,20,21
 276 608 276 608 291 754 c 1,22,23
 297 833 297 833 302 872 c 0,24,25
 302 876 302 876 302 886 c 0,26,27
 303 911 303 911 308 920 c 0,28,29
 314 929 314 929 334 946 c 0,30,31
 353 962 353 962 386 994 c 0,32,33
 425 1031 425 1031 592 1184 c 1,0,1
EndSplineSet
AlternateSubs2: "gsub_alternate_dfl_aalt_arab_FAR_Lookup_01_Subtable_01" uniFE8E alefarabic
Substitution2: "gsub_single_rtl_fina_arab_FAR_Lookup_01_Subtable_01" uniFE8E
EndChar

StartChar: uniFE8E
Encoding: 65166 65166 350
Width: 457
VWidth: 1639
GlyphClass: 2
Flags: HW
AnchorPoint: "GposMark2BaseAnchorClassErabAbove_01_02" 377.5 1336 basechar 0
AnchorPoint: "GposMark2BaseAnchorClassErabBelow_01_02" 377.5 -150 basechar 0
LayerCount: 2
Fore
SplineSet
486 0 m 1,0,1
 348 0 348 0 314 6 c 0,2,3
 287 11 287 11 267 20 c 0,4,5
 221 37 221 37 202 62 c 1,6,7
 157 132 157 132 200 318 c 0,8,9
 219 400 219 400 294 790 c 0,10,11
 304 842 304 842 318 943 c 1,12,13
 322 997 322 997 329 1009 c 0,14,15
 331 1012 331 1012 331 1014 c 0,16,17
 339 1026 339 1026 392 1055 c 0,18,19
 399 1059 399 1059 402 1061 c 0,20,21
 424 1075 424 1075 466 1102 c 0,22,23
 509 1129 509 1129 529 1143 c 0,24,25
 585 1181 585 1181 598 1186 c 1,26,-1
 477 661 l 1,27,-1
 443 513 l 2,28,29
 426 437 426 437 429 410 c 0,30,31
 435 362 435 362 475 335 c 0,32,33
 483 329 483 329 492 326 c 0,34,35
 505 322 505 322 561 323 c 1,36,-1
 486 0 l 1,0,1
EndSplineSet
EndChar

StartChar: afii57416
Encoding: 1576 1576 351
AltUni2: 00fe8f.ffffffff.0
Width: 1169
VWidth: 1639
GlyphClass: 2
Flags: HW
AnchorPoint: "GposMark2BaseAnchorClassErabAbove_01_02" 589.5 918 basechar 0
AnchorPoint: "GposMark2BaseAnchorClassErabBelow_01_02" 589.5 -532 basechar 0
LayerCount: 2
Fore
SplineSet
1074 768 m 1,0,1
 1084 762 1084 762 1102 730 c 0,2,3
 1129 677 1129 677 1138 615 c 0,4,5
 1160 456 1160 456 1067 266 c 0,6,7
 1059 250 1059 250 1051 235 c 0,8,9
 991 127 991 127 909 72 c 1,10,11
 813 12 813 12 675 -8 c 1,12,13
 497 -37 497 -37 328 -18 c 1,14,15
 204 -5 204 -5 134 39 c 1,16,17
 19 117 19 117 80 346 c 0,18,19
 94 397 94 397 115 448 c 0,20,21
 157 549 157 549 193 584 c 0,22,23
 206 598 206 598 222 594 c 0,24,25
 227 592 227 592 229 589 c 0,26,27
 234 572 234 572 218 506 c 0,28,29
 215 494 215 494 214 487 c 0,30,31
 205 393 205 393 282 342 c 0,32,33
 286 340 286 340 288 338 c 0,34,35
 340 308 340 308 444 298 c 0,36,37
 496 293 496 293 707 295 c 0,38,39
 721 295 721 295 731 295 c 0,40,41
 858 295 858 295 910 316 c 0,42,43
 923 322 923 322 934 328 c 0,44,45
 941 333 941 333 952 343 c 0,46,47
 961 351 961 351 965 354 c 0,48,49
 986 369 986 369 987 371 c 0,50,51
 989 375 989 375 990 377 c 0,52,53
 994 387 994 387 983 408 c 2,54,-1
 982 410 l 2,55,56
 965 445 965 445 928 485 c 0,57,58
 918 496 918 496 902 512 c 0,59,60
 894 521 894 521 894 525 c 1,61,62
 896 530 896 530 908 546 c 0,63,64
 914 553 914 553 926 569 c 0,65,66
 938 585 938 585 943 592 c 0,67,68
 960 616 960 616 996 662 c 0,69,70
 1050 732 1050 732 1074 768 c 1,0,1
464 -180 m 0,71,72
 476 -175 476 -175 489 -193 c 2,73,-1
 490 -195 l 2,74,75
 516 -232 516 -232 529 -249 c 0,76,77
 546 -269 546 -269 547 -277 c 0,78,79
 546 -280 546 -280 545 -283.5 c 128,-1,80
 544 -287 544 -287 541 -290.5 c 128,-1,81
 538 -294 538 -294 535 -296 c 128,-1,82
 532 -298 532 -298 527 -303 c 2,83,-1
 522 -307 l 1,84,-1
 461 -359 l 2,85,86
 437 -379 437 -379 432 -380 c 0,87,88
 421 -382 421 -382 413 -371 c 0,89,90
 405 -363 405 -363 383 -330 c 0,91,92
 381 -327 381 -327 374 -319 c 0,93,94
 353 -294 353 -294 354 -282 c 0,95,96
 355 -272 355 -272 373 -256 c 2,97,-1
 376 -254 l 1,98,-1
 437 -202 l 2,99,100
 460 -182 460 -182 464 -180 c 0,71,72
EndSplineSet
AlternateSubs2: "gsub_alternate_dfl_aalt_arab_FAR_Lookup_01_Subtable_01" uniFE90 uniFE91 afii57416 uniFE92
Substitution2: "gsub_single_rtl_fina_arab_FAR_Lookup_01_Subtable_01" uniFE90
Substitution2: "gsub_single_rtl_init_arab_FAR_Lookup_01_Subtable_01" uniFE91
Substitution2: "gsub_single_rtl_medi_arab_FAR_Lookup_01_Subtable_01" uniFE92
EndChar

StartChar: uniFE90
Encoding: 65168 65168 352
Width: 1164
VWidth: 1639
GlyphClass: 2
Flags: HW
AnchorPoint: "GposMark2BaseAnchorClassErabAbove_01_02" 655 738 basechar 0
AnchorPoint: "GposMark2BaseAnchorClassErabBelow_01_02" 655 -533 basechar 0
LayerCount: 2
Fore
SplineSet
973 143 m 1,0,1
 749 -48 749 -48 374 -49 c 0,2,3
 201 -48 201 -48 120 13 c 0,4,5
 71 51 71 51 59 134 c 0,6,7
 42 260 42 260 112 435 c 1,8,9
 132 489 132 489 159 535 c 1,10,11
 173 562 173 562 184 569 c 0,12,13
 211 588 211 588 220 562 c 0,14,15
 221 555 221 555 221 549 c 0,16,17
 220 532 220 532 216 499 c 0,18,19
 210 454 210 454 211 433 c 0,20,21
 216 334 216 334 320 290 c 0,22,23
 326 287 326 287 331 285 c 0,24,25
 401 260 401 260 525 261 c 0,26,27
 776 262 776 262 943 341 c 0,28,29
 1016 377 1016 377 1104 453 c 0,30,31
 1155 497 1155 497 1157 498 c 0,32,33
 1180 513 1180 513 1201 513 c 1,34,35
 1198 471 1198 471 1166 417 c 0,36,37
 1164 414 1164 414 1158 405 c 0,38,39
 1139 379 1139 379 1139 371 c 0,40,41
 1140 362 1140 362 1161 353 c 1,42,43
 1154 339 1154 339 1177 326 c 1,44,45
 1193 322 1193 322 1268 323 c 1,46,-1
 1194 0 l 1,47,48
 1093 0 1093 0 1062 12 c 0,49,50
 1036 23 1036 23 1019 43 c 0,51,52
 1014 50 1014 50 1002 77 c 0,53,54
 991 103 991 103 992 116 c 1,55,-1
 981 110 l 1,56,-1
 973 143 l 1,0,1
424 -180 m 0,57,58
 436 -175 436 -175 449 -193 c 2,59,-1
 450 -195 l 2,60,61
 457 -205 457 -205 472 -225 c 0,62,63
 488 -245 488 -245 494 -254 c 0,64,65
 506 -274 506 -274 507 -279 c 0,66,67
 505 -289 505 -289 482 -307 c 2,68,-1
 423 -358 l 2,69,70
 397 -379 397 -379 394 -380 c 0,71,72
 382 -383 382 -383 369 -366 c 0,73,74
 362 -356 362 -356 349 -337 c 0,75,76
 335 -318 335 -318 328 -308 c 0,77,78
 314 -288 l 0,79,80
 314 -285 314 -285 314 -284 c 0,81,82
 317 -271 317 -271 336 -254 c 0,83,84
 341 -249 341 -249 395 -203 c 0,85,86
 420 -182 420 -182 424 -180 c 0,57,58
EndSplineSet
EndChar

StartChar: uniFE91
Encoding: 65169 65169 353
Width: 482
VWidth: 1639
GlyphClass: 2
Flags: HW
AnchorPoint: "GposMark2BaseAnchorClassErabAbove_01_02" 224 942 basechar 0
AnchorPoint: "GposMark2BaseAnchorClassErabBelow_01_02" 224 -535 basechar 0
LayerCount: 2
Fore
SplineSet
410 792 m 1,0,1
 435 760 435 760 448 674 c 0,2,3
 477 510 477 510 392 259 c 0,4,5
 345 120 345 120 282 66 c 0,6,7
 202 0 202 0 39 -1 c 0,8,9
 27 -1 27 -1 4 -0 c 0,10,11
 -19 0 -19 0 -29 0 c 1,12,-1
 45 323 l 1,13,-1
 180 323 l 2,14,15
 247 323 247 323 253 325 c 0,16,17
 263 328 263 328 278 344 c 0,18,19
 282 348 282 348 283 349 c 0,20,21
 287 354 287 354 297 360 c 0,22,23
 314 374 314 374 314 389 c 1,24,25
 311 404 311 404 295 431 c 0,26,27
 278 462 278 462 242 513 c 0,28,29
 240 515 240 515 234 523 c 0,30,31
 212 549 212 549 213 561 c 0,32,33
 216 574 216 574 257 617 c 0,34,35
 263 623 263 623 265 626 c 0,36,37
 289 654 289 654 337 709 c 0,38,39
 386 765 386 765 410 792 c 1,0,1
141 -180 m 0,40,41
 153 -175 153 -175 164 -192 c 2,42,-1
 166 -194 l 1,43,44
 183 -214 183 -214 210 -253 c 0,45,46
 225 -274 225 -274 225 -275 c 0,47,48
 225 -278 225 -278 225 -279 c 0,49,50
 222 -288 222 -288 199 -307 c 2,51,-1
 140 -358 l 2,52,53
 114 -379 114 -379 110 -380 c 0,54,55
 100 -385 100 -385 88 -368 c 2,56,-1
 86 -366 l 2,57,58
 79 -356 79 -356 65 -337 c 0,59,60
 51 -318 51 -318 45 -308 c 0,61,62
 32 -287 32 -287 31 -282 c 0,63,64
 32 -279 32 -279 33.5 -275.5 c 128,-1,65
 35 -272 35 -272 38 -269 c 128,-1,66
 41 -266 41 -266 43 -264 c 128,-1,67
 45 -262 45 -262 49 -258 c 2,68,-1
 54 -254 l 2,69,70
 64 -245 64 -245 84 -228 c 0,71,72
 104 -210 104 -210 113 -202 c 0,73,74
 137 -182 137 -182 141 -180 c 0,40,41
EndSplineSet
EndChar

StartChar: uniFE92
Encoding: 65170 65170 354
Width: 455
VWidth: 1639
GlyphClass: 2
Flags: HW
AnchorPoint: "GposMark2BaseAnchorClassErabAbove_01_02" 264.5 676 basechar 0
AnchorPoint: "GposMark2BaseAnchorClassErabBelow_01_02" 264.5 -533 basechar 0
LayerCount: 2
Fore
SplineSet
45 323 m 1,0,1
 135 323 135 323 159 329 c 0,2,3
 178 334 178 334 193 343 c 1,4,5
 224 362 224 362 255 394 c 0,6,7
 270 409 270 409 306 477 c 0,8,9
 309 482 309 482 310 485 c 0,10,11
 326 520 326 520 341 525 c 0,12,13
 347 526 347 526 352 526 c 0,14,15
 370 526 370 526 369 498 c 0,16,17
 369 491 369 491 369 489 c 0,18,19
 366 413 366 413 378 389 c 1,20,21
 402 350 402 350 420 338 c 0,22,23
 448 320 448 320 540 323 c 0,24,25
 551 323 551 323 558 323 c 1,26,-1
 483 0 l 1,27,28
 372 0 372 0 339 13 c 0,29,30
 292 34 292 34 286 82 c 1,31,-1
 283 82 l 1,32,-1
 280 77 l 1,33,-1
 278 77 l 1,34,-1
 267 108 l 1,35,-1
 264 108 l 1,36,-1
 239 77 l 1,37,-1
 237 77 l 1,38,-1
 237 82 l 1,39,-1
 234 82 l 1,40,41
 214 46 214 46 164 23 c 0,42,43
 111 -2 111 -2 3 -0 c 0,44,45
 -19 0 -19 0 -29 0 c 1,46,-1
 45 323 l 1,0,1
189 -180 m 0,47,48
 201 -175 201 -175 213 -193 c 2,49,-1
 214 -195 l 2,50,51
 221 -205 221 -205 236 -224 c 0,52,53
 251 -243 251 -243 257 -253 c 0,54,55
 271 -276 271 -276 271 -279 c 0,56,57
 269 -289 269 -289 246 -307 c 2,58,-1
 187 -358 l 2,59,60
 161 -379 161 -379 158 -380 c 0,61,62
 146 -383 146 -383 132 -364 c 0,63,64
 126 -355 126 -355 113 -337 c 0,65,66
 99 -317 99 -317 92 -308 c 0,67,68
 79 -287 79 -287 78 -284 c 0,69,70
 79 -274 79 -274 98 -257 c 2,71,-1
 101 -254 l 2,72,73
 122 -234 122 -234 161 -202 c 0,74,75
 185 -182 185 -182 189 -180 c 0,47,48
EndSplineSet
EndChar

StartChar: afii57417
Encoding: 1577 1577 355
AltUni2: 00fe93.ffffffff.0
Width: 580
VWidth: 1639
GlyphClass: 2
Flags: HW
AnchorPoint: "GposMark2BaseAnchorClassErabAbove_01_02" 295.5 1308 basechar 0
AnchorPoint: "GposMark2BaseAnchorClassErabBelow_01_02" 295.5 -154 basechar 0
LayerCount: 2
Fore
SplineSet
301 1158 m 0,0,1
 307 1158 307 1158 317 1144 c 2,2,-1
 318 1141 l 1,3,-1
 357 1092 l 1,4,5
 371 1069 371 1069 371 1071 c 1,6,7
 370 1068 370 1068 366 1063.5 c 128,-1,8
 362 1059 362 1059 355 1055 c 2,9,-1
 349 1050 l 1,10,11
 308 1015 308 1015 289 1000 c 0,12,13
 271 986 271 986 265 986 c 1,14,15
 258 987 258 987 247 999 c 0,16,17
 221 1032 221 1032 211 1048 c 1,18,19
 202 1070 202 1070 203 1073 c 0,20,21
 208 1087 208 1087 254 1123 c 0,22,23
 257 1126 257 1126 258 1127 c 0,24,25
 291 1155 291 1155 297 1157 c 0,26,27
 300 1158 300 1158 301 1158 c 0,0,1
493 1158 m 1,28,29
 498 1158 498 1158 506 1150 c 0,30,31
 523 1130 523 1130 531 1118 c 0,32,33
 558 1086 558 1086 559 1076 c 0,34,35
 559 1074 559 1074 559 1073 c 0,36,37
 558 1068 558 1068 555 1063.5 c 128,-1,38
 552 1059 552 1059 546 1053 c 2,39,-1
 539 1046 l 2,40,41
 508 1018 508 1018 484 1000 c 0,42,43
 466 985 466 985 460 984 c 1,44,45
 452 985 452 985 441 1000 c 0,46,47
 415 1033 415 1033 403 1051 c 0,48,49
 392 1068 392 1068 392 1071 c 0,50,51
 393 1074 393 1074 397 1078 c 128,-1,52
 401 1082 401 1082 408 1088 c 2,53,-1
 416 1094 l 1,54,-1
 467 1138 l 2,55,56
 488 1156 488 1156 493 1158 c 1,28,29
276 733 m 0,57,58
 330 742 330 742 415 702 c 1,59,60
 541 639 541 639 571 540 c 1,61,62
 604 416 604 416 529 248 c 0,63,64
 510 207 510 207 488 172 c 0,65,66
 446 105 446 105 407 71 c 1,67,68
 349 23 349 23 262 5 c 1,69,70
 212 -4 212 -4 153 2 c 0,71,72
 54 9 54 9 13 59 c 1,73,74
 -13 95 -13 95 -7 175 c 0,75,76
 3 291 3 291 94 472 c 1,77,78
 156 601 156 601 205 669 c 0,79,80
 242 722 242 722 269 731 c 0,81,82
 273 732 273 732 276 733 c 0,57,58
253 487 m 1,83,84
 235 481 235 481 210 459 c 0,85,86
 207 456 207 456 200 452 c 0,87,88
 189 444 189 444 185 440 c 0,89,90
 152 399 152 399 154 354 c 0,91,92
 155 342 155 342 159 335 c 0,93,94
 179 303 179 303 194 292 c 0,95,96
 246 259 246 259 356 276 c 1,97,98
 392 284 392 284 406 294 c 0,99,100
 409 297 409 297 415 303 c 0,101,102
 423 311 423 311 426 313 c 0,103,104
 468 344 468 344 453 371 c 1,105,106
 424 431 424 431 321 472 c 1,107,108
 269 489 269 489 253 487 c 1,83,84
EndSplineSet
AlternateSubs2: "gsub_alternate_dfl_aalt_arab_FAR_Lookup_01_Subtable_01" uniFE94 afii57417
Substitution2: "gsub_single_rtl_fina_arab_FAR_Lookup_01_Subtable_01" uniFE94
EndChar

StartChar: uniFE94
Encoding: 65172 65172 356
Width: 605
VWidth: 1639
GlyphClass: 2
Flags: HW
AnchorPoint: "GposMark2BaseAnchorClassErabAbove_01_02" 367.5 1329 basechar 0
AnchorPoint: "GposMark2BaseAnchorClassErabBelow_01_02" 367.5 -155 basechar 0
LayerCount: 2
Fore
SplineSet
367 1178 m 0,0,1
 374 1179 374 1179 395 1149 c 0,2,3
 398 1145 398 1145 400 1143 c 0,4,5
 411 1130 411 1130 425 1109 c 2,6,-1
 437 1092 l 1,7,8
 436 1089 436 1089 433 1085 c 128,-1,9
 430 1081 430 1081 422 1075 c 2,10,-1
 415 1069 l 1,11,12
 376 1036 376 1036 356 1020 c 0,13,14
 354 1019 354 1019 349 1015 c 0,15,16
 337 1006 337 1006 333 1005 c 0,17,18
 324 1004 324 1004 303 1033 c 0,19,20
 301 1036 l 0,21,22
 273 1070 273 1070 270 1078 c 0,23,24
 268 1085 268 1085 268 1089 c 0,25,26
 270 1096 270 1096 288 1114 c 0,27,28
 325 1148 325 1148 343 1163 c 0,29,30
 361 1177 361 1177 367 1178 c 0,0,1
559 1178 m 1,31,32
 565 1178 565 1178 579 1161 c 0,33,34
 602 1135 602 1135 616 1114 c 1,35,36
 626 1103 626 1103 626 1092 c 1,37,38
 624 1085 624 1085 607 1068 c 0,39,40
 576 1040 576 1040 550 1020 c 0,41,42
 534 1007 534 1007 526 1004 c 0,43,44
 520 1002 520 1002 510 1017 c 2,45,-1
 508 1018 l 2,46,47
 502 1026 502 1026 490 1044 c 0,48,49
 478 1062 478 1062 471 1069 c 0,50,51
 470 1070 470 1070 467 1074 c 0,52,53
 456 1085 456 1085 458 1091 c 0,54,55
 459 1094 459 1094 463 1098 c 128,-1,56
 467 1102 467 1102 474 1108 c 2,57,-1
 482 1114 l 1,58,-1
 533 1158 l 2,59,60
 554 1176 554 1176 559 1178 c 1,31,32
390 633 m 1,61,62
 390 641 390 641 390 658 c 0,63,64
 390 676 390 676 390 684 c 0,65,66
 391 702 391 702 392 705 c 0,67,68
 396 714 396 714 435 745 c 0,69,70
 438 747 438 747 440 749 c 0,71,72
 456 763 456 763 490 791 c 0,73,74
 524 819 524 819 539 833 c 0,75,76
 583 870 583 870 594 876 c 1,77,78
 592 860 592 860 585 738 c 0,79,80
 583 699 583 699 579 621 c 0,81,82
 575 543 575 543 573 503 c 0,83,84
 567 414 567 414 577 385 c 0,85,86
 580 378 580 378 596 356 c 2,87,-1
 614 331 l 1,88,89
 640 320 640 320 709 323 c 1,90,-1
 635 0 l 1,91,92
 623 0 623 0 597 -1 c 0,93,94
 476 -5 476 -5 435 26 c 0,95,96
 422 37 422 37 414 49 c 0,97,98
 401 70 401 70 391 145 c 0,99,100
 389 156 389 156 387 164 c 1,101,-1
 375 144 l 1,102,-1
 374 144 l 1,103,-1
 369 190 l 1,104,-1
 341 149 l 1,105,-1
 340 149 l 1,106,-1
 339 164 l 1,107,108
 313 124 313 124 306 119 c 0,109,110
 302 116 302 116 300 115 c 0,111,112
 297 113 297 113 291.5 111.5 c 128,-1,113
 286 110 286 110 280 109 c 128,-1,114
 274 108 274 108 271 108 c 128,-1,115
 268 108 268 108 260.5 109 c 128,-1,116
 253 110 253 110 250.5 110 c 128,-1,117
 248 110 248 110 240 112 c 2,118,-1
 232 113 l 1,119,120
 163 123 163 123 99 162 c 0,121,122
 66 181 66 181 56 200 c 1,123,124
 26 273 26 273 116 400 c 0,125,126
 142 436 142 436 156 451 c 0,127,128
 175 468 175 468 274 543 c 0,129,130
 284 550 284 550 303 566 c 0,131,132
 341 597 341 597 360 607 c 1,133,-1
 360 612 l 1,134,-1
 390 633 l 1,61,62
375 535 m 1,135,136
 336 517 336 517 248 437 c 0,137,138
 245 434 245 434 244 433 c 0,139,140
 210 399 210 399 208 384 c 0,141,142
 208 378 208 378 220 370 c 0,143,144
 224 366 224 366 225 364 c 0,145,146
 226 362 226 362 227 357 c 0,147,148
 230 350 230 350 232 348 c 0,149,150
 244 337 244 337 270 330 c 0,151,152
 331 314 331 314 365 313 c 1,153,-1
 365 339 l 1,154,-1
 396 339 l 1,155,-1
 394 508 l 1,156,-1
 376 497 l 1,157,-1
 375 535 l 1,135,136
EndSplineSet
EndChar

StartChar: afii57418
Encoding: 1578 1578 357
AltUni2: 00fe95.ffffffff.0
Width: 1169
VWidth: 1639
GlyphClass: 2
Flags: HW
AnchorPoint: "GposMark2BaseAnchorClassErabAbove_01_02" 589.5 1021 basechar 0
AnchorPoint: "GposMark2BaseAnchorClassErabBelow_01_02" 589.5 -187 basechar 0
LayerCount: 2
Fore
SplineSet
628 786 m 1,0,1
 623 779 623 779 603 763 c 2,2,-1
 550 717 l 2,3,4
 527 698 527 698 521 697 c 0,5,6
 511 698 511 698 486 737 c 0,7,8
 485 739 485 739 484 741 c 0,9,10
 482 743 482 743 477 750 c 0,11,12
 458 773 458 773 460 784 c 0,13,14
 462 792 462 792 478 806 c 2,15,-1
 481 809 l 2,16,17
 489 816 489 816 503 828 c 0,18,19
 524 847 524 847 534 856 c 0,20,21
 553 871 553 871 562 869 c 1,22,23
 571 864 571 864 585 843 c 0,24,25
 621 793 621 793 628 786 c 1,0,1
645 786 m 1,26,-1
 719 850 l 2,27,28
 744 870 744 870 750 869 c 0,29,30
 761 869 761 869 786 830 c 0,31,32
 789 826 789 826 790.5 823.5 c 128,-1,33
 792 821 792 821 797 815 c 0,34,35
 817 792 817 792 815 784 c 0,36,37
 812 774 812 774 777 747 c 0,38,39
 774 744 774 744 772 743 c 0,40,41
 769 740 769 740 760 732 c 0,42,43
 725 700 725 700 713 697 c 1,44,45
 705 698 705 698 692 718 c 0,46,47
 687 725 687 725 676 739 c 0,48,49
 652 769 652 769 645 786 c 1,26,-1
1074 768 m 1,50,51
 1084 762 1084 762 1102 730 c 0,52,53
 1129 677 1129 677 1138 615 c 0,54,55
 1160 456 1160 456 1067 266 c 0,56,57
 1059 250 1059 250 1051 235 c 0,58,59
 991 127 991 127 909 72 c 1,60,61
 813 12 813 12 675 -8 c 1,62,63
 497 -37 497 -37 328 -18 c 1,64,65
 204 -5 204 -5 134 39 c 1,66,67
 19 117 19 117 80 346 c 0,68,69
 94 397 94 397 115 448 c 0,70,71
 157 549 157 549 193 584 c 0,72,73
 206 598 206 598 222 594 c 0,74,75
 227 592 227 592 229 589 c 0,76,77
 234 572 234 572 218 506 c 0,78,79
 215 494 215 494 214 487 c 0,80,81
 205 393 205 393 282 342 c 0,82,83
 286 340 286 340 288 338 c 0,84,85
 340 308 340 308 444 298 c 0,86,87
 496 293 496 293 707 295 c 0,88,89
 721 295 721 295 731 295 c 0,90,91
 858 295 858 295 910 316 c 0,92,93
 923 322 923 322 934 328 c 0,94,95
 941 333 941 333 952 343 c 0,96,97
 961 351 961 351 965 354 c 0,98,99
 986 369 986 369 987 371 c 0,100,101
 989 375 989 375 990 377 c 0,102,103
 994 387 994 387 983 408 c 2,104,-1
 982 410 l 2,105,106
 965 445 965 445 928 485 c 0,107,108
 918 496 918 496 902 512 c 0,109,110
 894 521 894 521 894 525 c 1,111,112
 896 530 896 530 908 546 c 0,113,114
 914 553 914 553 926 569 c 0,115,116
 938 585 938 585 943 592 c 0,117,118
 960 616 960 616 996 662 c 0,119,120
 1050 732 1050 732 1074 768 c 1,50,51
EndSplineSet
AlternateSubs2: "gsub_alternate_dfl_aalt_arab_FAR_Lookup_01_Subtable_01" uniFE96 uniFE97 afii57418 uniFE98
Substitution2: "gsub_single_rtl_fina_arab_FAR_Lookup_01_Subtable_01" uniFE96
Substitution2: "gsub_single_rtl_init_arab_FAR_Lookup_01_Subtable_01" uniFE97
Substitution2: "gsub_single_rtl_medi_arab_FAR_Lookup_01_Subtable_01" uniFE98
EndChar

StartChar: uniFE96
Encoding: 65174 65174 358
Width: 1164
VWidth: 1639
GlyphClass: 2
Flags: HW
AnchorPoint: "GposMark2BaseAnchorClassErabAbove_01_02" 655 1021 basechar 0
AnchorPoint: "GposMark2BaseAnchorClassErabBelow_01_02" 655 -199 basechar 0
LayerCount: 2
Fore
SplineSet
673 782 m 1,0,-1
 604 723 l 2,1,2
 578 701 578 701 577 700 c 0,3,4
 574 699 574 699 573 699 c 0,5,6
 565 696 565 696 554 707 c 0,7,8
 554 709 554 709 552 709 c 2,9,-1
 551 710 l 1,10,11
 548 715 548 715 516 759 c 1,12,13
 505 780 505 780 505 782 c 0,14,15
 511 797 511 797 547 827 c 0,16,17
 550 830 550 830 559 838 c 0,18,19
 589 866 589 866 601 869 c 1,20,21
 609 869 609 869 625 851 c 0,22,23
 666 798 666 798 670 788 c 0,24,25
 672 784 672 784 673 782 c 1,0,-1
788 868 m 0,26,27
 799 871 799 871 812 856 c 0,28,29
 818 848 818 848 830 831 c 0,30,31
 843 814 843 814 848 807 c 0,32,33
 861 788 861 788 860 789 c 1,34,35
 860 786 860 786 861 786 c 0,36,37
 859 777 859 777 840 761 c 0,38,39
 831 754 831 754 815 740 c 0,40,41
 797 725 797 725 789 718 c 0,42,43
 767 700 767 700 763 699 c 0,44,45
 754 694 754 694 744 708 c 2,46,-1
 743 710 l 2,47,48
 729 728 729 728 706 761 c 0,49,50
 693 779 693 779 693 780 c 0,51,52
 693 783 693 783 693 784 c 0,53,54
 694 787 694 787 698 791 c 128,-1,55
 702 795 702 795 708 800 c 2,56,-1
 715 805 l 1,57,58
 764 848 l 2,59,60
 786 867 786 867 784 866 c 1,61,62
 787 867 787 867 788 868 c 0,26,27
973 143 m 1,63,64
 749 -48 749 -48 374 -49 c 0,65,66
 201 -48 201 -48 120 13 c 0,67,68
 71 51 71 51 59 134 c 0,69,70
 42 260 42 260 112 435 c 1,71,72
 132 489 132 489 159 535 c 1,73,74
 173 562 173 562 184 569 c 0,75,76
 211 588 211 588 220 562 c 0,77,78
 221 555 221 555 221 549 c 0,79,80
 220 532 220 532 216 499 c 0,81,82
 210 454 210 454 211 433 c 0,83,84
 216 334 216 334 320 290 c 0,85,86
 326 287 326 287 331 285 c 0,87,88
 401 260 401 260 525 261 c 0,89,90
 776 262 776 262 943 341 c 0,91,92
 1016 377 1016 377 1104 453 c 0,93,94
 1155 497 1155 497 1157 498 c 0,95,96
 1180 513 1180 513 1201 513 c 1,97,98
 1198 471 1198 471 1166 417 c 0,99,100
 1164 414 1164 414 1158 405 c 0,101,102
 1139 379 1139 379 1139 371 c 0,103,104
 1140 362 1140 362 1161 353 c 1,105,106
 1154 339 1154 339 1177 326 c 1,107,108
 1193 322 1193 322 1268 323 c 1,109,-1
 1194 0 l 1,110,111
 1093 0 1093 0 1062 12 c 0,112,113
 1036 23 1036 23 1019 43 c 0,114,115
 1014 50 1014 50 1002 77 c 0,116,117
 991 103 991 103 992 116 c 1,118,-1
 981 110 l 1,119,-1
 973 143 l 1,63,64
EndSplineSet
EndChar

StartChar: uniFE97
Encoding: 65175 65175 359
Width: 455
VWidth: 1639
GlyphClass: 2
Flags: HW
AnchorPoint: "GposMark2BaseAnchorClassErabAbove_01_02" 259 1275 basechar 0
AnchorPoint: "GposMark2BaseAnchorClassErabBelow_01_02" 259 -151 basechar 0
LayerCount: 2
Fore
SplineSet
396 1038 m 1,0,-1
 327 979 l 2,1,2
 301 957 301 957 300 956 c 0,3,4
 297 955 297 955 296 954 c 0,5,6
 286 949 286 949 275 964 c 2,7,-1
 274 966 l 2,8,9
 251 999 251 999 239 1014 c 1,10,11
 227 1033 227 1033 228 1038 c 1,12,13
 234 1053 234 1053 270 1082 c 0,14,15
 273 1085 273 1085 282 1093 c 0,16,17
 312 1121 312 1121 324 1125 c 1,18,19
 333 1124 333 1124 346 1107 c 0,20,21
 351 1101 351 1101 361 1089 c 0,22,23
 388 1057 388 1057 396 1038 c 1,0,-1
413 1038 m 1,24,25
 420 1046 420 1046 478 1095 c 0,26,27
 485 1101 485 1101 489 1105 c 0,28,29
 510 1125 510 1125 520 1125 c 1,30,31
 531 1123 531 1123 553 1087 c 0,32,33
 555 1084 555 1084 556 1082 c 0,34,35
 583 1052 583 1052 584 1043 c 0,36,37
 584 1040 584 1040 584 1038 c 0,38,39
 584 1036 584 1036 581.5 1034 c 128,-1,40
 579 1032 579 1032 576.5 1028.5 c 128,-1,41
 574 1025 574 1025 572.5 1024 c 128,-1,42
 571 1023 571 1023 567 1020 c 2,43,-1
 563 1017 l 2,44,45
 553 1009 553 1009 534 992 c 0,46,47
 514 975 514 975 505 968 c 0,48,49
 486 953 486 953 478 953 c 1,50,51
 473 957 473 957 459 976 c 0,52,53
 454 983 454 983 444 999 c 0,54,55
 425 1028 425 1028 413 1038 c 1,24,25
373 792 m 1,56,57
 398 760 398 760 411 674 c 0,58,59
 440 510 440 510 355 259 c 0,60,61
 308 120 308 120 245 66 c 0,62,63
 165 0 165 0 1 -1 c 0,64,65
 -11 -1 -11 -1 -34 -0 c 0,66,67
 -57 0 -57 0 -66 0 c 1,68,-1
 8 323 l 1,69,-1
 142 323 l 2,70,71
 209 323 209 323 216 325 c 0,72,73
 226 328 226 328 240 344 c 0,74,75
 244 348 244 348 246 349 c 0,76,77
 250 354 250 354 260 360 c 0,78,79
 277 374 277 374 276 389 c 1,80,81
 273 404 273 404 257 431 c 0,82,83
 240 462 240 462 205 513 c 0,84,85
 203 515 203 515 197 523 c 0,86,87
 175 549 175 549 176 561 c 0,88,89
 179 574 179 574 219 617 c 0,90,91
 225 623 225 623 228 626 c 0,92,93
 252 654 252 654 300 709 c 0,94,95
 349 765 349 765 373 792 c 1,56,57
EndSplineSet
EndChar

StartChar: uniFE98
Encoding: 65176 65176 360
Width: 417
VWidth: 1639
GlyphClass: 2
Flags: HW
AnchorPoint: "GposMark2BaseAnchorClassErabAbove_01_02" 251 1111 basechar 0
AnchorPoint: "GposMark2BaseAnchorClassErabBelow_01_02" 251 -152 basechar 0
LayerCount: 2
Fore
SplineSet
382 871 m 1,0,1
 371 861 371 861 347 841 c 0,2,3
 323 821 323 821 312 812 c 0,4,5
 285 789 285 789 280 787 c 1,6,7
 275 787 275 787 273.5 785.5 c 128,-1,8
 272 784 272 784 269 787 c 128,-1,9
 266 790 266 790 265 791 c 128,-1,10
 264 792 264 792 262 796 c 2,11,-1
 259 800 l 2,12,13
 253 808 253 808 241 824 c 0,14,15
 229 840 229 840 224 848 c 0,16,17
 213 866 213 866 212 871 c 0,18,19
 215 883 215 883 252 912 c 0,20,21
 255 915 255 915 256 915 c 0,22,23
 260 918 260 918 269 927 c 0,24,25
 297 954 297 954 309 958 c 0,26,27
 312 958 312 958 315.5 957 c 128,-1,28
 319 956 319 956 321.5 953.5 c 128,-1,29
 324 951 324 951 326 949.5 c 128,-1,30
 328 948 328 948 330 943 c 2,31,-1
 333 938 l 2,32,33
 338 931 338 931 351 916 c 0,34,35
 375 887 375 887 382 871 c 1,0,1
497 956 m 0,36,37
 507 961 507 961 518 946 c 2,38,-1
 519 945 l 2,39,40
 542 912 542 912 555 895 c 0,41,42
 568 879 568 879 568 872 c 0,43,44
 567 869 567 869 565 866 c 128,-1,45
 563 863 563 863 560 860.5 c 128,-1,46
 557 858 557 858 552 854 c 2,47,-1
 548 850 l 1,48,-1
 498 807 l 2,49,50
 476 789 476 789 472 787 c 0,51,52
 462 782 462 782 452 797 c 2,53,-1
 450 799 l 2,54,55
 444 807 444 807 432 824 c 0,56,57
 420 842 420 842 413 850 c 0,58,59
 400 868 400 868 400 869 c 0,60,61
 400 872 l 0,62,63
 401 875 401 875 405 879.5 c 128,-1,64
 409 884 409 884 416 889 c 2,65,-1
 422 894 l 1,66,-1
 472 936 l 2,67,68
 493 954 493 954 497 956 c 0,36,37
8 323 m 1,69,70
 98 323 98 323 121 329 c 0,71,72
 140 334 140 334 156 343 c 1,73,74
 187 362 187 362 218 394 c 0,75,76
 233 409 233 409 269 477 c 0,77,78
 272 482 272 482 273 485 c 0,79,80
 289 520 289 520 304 525 c 0,81,82
 310 526 310 526 314 526 c 0,83,84
 332 526 332 526 332 498 c 0,85,86
 332 491 332 491 332 489 c 0,87,88
 329 413 329 413 341 389 c 1,89,90
 365 350 365 350 382 338 c 0,91,92
 410 320 410 320 502 323 c 0,93,94
 513 323 513 323 521 323 c 1,95,-1
 446 0 l 1,96,97
 335 0 335 0 302 13 c 0,98,99
 255 34 255 34 248 82 c 1,100,-1
 245 82 l 1,101,-1
 243 77 l 1,102,-1
 241 77 l 1,103,-1
 230 108 l 1,104,-1
 227 108 l 1,105,-1
 201 77 l 1,106,-1
 200 77 l 1,107,-1
 200 82 l 1,108,-1
 197 82 l 1,109,110
 177 46 177 46 126 23 c 0,111,112
 73 -2 73 -2 -34 -0 c 0,113,114
 -56 0 -56 0 -66 0 c 1,115,-1
 8 323 l 1,69,70
EndSplineSet
EndChar

StartChar: afii57419
Encoding: 1579 1579 361
AltUni2: 00fe99.ffffffff.0
Width: 1169
VWidth: 1639
GlyphClass: 2
Flags: HW
AnchorPoint: "GposMark2BaseAnchorClassErabAbove_01_02" 589.5 1192 basechar 0
AnchorPoint: "GposMark2BaseAnchorClassErabBelow_01_02" 589.5 -187 basechar 0
LayerCount: 2
Fore
SplineSet
719 1041 m 0,0,1
 729 1042 729 1042 746 1014 c 0,2,3
 748 1011 748 1011 749 1010 c 0,4,5
 756 1003 756 1003 774 976 c 0,6,7
 782 962 782 962 782 958 c 0,8,9
 780 949 780 949 763 935 c 2,10,-1
 708 887 l 2,11,12
 690 872 690 872 684 871 c 1,13,14
 674 871 674 871 657 901 c 0,15,16
 655 904 655 904 654 905 c 0,17,18
 651 909 651 909 643 918 c 0,19,20
 622 942 622 942 621 954 c 1,21,22
 623 963 623 963 642 979 c 1,23,24
 661 997 661 997 694 1025 c 0,25,26
 714 1040 714 1040 719 1041 c 0,0,1
576 851 m 0,27,28
 585 853 585 853 595 840 c 0,29,30
 598 836 598 836 631 787 c 0,31,32
 643 770 l 0,33,34
 643 768 643 768 643 766 c 0,35,36
 642 763 642 763 638.5 758.5 c 128,-1,37
 635 754 635 754 628 749 c 2,38,-1
 622 745 l 2,39,40
 613 738 613 738 597 722 c 0,41,42
 580 707 580 707 572 700 c 0,43,44
 554 684 554 684 548 682 c 0,45,46
 537 680 537 680 526 695 c 0,47,48
 520 703 520 703 508 720 c 0,49,50
 495 737 495 737 490 745 c 0,51,52
 479 763 479 763 479 766 c 0,53,54
 480 769 480 769 483 773 c 128,-1,55
 486 777 486 777 488 779 c 128,-1,56
 490 781 490 781 494 785 c 2,57,-1
 499 789 l 2,58,59
 508 796 508 796 525 810 c 0,60,61
 543 825 543 825 550 831 c 0,62,63
 571 849 571 849 576 851 c 0,27,28
774 851 m 0,64,65
 786 853 786 853 809 815 c 0,66,67
 811 812 l 0,68,69
 813 809 813 809 820 801 c 0,70,71
 837 781 837 781 838 771 c 1,72,73
 836 760 836 760 820 746 c 0,74,75
 771 703 771 703 771 704 c 2,76,77
 751 685 751 685 743 682 c 1,78,79
 733 682 733 682 723 695 c 0,80,81
 709 713 709 713 686 746 c 0,82,83
 674 763 674 763 674 764 c 0,84,85
 674 766 674 766 674 768 c 0,86,87
 676 774 676 774 697 789 c 1,88,-1
 749 833 l 2,89,90
 769 850 769 850 774 851 c 0,64,65
1074 768 m 1,91,92
 1084 762 1084 762 1102 730 c 0,93,94
 1129 677 1129 677 1138 615 c 0,95,96
 1160 456 1160 456 1067 266 c 0,97,98
 1059 250 1059 250 1051 235 c 0,99,100
 991 127 991 127 909 72 c 1,101,102
 813 12 813 12 675 -8 c 1,103,104
 497 -37 497 -37 328 -18 c 1,105,106
 204 -5 204 -5 134 39 c 1,107,108
 19 117 19 117 80 346 c 0,109,110
 94 397 94 397 115 448 c 0,111,112
 157 549 157 549 193 584 c 0,113,114
 206 598 206 598 222 594 c 0,115,116
 227 592 227 592 229 589 c 0,117,118
 234 572 234 572 218 506 c 0,119,120
 215 494 215 494 214 487 c 0,121,122
 205 393 205 393 282 342 c 0,123,124
 286 340 286 340 288 338 c 0,125,126
 340 308 340 308 444 298 c 0,127,128
 496 293 496 293 707 295 c 0,129,130
 721 295 721 295 731 295 c 0,131,132
 858 295 858 295 910 316 c 0,133,134
 923 322 923 322 934 328 c 0,135,136
 941 333 941 333 952 343 c 0,137,138
 961 351 961 351 965 354 c 0,139,140
 986 369 986 369 987 371 c 0,141,142
 989 375 989 375 990 377 c 0,143,144
 994 387 994 387 983 408 c 2,145,-1
 982 410 l 2,146,147
 965 445 965 445 928 485 c 0,148,149
 918 496 918 496 902 512 c 0,150,151
 894 521 894 521 894 525 c 1,152,153
 896 530 896 530 908 546 c 0,154,155
 914 553 914 553 926 569 c 0,156,157
 938 585 938 585 943 592 c 0,158,159
 960 616 960 616 996 662 c 0,160,161
 1050 732 1050 732 1074 768 c 1,91,92
EndSplineSet
AlternateSubs2: "gsub_alternate_dfl_aalt_arab_FAR_Lookup_01_Subtable_01" uniFE9A uniFE9B afii57419 uniFE9C
Substitution2: "gsub_single_rtl_fina_arab_FAR_Lookup_01_Subtable_01" uniFE9A
Substitution2: "gsub_single_rtl_init_arab_FAR_Lookup_01_Subtable_01" uniFE9B
Substitution2: "gsub_single_rtl_medi_arab_FAR_Lookup_01_Subtable_01" uniFE9C
EndChar

StartChar: uniFE9A
Encoding: 65178 65178 362
Width: 1164
VWidth: 1639
GlyphClass: 2
Flags: HW
AnchorPoint: "GposMark2BaseAnchorClassErabAbove_01_02" 655 1191 basechar 0
AnchorPoint: "GposMark2BaseAnchorClassErabBelow_01_02" 655 -199 basechar 0
LayerCount: 2
Fore
SplineSet
755 1040 m 0,0,1
 763 1041 763 1041 775 1028 c 0,2,3
 778 1024 778 1024 808 981 c 0,4,5
 820 963 820 963 820 959 c 0,6,7
 818 951 818 951 802 935 c 0,8,9
 797 930 797 930 751 891 c 0,10,11
 730 874 730 874 727 872 c 0,12,13
 716 870 716 870 707 884 c 0,14,15
 701 892 701 892 689 909 c 0,16,17
 676 926 676 926 671 933 c 0,18,19
 660 951 660 951 659 954 c 0,20,21
 660 957 660 957 663 961.5 c 128,-1,22
 666 966 666 966 668 967.5 c 128,-1,23
 670 969 670 969 675 973 c 2,24,-1
 680 977 l 1,25,-1
 731 1022 l 2,26,27
 750 1038 750 1038 755 1040 c 0,0,1
617 851 m 1,28,29
 629 848 629 848 647 818 c 2,30,-1
 672 784 l 2,31,32
 682 770 682 770 681 768 c 0,33,34
 678 761 678 761 661 746 c 0,35,36
 656 741 656 741 606 699 c 0,37,38
 586 683 586 683 582 682 c 0,39,40
 569 684 569 684 549 717 c 0,41,42
 547 720 547 720 540 728 c 0,43,44
 518 754 518 754 518 766 c 0,45,46
 518 773 518 773 535 787 c 2,47,-1
 537 789 l 1,48,-1
 590 835 l 2,49,50
 610 850 610 850 617 851 c 1,28,29
709 766 m 1,51,52
 718 776 718 776 779 827 c 0,53,54
 784 831 784 831 787 833 c 0,55,56
 810 851 810 851 815 851 c 0,57,58
 827 850 827 850 849 812 c 0,59,60
 851 809 851 809 852 807 c 0,61,62
 854 804 854 804 860 798 c 0,63,64
 877 778 877 778 875 768 c 0,65,66
 873 759 873 759 856 745 c 0,67,68
 837 727 837 727 802 697 c 0,69,70
 781 681 781 681 777 681 c 0,71,72
 770 683 770 683 758 702 c 0,73,74
 751 711 751 711 736 730 c 0,75,76
 719 755 719 755 709 766 c 1,51,52
973 143 m 1,77,78
 749 -48 749 -48 374 -49 c 0,79,80
 201 -48 201 -48 120 13 c 0,81,82
 71 51 71 51 59 134 c 0,83,84
 42 260 42 260 112 435 c 1,85,86
 132 489 132 489 159 535 c 1,87,88
 173 562 173 562 184 569 c 0,89,90
 211 588 211 588 220 562 c 0,91,92
 221 555 221 555 221 549 c 0,93,94
 220 532 220 532 216 499 c 0,95,96
 210 454 210 454 211 433 c 0,97,98
 216 334 216 334 320 290 c 0,99,100
 326 287 326 287 331 285 c 0,101,102
 401 260 401 260 525 261 c 0,103,104
 776 262 776 262 943 341 c 0,105,106
 1016 377 1016 377 1104 453 c 0,107,108
 1155 497 1155 497 1157 498 c 0,109,110
 1180 513 1180 513 1201 513 c 1,111,112
 1198 471 1198 471 1166 417 c 0,113,114
 1164 414 1164 414 1158 405 c 0,115,116
 1139 379 1139 379 1139 371 c 0,117,118
 1140 362 1140 362 1161 353 c 1,119,120
 1154 339 1154 339 1177 326 c 1,121,122
 1193 322 1193 322 1268 323 c 1,123,-1
 1194 0 l 1,124,125
 1093 0 1093 0 1062 12 c 0,126,127
 1036 23 1036 23 1019 43 c 0,128,129
 1014 50 1014 50 1002 77 c 0,130,131
 991 103 991 103 992 116 c 1,132,-1
 981 110 l 1,133,-1
 973 143 l 1,77,78
EndSplineSet
EndChar

StartChar: uniFE9B
Encoding: 65179 65179 363
Width: 469
VWidth: 1639
GlyphClass: 2
Flags: HW
AnchorPoint: "GposMark2BaseAnchorClassErabAbove_01_02" 271 1459 basechar 0
AnchorPoint: "GposMark2BaseAnchorClassErabBelow_01_02" 271 -151 basechar 0
LayerCount: 2
Fore
SplineSet
478 1305 m 1,0,1
 489 1309 489 1309 499 1294 c 0,2,3
 505 1286 505 1286 517 1269 c 0,4,5
 530 1252 530 1252 535 1245 c 0,6,7
 546 1228 546 1228 546 1223 c 0,8,9
 544 1214 544 1214 525 1199 c 0,10,11
 518 1193 518 1193 503 1179 c 0,12,13
 470 1146 470 1146 454 1138 c 1,14,15
 443 1134 443 1134 433 1150 c 0,16,17
 427 1158 427 1158 415 1174 c 0,18,19
 402 1191 402 1191 397 1199 c 0,20,21
 385 1217 385 1217 385 1220 c 0,22,23
 387 1229 387 1229 406 1245 c 0,24,25
 412 1250 412 1250 426 1264 c 0,26,27
 462 1297 462 1297 478 1305 c 1,0,1
409 1033 m 1,28,29
 397 1022 397 1022 372 1001 c 0,30,31
 347 979 347 979 336 969 c 0,32,33
 313 950 313 950 307 950 c 0,34,35
 299 950 299 950 292 958 c 128,-1,36
 285 966 285 966 276 981 c 2,37,-1
 267 995 l 2,38,39
 266 997 266 997 261 1003 c 0,40,41
 241 1025 241 1025 244 1035 c 0,42,43
 246 1045 246 1045 281 1070 c 0,44,45
 284 1072 284 1072 286 1074 c 0,46,47
 289 1077 289 1077 298 1086 c 0,48,49
 332 1118 332 1118 343 1120 c 1,50,51
 351 1119 351 1119 363 1100 c 0,52,53
 367 1094 367 1094 377 1081 c 0,54,55
 401 1050 401 1050 409 1033 c 1,28,29
538 1118 m 0,56,57
 544 1120 544 1120 551.5 1113.5 c 128,-1,58
 559 1107 559 1107 566 1094 c 2,59,-1
 574 1081 l 2,60,61
 576 1078 576 1078 583 1070 c 0,62,63
 602 1048 602 1048 602 1036 c 0,64,65
 602 1028 602 1028 585 1014 c 2,66,-1
 582 1012 l 1,67,-1
 535 971 l 2,68,69
 515 952 515 952 507 950 c 1,70,71
 494 950 494 950 468 991 c 0,72,73
 464 996 464 996 456 1006 c 0,74,75
 448 1017 448 1017 444 1022 c 0,76,77
 438 1033 438 1033 438 1035 c 0,78,79
 440 1041 440 1041 461 1056 c 0,80,81
 466 1060 466 1060 515 1102 c 0,82,83
 533 1116 533 1116 538 1118 c 0,56,57
379 792 m 1,84,85
 404 760 404 760 417 674 c 0,86,87
 446 510 446 510 361 259 c 0,88,89
 314 120 314 120 251 66 c 0,90,91
 171 0 171 0 8 -1 c 0,92,93
 -4 -1 -4 -1 -27 -0 c 0,94,95
 -50 0 -50 0 -60 0 c 1,96,-1
 15 323 l 1,97,-1
 149 323 l 2,98,99
 216 323 216 323 222 325 c 0,100,101
 232 328 232 328 247 344 c 0,102,103
 251 348 251 348 252 349 c 0,104,105
 256 354 256 354 266 360 c 0,106,107
 283 374 283 374 283 389 c 1,108,109
 280 404 280 404 264 431 c 0,110,111
 247 462 247 462 211 513 c 0,112,113
 209 515 209 515 203 523 c 0,114,115
 181 549 181 549 182 561 c 0,116,117
 185 574 185 574 226 617 c 0,118,119
 232 623 232 623 234 626 c 0,120,121
 258 654 258 654 307 709 c 0,122,123
 355 765 355 765 379 792 c 1,84,85
EndSplineSet
EndChar

StartChar: uniFE9C
Encoding: 65180 65180 364
Width: 424
VWidth: 1639
GlyphClass: 2
Flags: HW
AnchorPoint: "GposMark2BaseAnchorClassErabAbove_01_02" 256.5 1295 basechar 0
AnchorPoint: "GposMark2BaseAnchorClassErabBelow_01_02" 256.5 -152 basechar 0
LayerCount: 2
Fore
SplineSet
454 1141 m 0,0,1
 465 1145 465 1145 490 1106 c 0,2,3
 492 1103 492 1103 492 1102 c 0,4,5
 494 1100 494 1100 499 1093 c 0,6,7
 517 1070 517 1070 517 1059 c 0,8,9
 515 1050 515 1050 500 1036 c 2,10,-1
 448 992 l 2,11,12
 426 973 426 973 428 974 c 1,13,14
 425 973 425 973 424 973 c 0,15,16
 410 970 410 970 385 1010 c 0,17,18
 383 1013 383 1013 383 1014 c 0,19,20
 381 1017 381 1017 375 1023 c 0,21,22
 357 1044 357 1044 357 1055 c 0,23,24
 358 1064 358 1064 377 1079 c 2,25,-1
 428 1123 l 2,26,27
 449 1140 449 1140 454 1141 c 0,0,1
381 866 m 1,28,-1
 314 809 l 2,29,30
 288 787 288 787 287 785 c 0,31,32
 284 784 284 784 283 784 c 0,33,34
 275 783 275 783 262 795 c 0,35,36
 248 813 248 813 225 846 c 0,37,38
 215 863 215 863 215 866 c 0,39,40
 217 876 217 876 253 905 c 0,41,42
 256 908 256 908 258 909 c 0,43,44
 261 912 261 912 270 920 c 0,45,46
 302 950 302 950 314 953 c 0,47,48
 316 953 316 953 318.5 952 c 128,-1,49
 321 951 321 951 322.5 949.5 c 128,-1,50
 324 948 324 948 326 945.5 c 128,-1,51
 328 943 328 943 329.5 941.5 c 128,-1,52
 331 940 331 940 333 936 c 2,53,-1
 335 933 l 2,54,55
 339 927 339 927 349 914 c 0,56,57
 373 883 373 883 381 866 c 1,28,-1
407 868 m 1,58,-1
 478 928 l 2,59,60
 502 949 502 949 505 950 c 0,61,62
 508 951 508 951 509 951 c 0,63,64
 518 952 518 952 528 936 c 0,65,66
 534 928 534 928 546 913 c 0,67,68
 558 897 558 897 563 889 c 0,69,70
 573 872 573 872 573 868 c 0,71,72
 571 858 571 858 539 832 c 0,73,74
 535 829 535 829 534 828 c 0,75,76
 493 785 493 785 477 782 c 1,77,78
 469 782 469 782 457 800 c 1,79,80
 415 850 415 850 407 868 c 1,58,-1
15 323 m 1,81,82
 105 323 105 323 128 329 c 0,83,84
 147 334 147 334 162 343 c 1,85,86
 193 362 193 362 225 394 c 0,87,88
 240 409 240 409 275 477 c 0,89,90
 278 482 278 482 279 485 c 0,91,92
 295 520 295 520 310 525 c 0,93,94
 316 526 316 526 321 526 c 0,95,96
 339 526 339 526 338 498 c 0,97,98
 338 491 338 491 338 489 c 0,99,100
 335 413 335 413 347 389 c 1,101,102
 371 350 371 350 389 338 c 0,103,104
 417 320 417 320 509 323 c 0,105,106
 520 323 520 323 527 323 c 1,107,-1
 452 0 l 1,108,109
 341 0 341 0 308 13 c 0,110,111
 261 34 261 34 255 82 c 1,112,-1
 252 82 l 1,113,-1
 249 77 l 1,114,-1
 248 77 l 1,115,-1
 236 108 l 1,116,-1
 233 108 l 1,117,-1
 208 77 l 1,118,-1
 206 77 l 1,119,-1
 206 82 l 1,120,-1
 203 82 l 1,121,122
 183 46 183 46 133 23 c 0,123,124
 80 -2 80 -2 -28 -0 c 0,125,126
 -50 0 -50 0 -60 0 c 1,127,-1
 15 323 l 1,81,82
EndSplineSet
EndChar

StartChar: afii57420
Encoding: 1580 1580 365
AltUni2: 00fe9d.ffffffff.0
Width: 850
VWidth: 1639
GlyphClass: 2
Flags: HW
AnchorPoint: "GposMark2BaseAnchorClassErabAbove_01_02" 477 893 basechar 0
AnchorPoint: "GposMark2BaseAnchorClassErabBelow_01_02" 477 -563 basechar 0
LayerCount: 2
Fore
SplineSet
520 479 m 1,0,1
 477 486 477 486 396 495 c 0,2,3
 306 504 306 504 258 487 c 0,4,5
 228 477 228 477 167 425 c 0,6,7
 161 420 161 420 158 418 c 0,8,9
 127 393 127 393 107 402 c 0,10,11
 101 406 101 406 107 425 c 0,12,13
 116 462 116 462 128 492 c 0,14,15
 195 654 195 654 293 711 c 0,16,17
 303 716 303 716 310 720 c 0,18,19
 363 743 363 743 460 736 c 0,20,21
 514 732 514 732 609 720 c 0,22,23
 712 707 712 707 998 707 c 1,24,25
 986 672 986 672 918 545 c 0,26,27
 898 506 898 506 886 479 c 1,28,29
 672 478 672 478 529 385 c 1,30,31
 426 316 426 316 365 235 c 1,32,33
 277 114 277 114 273 -23 c 0,34,35
 272 -65 272 -65 281 -100 c 1,36,37
 294 -142 294 -142 334 -190 c 0,38,39
 394 -264 394 -264 571 -266 c 0,40,41
 588 -266 588 -266 621 -266 c 0,42,43
 642 -266 642 -266 652 -266 c 0,44,45
 662 -266 662 -266 684 -264 c 0,46,47
 756 -261 756 -261 781 -274 c 0,48,49
 791 -281 791 -281 777 -305 c 0,50,51
 765 -324 765 -324 714 -345 c 0,52,53
 710 -347 710 -347 709 -348 c 0,54,55
 638 -375 638 -375 529 -387 c 0,56,57
 285 -413 285 -413 141 -349 c 0,58,59
 54 -311 54 -311 21 -256 c 0,60,61
 -44 -147 -44 -147 5 16 c 0,62,63
 36 119 36 119 103 197 c 1,64,65
 197 303 197 303 394 384 c 0,66,67
 482 421 482 421 503 424 c 0,68,69
 506 425 506 425 508 425 c 1,70,-1
 508 426 l 1,71,-1
 480 430 l 1,72,73
 495 446 495 446 538 451 c 1,74,-1
 538 453 l 1,75,-1
 475 461 l 1,76,-1
 475 462 l 1,77,-1
 520 477 l 1,78,-1
 520 479 l 1,0,1
653 169 m 1,79,80
 665 172 665 172 678 153 c 0,81,82
 685 143 685 143 700 124 c 0,83,84
 715 105 715 105 721 95 c 0,85,86
 733 75 733 75 734 71 c 0,87,88
 735 68 735 68 731.5 62.5 c 128,-1,89
 728 57 728 57 726 54.5 c 128,-1,90
 724 52 724 52 717 48 c 2,91,-1
 711 43 l 1,92,-1
 648 -11 l 2,93,94
 624 -31 624 -31 619 -33 c 0,95,96
 611 -36 611 -36 601 -23 c 2,97,-1
 600 -21 l 2,98,99
 595 -14 595 -14 585 -2 c 0,100,101
 575 12 575 12 571 18 c 0,102,103
 569 21 569 21 562 29 c 0,104,105
 541 54 541 54 541 66 c 0,106,107
 542 76 542 76 561 93 c 2,108,-1
 564 95 l 1,109,-1
 625 148 l 2,110,111
 643 165 643 165 653 169 c 1,79,80
EndSplineSet
AlternateSubs2: "gsub_alternate_dfl_aalt_arab_FAR_Lookup_01_Subtable_01" uniFE9E uniFE9F afii57420 uniFEA0
Substitution2: "gsub_single_rtl_fina_arab_FAR_Lookup_01_Subtable_01" uniFE9E
Substitution2: "gsub_single_rtl_init_arab_FAR_Lookup_01_Subtable_01" uniFE9F
Substitution2: "gsub_single_rtl_medi_arab_FAR_Lookup_01_Subtable_01" uniFEA0
EndChar

StartChar: uniFE9E
Encoding: 65182 65182 366
Width: 814
VWidth: 1639
GlyphClass: 2
Flags: HW
AnchorPoint: "GposMark2BaseAnchorClassErabAbove_01_02" 494.5 911 basechar 0
AnchorPoint: "GposMark2BaseAnchorClassErabBelow_01_02" 494.5 -567 basechar 0
LayerCount: 2
Fore
SplineSet
551 484 m 1,0,1
 537 484 537 484 386 498 c 0,2,3
 381 498 381 498 379 499 c 0,4,5
 316 505 316 505 277 489 c 0,6,7
 249 477 249 477 180 424 c 0,8,9
 176 421 176 421 173 418 c 0,10,11
 143 400 143 400 137 400 c 0,12,13
 134 401 134 401 132 402 c 0,14,15
 126 407 126 407 131 431 c 1,16,17
 137 471 137 471 161 518 c 0,18,19
 247 692 247 692 359 742 c 0,20,21
 380 751 380 751 400 754 c 0,22,23
 435 761 435 761 507 751 c 0,24,25
 528 748 528 748 698 713 c 0,26,27
 776 696 776 696 857 689 c 1,28,29
 856 686 856 686 944 687 c 2,30,-1
 1031 689 l 1,31,-1
 936 515 l 1,32,-1
 912 469 l 1,33,-1
 899 451 l 1,34,-1
 881 449 l 1,35,-1
 837 449 l 1,36,-1
 843 423 l 1,37,-1
 807 423 l 1,38,39
 812 398 812 398 828 377 c 0,40,41
 849 348 849 348 854 344 c 0,42,43
 893 319 893 319 1003 323 c 0,44,45
 1022 324 1022 324 1034 323 c 1,46,-1
 959 0 l 1,47,48
 854 0 854 0 838 3 c 0,49,50
 821 6 821 6 808 11 c 0,51,52
 710 50 710 50 720 211 c 0,53,54
 723 264 723 264 740 318 c 0,55,56
 746 336 746 336 759 371 c 0,57,58
 773 407 773 407 778 425 c 1,59,-1
 753 420 l 1,60,-1
 749 425 l 1,61,-1
 760 451 l 1,62,63
 749 449 749 449 672 426 c 1,64,65
 501 368 501 368 396 254 c 0,66,67
 297 147 297 147 277 8 c 0,68,69
 264 -92 264 -92 305 -157 c 0,70,71
 337 -205 337 -205 362 -226 c 0,72,73
 435 -280 435 -280 609 -290 c 0,74,75
 617 -290 617 -290 648 -292 c 0,76,77
 660 -293 660 -293 684 -292 c 0,78,79
 717 -292 717 -292 733 -294 c 0,80,81
 763 -300 763 -300 767 -305 c 0,82,83
 780 -323 780 -323 744 -348 c 0,84,85
 739 -351 739 -351 736 -353 c 0,86,87
 653 -391 653 -391 536 -400 c 0,88,89
 299 -417 299 -417 158 -353 c 1,90,91
 55 -310 55 -310 20 -249 c 1,92,93
 -45 -131 -45 -131 10 32 c 0,94,95
 50 148 50 148 135 230 c 0,96,97
 209 300 209 300 385 372 c 0,98,99
 390 374 390 374 400 379 c 2,100,-1
 402 380 l 1,101,-1
 404 380 l 1,102,-1
 406 381 l 1,103,-1
 407 382 l 1,104,-1
 409 383 l 1,105,-1
 412 384 l 2,106,107
 512 425 512 425 532 429 c 0,108,109
 536 430 536 430 538 430 c 1,110,-1
 539 431 l 1,111,-1
 506 433 l 1,112,-1
 506 435 l 1,113,-1
 569 456 l 1,114,-1
 569 458 l 1,115,-1
 500 464 l 1,116,-1
 501 466 l 1,117,-1
 550 482 l 1,118,-1
 551 484 l 1,0,1
762 453 m 1,119,-1
 760 451 l 1,120,-1
 762 453 l 1,119,-1
756 426 m 1,121,-1
 754 425 l 1,122,-1
 756 426 l 1,121,-1
780 426 m 1,123,-1
 778 425 l 1,124,-1
 780 426 l 1,123,-1
595 98 m 0,125,126
 607 100 607 100 627 68 c 0,127,128
 631 62 631 62 633 59 c 0,129,130
 639 53 639 53 647 40 c 0,131,132
 657 27 657 27 662 21 c 0,133,134
 674 3 674 3 674 0 c 0,135,136
 672 -10 672 -10 649 -28 c 2,137,-1
 585 -84 l 2,138,139
 561 -104 561 -104 555 -105 c 0,140,141
 547 -105 547 -105 539.5 -98.5 c 128,-1,142
 532 -92 532 -92 524 -76 c 2,143,-1
 515 -61 l 2,144,145
 510 -54 510 -54 502 -43 c 0,146,147
 493 -31 493 -31 488 -25 c 0,148,149
 479 -11 479 -11 479 -5 c 0,150,151
 480 -2 480 -2 481.5 1.5 c 128,-1,152
 483 5 483 5 486 8 c 128,-1,153
 489 11 489 11 491 13 c 128,-1,154
 493 15 493 15 498 19 c 2,155,-1
 502 23 l 2,156,157
 512 32 512 32 534 51 c 0,158,159
 556 70 556 70 566 79 c 0,160,161
 590 97 590 97 595 98 c 0,125,126
EndSplineSet
EndChar

StartChar: uniFE9F
Encoding: 65183 65183 367
Width: 1053
VWidth: 1639
GlyphClass: 2
Flags: HW
AnchorPoint: "GposMark2BaseAnchorClassErabAbove_01_02" 501 931 basechar 0
AnchorPoint: "GposMark2BaseAnchorClassErabBelow_01_02" 501 -547 basechar 0
LayerCount: 2
Fore
SplineSet
605 420 m 1,0,1
 599 429 599 429 547 451 c 0,2,3
 543 453 543 453 541 454 c 2,4,-1
 417 513 l 1,5,6
 375 528 375 528 347 525 c 0,7,8
 321 521 321 521 257 481 c 0,9,10
 245 474 245 474 236 469 c 0,11,12
 200 450 200 450 191 459 c 0,13,14
 187 465 187 465 193 485 c 0,15,16
 202 522 202 522 232 564 c 0,17,18
 354 739 354 739 473 763 c 0,19,20
 565 781 565 781 674 698 c 0,21,22
 684 691 684 691 703 675 c 0,23,24
 718 663 718 663 725 658 c 0,25,26
 887 537 887 537 1031 515 c 1,27,28
 1025 498 1025 498 991 446 c 0,29,30
 981 430 981 430 959 397 c 0,31,32
 913 327 913 327 895 292 c 1,33,34
 776 291 776 291 698 254 c 0,35,36
 647 229 647 229 518 138 c 0,37,38
 433 78 433 78 378 52 c 0,39,40
 261 -2 261 -2 64 -1 c 0,41,42
 50 -1 50 -1 23 -0 c 0,43,44
 -13 0 -13 0 -29 0 c 1,45,-1
 45 323 l 1,46,47
 318 323 318 323 381 328 c 0,48,49
 401 330 401 330 418 331 c 0,50,51
 485 339 485 339 539 353 c 0,52,53
 548 355 548 355 566 360 c 0,54,55
 585 366 585 366 593 367 c 1,56,-1
 575 379 l 1,57,-1
 623 394 l 1,58,-1
 588 415 l 1,59,-1
 605 420 l 1,0,1
450 -192 m 0,60,61
 461 -190 461 -190 469 -202 c 0,62,63
 480 -215 480 -215 497 -239 c 0,64,65
 501 -245 501 -245 509 -256 c 0,66,67
 518 -267 518 -267 521 -272 c 0,68,69
 531 -286 531 -286 531 -289 c 0,70,71
 530 -292 530 -292 528.5 -295 c 128,-1,72
 527 -298 527 -298 524 -301.5 c 128,-1,73
 521 -305 521 -305 519 -306.5 c 128,-1,74
 517 -308 517 -308 513 -312 c 2,75,-1
 508 -317 l 1,76,-1
 443 -372 l 2,77,78
 417 -393 417 -393 413 -395 c 0,79,80
 405 -397 405 -397 398 -389.5 c 128,-1,81
 391 -382 391 -382 382 -367 c 2,82,-1
 373 -351 l 1,83,84
 362 -338 362 -338 347 -315 c 0,85,86
 338 -301 338 -301 337 -295 c 0,87,88
 338 -285 338 -285 358 -268 c 2,89,-1
 361 -266 l 2,90,91
 371 -257 371 -257 392 -239 c 0,92,93
 413 -220 413 -220 422 -212 c 0,94,95
 445 -193 445 -193 450 -192 c 0,60,61
EndSplineSet
EndChar

StartChar: uniFEA0
Encoding: 65184 65184 368
Width: 969
VWidth: 1639
GlyphClass: 2
Flags: HW
AnchorPoint: "GposMark2BaseAnchorClassErabAbove_01_02" 521.5 939 basechar 0
AnchorPoint: "GposMark2BaseAnchorClassErabBelow_01_02" 521.5 -547 basechar 0
LayerCount: 2
Fore
SplineSet
184 440 m 1,0,1
 189 530 189 530 280 653 c 0,2,3
 373 777 373 777 465 786 c 0,4,5
 507 789 507 789 576 766 c 0,6,7
 612 755 612 755 746 704 c 0,8,9
 839 669 839 669 925 659 c 0,10,11
 947 657 947 657 1047 658 c 1,12,-1
 921 417 l 1,13,-1
 795 417 l 1,14,15
 807 400 807 400 825 392 c 1,16,-1
 825 390 l 1,17,-1
 764 390 l 1,18,19
 776 373 776 373 795 366 c 1,20,-1
 795 364 l 1,21,-1
 782 364 l 1,22,23
 807 331 807 331 879 325 c 0,24,25
 903 323 903 323 1072 323 c 1,26,-1
 997 0 l 1,27,-1
 883 0 l 2,28,29
 757 0 757 0 712 29 c 0,30,31
 690 44 690 44 677 64 c 0,32,33
 655 98 655 98 645 192 c 0,34,35
 642 215 642 215 640 228 c 1,36,-1
 624 212 l 1,37,-1
 621 254 l 1,38,-1
 593 223 l 1,39,-1
 591 223 l 1,40,-1
 591 228 l 1,41,42
 554 176 554 176 443 110 c 1,43,44
 287 20 287 20 121 2 c 0,45,46
 101 0 101 0 -29 0 c 1,47,-1
 45 323 l 1,48,49
 263 323 263 323 330 331 c 0,50,51
 352 334 352 334 372 338 c 0,52,53
 477 359 477 359 599 408 c 1,54,-1
 585 413 l 1,55,56
 591 419 591 419 629 435 c 1,57,-1
 587 449 l 1,58,-1
 587 451 l 1,59,-1
 611 461 l 1,60,61
 601 466 601 466 552 482 c 0,62,63
 442 515 442 515 435 517 c 0,64,65
 375 530 375 530 346 522 c 0,66,67
 323 515 323 515 265 473 c 0,68,69
 216 438 216 438 184 440 c 1,0,1
450 -192 m 0,70,71
 461 -190 461 -190 469 -202 c 0,72,73
 480 -215 480 -215 497 -239 c 0,74,75
 501 -245 501 -245 509 -256 c 0,76,77
 518 -267 518 -267 521 -272 c 0,78,79
 531 -286 531 -286 531 -289 c 0,80,81
 530 -292 530 -292 528.5 -295 c 128,-1,82
 527 -298 527 -298 524 -301.5 c 128,-1,83
 521 -305 521 -305 519 -306.5 c 128,-1,84
 517 -308 517 -308 513 -312 c 2,85,-1
 508 -317 l 1,86,-1
 443 -372 l 2,87,88
 417 -393 417 -393 413 -395 c 0,89,90
 405 -397 405 -397 398 -389.5 c 128,-1,91
 391 -382 391 -382 382 -367 c 2,92,-1
 373 -351 l 1,93,94
 362 -338 362 -338 347 -315 c 0,95,96
 338 -301 338 -301 337 -295 c 0,97,98
 338 -285 338 -285 358 -268 c 2,99,-1
 361 -266 l 2,100,101
 371 -257 371 -257 392 -239 c 0,102,103
 413 -220 413 -220 422 -212 c 0,104,105
 445 -193 445 -193 450 -192 c 0,70,71
EndSplineSet
EndChar

StartChar: afii57421
Encoding: 1581 1581 369
AltUni2: 00fea1.ffffffff.0
Width: 850
VWidth: 1639
GlyphClass: 2
Flags: HW
AnchorPoint: "GposMark2BaseAnchorClassErabAbove_01_02" 477 893 basechar 0
AnchorPoint: "GposMark2BaseAnchorClassErabBelow_01_02" 477 -563 basechar 0
LayerCount: 2
Fore
SplineSet
520 479 m 1,0,1
 477 486 477 486 396 495 c 0,2,3
 306 504 306 504 258 487 c 0,4,5
 228 477 228 477 167 425 c 0,6,7
 161 420 161 420 158 418 c 0,8,9
 127 393 127 393 107 402 c 0,10,11
 101 406 101 406 107 425 c 0,12,13
 116 462 116 462 128 492 c 0,14,15
 195 654 195 654 293 711 c 0,16,17
 303 716 303 716 310 720 c 0,18,19
 363 743 363 743 460 736 c 0,20,21
 514 732 514 732 609 720 c 0,22,23
 712 707 712 707 998 707 c 1,24,25
 986 672 986 672 918 545 c 0,26,27
 898 506 898 506 886 479 c 1,28,29
 672 478 672 478 529 385 c 1,30,31
 426 316 426 316 365 235 c 1,32,33
 277 114 277 114 273 -23 c 0,34,35
 272 -65 272 -65 281 -100 c 1,36,37
 294 -142 294 -142 334 -190 c 0,38,39
 394 -264 394 -264 571 -266 c 0,40,41
 588 -266 588 -266 621 -266 c 0,42,43
 642 -266 642 -266 652 -266 c 0,44,45
 662 -266 662 -266 684 -264 c 0,46,47
 756 -261 756 -261 781 -274 c 0,48,49
 791 -281 791 -281 777 -305 c 0,50,51
 765 -324 765 -324 714 -345 c 0,52,53
 710 -347 710 -347 709 -348 c 0,54,55
 638 -375 638 -375 529 -387 c 0,56,57
 285 -413 285 -413 141 -349 c 0,58,59
 54 -311 54 -311 21 -256 c 0,60,61
 -44 -147 -44 -147 5 16 c 0,62,63
 36 119 36 119 103 197 c 1,64,65
 197 303 197 303 394 384 c 0,66,67
 482 421 482 421 503 424 c 0,68,69
 506 425 506 425 508 425 c 1,70,-1
 508 426 l 1,71,-1
 480 430 l 1,72,73
 495 446 495 446 538 451 c 1,74,-1
 538 453 l 1,75,-1
 475 461 l 1,76,-1
 475 462 l 1,77,-1
 520 477 l 1,78,-1
 520 479 l 1,0,1
EndSplineSet
AlternateSubs2: "gsub_alternate_dfl_aalt_arab_FAR_Lookup_01_Subtable_01" uniFEA2 uniFEA3 afii57421 uniFEA4
Substitution2: "gsub_single_rtl_fina_arab_FAR_Lookup_01_Subtable_01" uniFEA2
Substitution2: "gsub_single_rtl_init_arab_FAR_Lookup_01_Subtable_01" uniFEA3
Substitution2: "gsub_single_rtl_medi_arab_FAR_Lookup_01_Subtable_01" uniFEA4
EndChar

StartChar: uniFEA2
Encoding: 65186 65186 370
Width: 814
VWidth: 1639
GlyphClass: 2
Flags: HW
AnchorPoint: "GposMark2BaseAnchorClassErabAbove_01_02" 494.5 911 basechar 0
AnchorPoint: "GposMark2BaseAnchorClassErabBelow_01_02" 494.5 -567 basechar 0
LayerCount: 2
Fore
SplineSet
551 484 m 1,0,1
 537 484 537 484 386 498 c 0,2,3
 381 498 381 498 379 499 c 0,4,5
 316 505 316 505 277 489 c 0,6,7
 249 477 249 477 180 424 c 0,8,9
 176 421 176 421 173 418 c 0,10,11
 143 400 143 400 137 400 c 0,12,13
 134 401 134 401 132 402 c 0,14,15
 126 407 126 407 131 431 c 1,16,17
 137 471 137 471 161 518 c 0,18,19
 247 692 247 692 359 742 c 0,20,21
 380 751 380 751 400 754 c 0,22,23
 435 761 435 761 507 751 c 0,24,25
 528 748 528 748 698 713 c 0,26,27
 776 696 776 696 857 689 c 1,28,29
 856 686 856 686 944 687 c 2,30,-1
 1031 689 l 1,31,-1
 936 515 l 1,32,-1
 912 469 l 1,33,-1
 899 451 l 1,34,-1
 881 449 l 1,35,-1
 837 449 l 1,36,-1
 843 423 l 1,37,-1
 807 423 l 1,38,39
 812 398 812 398 828 377 c 0,40,41
 849 348 849 348 854 344 c 0,42,43
 893 319 893 319 1003 323 c 0,44,45
 1022 324 1022 324 1034 323 c 1,46,-1
 959 0 l 1,47,48
 854 0 854 0 838 3 c 0,49,50
 821 6 821 6 808 11 c 0,51,52
 710 50 710 50 720 211 c 0,53,54
 723 264 723 264 740 318 c 0,55,56
 746 336 746 336 759 371 c 0,57,58
 773 407 773 407 778 425 c 1,59,-1
 753 420 l 1,60,-1
 749 425 l 1,61,-1
 760 451 l 1,62,63
 749 449 749 449 672 426 c 1,64,65
 501 368 501 368 396 254 c 0,66,67
 297 147 297 147 277 8 c 0,68,69
 264 -92 264 -92 305 -157 c 0,70,71
 337 -205 337 -205 362 -226 c 0,72,73
 435 -280 435 -280 609 -290 c 0,74,75
 617 -290 617 -290 648 -292 c 0,76,77
 660 -293 660 -293 684 -292 c 0,78,79
 717 -292 717 -292 733 -294 c 0,80,81
 763 -300 763 -300 767 -305 c 0,82,83
 780 -323 780 -323 744 -348 c 0,84,85
 739 -351 739 -351 736 -353 c 0,86,87
 653 -391 653 -391 536 -400 c 0,88,89
 299 -417 299 -417 158 -353 c 1,90,91
 55 -310 55 -310 20 -249 c 1,92,93
 -45 -131 -45 -131 10 32 c 0,94,95
 50 148 50 148 135 230 c 0,96,97
 209 300 209 300 385 372 c 0,98,99
 390 374 390 374 400 379 c 2,100,-1
 402 380 l 1,101,-1
 404 380 l 1,102,-1
 406 381 l 1,103,-1
 407 382 l 1,104,-1
 409 383 l 1,105,-1
 412 384 l 2,106,107
 512 425 512 425 532 429 c 0,108,109
 536 430 536 430 538 430 c 1,110,-1
 539 431 l 1,111,-1
 506 433 l 1,112,-1
 506 435 l 1,113,-1
 569 456 l 1,114,-1
 569 458 l 1,115,-1
 500 464 l 1,116,-1
 501 466 l 1,117,-1
 550 482 l 1,118,-1
 551 484 l 1,0,1
762 453 m 1,119,-1
 760 451 l 1,120,-1
 762 453 l 1,119,-1
756 426 m 1,121,-1
 754 425 l 1,122,-1
 756 426 l 1,121,-1
780 426 m 1,123,-1
 778 425 l 1,124,-1
 780 426 l 1,123,-1
EndSplineSet
EndChar

StartChar: uniFEA3
Encoding: 65187 65187 371
Width: 1053
VWidth: 1639
GlyphClass: 2
Flags: HW
AnchorPoint: "GposMark2BaseAnchorClassErabAbove_01_02" 501 931 basechar 0
AnchorPoint: "GposMark2BaseAnchorClassErabBelow_01_02" 501 -152 basechar 0
LayerCount: 2
Fore
SplineSet
605 420 m 1,0,1
 599 429 599 429 547 451 c 0,2,3
 543 453 543 453 541 454 c 2,4,-1
 417 513 l 1,5,6
 375 528 375 528 347 525 c 0,7,8
 321 521 321 521 257 481 c 0,9,10
 245 474 245 474 236 469 c 0,11,12
 200 450 200 450 191 459 c 0,13,14
 187 465 187 465 193 485 c 0,15,16
 202 522 202 522 232 564 c 0,17,18
 354 739 354 739 473 763 c 0,19,20
 565 781 565 781 674 698 c 0,21,22
 684 691 684 691 703 675 c 0,23,24
 718 663 718 663 725 658 c 0,25,26
 887 537 887 537 1031 515 c 1,27,28
 1025 498 1025 498 991 446 c 0,29,30
 981 430 981 430 959 397 c 0,31,32
 913 327 913 327 895 292 c 1,33,34
 776 291 776 291 698 254 c 0,35,36
 647 229 647 229 518 138 c 0,37,38
 433 78 433 78 378 52 c 0,39,40
 261 -2 261 -2 64 -1 c 0,41,42
 50 -1 50 -1 23 -0 c 0,43,44
 -13 0 -13 0 -29 0 c 1,45,-1
 45 323 l 1,46,47
 318 323 318 323 381 328 c 0,48,49
 401 330 401 330 418 331 c 0,50,51
 485 339 485 339 539 353 c 0,52,53
 548 355 548 355 566 360 c 0,54,55
 585 366 585 366 593 367 c 1,56,-1
 575 379 l 1,57,-1
 623 394 l 1,58,-1
 588 415 l 1,59,-1
 605 420 l 1,0,1
EndSplineSet
EndChar

StartChar: uniFEA4
Encoding: 65188 65188 372
Width: 969
VWidth: 1639
GlyphClass: 2
Flags: HW
AnchorPoint: "GposMark2BaseAnchorClassErabAbove_01_02" 521.5 939 basechar 0
AnchorPoint: "GposMark2BaseAnchorClassErabBelow_01_02" 521.5 -150 basechar 0
LayerCount: 2
Fore
SplineSet
184 440 m 1,0,1
 189 533 189 533 278 651 c 0,2,3
 360 761 360 761 436 781 c 0,4,5
 451 785 451 785 465 786 c 0,6,7
 507 789 507 789 576 766 c 0,8,9
 612 755 612 755 746 704 c 0,10,11
 839 669 839 669 925 659 c 0,12,13
 947 657 947 657 1047 658 c 1,14,-1
 921 417 l 1,15,-1
 795 417 l 1,16,17
 807 400 807 400 825 392 c 1,18,-1
 825 390 l 1,19,-1
 764 390 l 1,20,21
 776 373 776 373 795 366 c 1,22,-1
 795 364 l 1,23,-1
 782 364 l 1,24,25
 807 331 807 331 879 325 c 0,26,27
 903 323 903 323 1072 323 c 1,28,-1
 997 0 l 1,29,-1
 883 0 l 2,30,31
 757 0 757 0 712 29 c 0,32,33
 690 44 690 44 677 64 c 0,34,35
 655 98 655 98 645 192 c 0,36,37
 642 215 642 215 640 228 c 1,38,-1
 624 212 l 1,39,-1
 621 254 l 1,40,-1
 593 223 l 1,41,-1
 591 223 l 1,42,-1
 591 228 l 1,43,44
 554 176 554 176 443 110 c 1,45,46
 287 20 287 20 121 2 c 0,47,48
 101 0 101 0 -29 0 c 1,49,-1
 45 323 l 1,50,51
 263 323 263 323 330 331 c 0,52,53
 352 334 352 334 372 338 c 0,54,55
 477 359 477 359 599 408 c 1,56,-1
 585 413 l 1,57,58
 591 419 591 419 629 435 c 1,59,-1
 587 449 l 1,60,-1
 587 451 l 1,61,-1
 611 461 l 1,62,63
 601 466 601 466 552 482 c 0,64,65
 442 515 442 515 435 517 c 0,66,67
 375 530 375 530 346 522 c 0,68,69
 323 515 323 515 265 473 c 0,70,71
 216 438 216 438 184 440 c 1,0,1
EndSplineSet
EndChar

StartChar: afii57422
Encoding: 1582 1582 373
AltUni2: 00fea5.ffffffff.0
Width: 850
VWidth: 1639
GlyphClass: 2
Flags: HW
AnchorPoint: "GposMark2BaseAnchorClassErabAbove_01_02" 477 1221 basechar 0
AnchorPoint: "GposMark2BaseAnchorClassErabBelow_01_02" 477 -563 basechar 0
LayerCount: 2
Fore
SplineSet
725 1069 m 0,0,1
 734 1071 734 1071 749 1055 c 0,2,3
 780 1015 780 1015 793 995 c 0,4,5
 807 975 l 0,6,7
 807 972 807 972 808 971 c 0,8,9
 807 968 807 968 803.5 963 c 128,-1,10
 800 958 800 958 798 955.5 c 128,-1,11
 796 953 796 953 789 948 c 2,12,-1
 783 943 l 1,13,-1
 722 891 l 2,14,15
 696 870 696 870 692 868 c 1,16,17
 687 868 687 868 685.5 867 c 128,-1,18
 684 866 684 866 680.5 869 c 128,-1,19
 677 872 677 872 675.5 873 c 128,-1,20
 674 874 674 874 671 879 c 2,21,-1
 669 884 l 2,22,23
 662 894 662 894 648 912 c 0,24,25
 634 931 634 931 628 940 c 0,26,27
 613 962 613 962 613 966 c 0,28,29
 614 976 614 976 634 994 c 2,30,-1
 636 995 l 1,31,-1
 697 1048 l 2,32,33
 721 1067 721 1067 725 1069 c 0,0,1
520 479 m 1,34,35
 477 486 477 486 396 495 c 0,36,37
 306 504 306 504 258 487 c 0,38,39
 228 477 228 477 167 425 c 0,40,41
 161 420 161 420 158 418 c 0,42,43
 127 393 127 393 107 402 c 0,44,45
 101 406 101 406 107 425 c 0,46,47
 116 462 116 462 128 492 c 0,48,49
 195 654 195 654 293 711 c 0,50,51
 303 716 303 716 310 720 c 0,52,53
 363 743 363 743 460 736 c 0,54,55
 514 732 514 732 609 720 c 0,56,57
 712 707 712 707 998 707 c 1,58,59
 986 672 986 672 918 545 c 0,60,61
 898 506 898 506 886 479 c 1,62,63
 672 478 672 478 529 385 c 1,64,65
 426 316 426 316 365 235 c 1,66,67
 277 114 277 114 273 -23 c 0,68,69
 272 -65 272 -65 281 -100 c 1,70,71
 294 -142 294 -142 334 -190 c 0,72,73
 394 -264 394 -264 571 -266 c 0,74,75
 588 -266 588 -266 621 -266 c 0,76,77
 642 -266 642 -266 652 -266 c 0,78,79
 662 -266 662 -266 684 -264 c 0,80,81
 756 -261 756 -261 781 -274 c 0,82,83
 791 -281 791 -281 777 -305 c 0,84,85
 765 -324 765 -324 714 -345 c 0,86,87
 710 -347 710 -347 709 -348 c 0,88,89
 638 -375 638 -375 529 -387 c 0,90,91
 285 -413 285 -413 141 -349 c 0,92,93
 54 -311 54 -311 21 -256 c 0,94,95
 -44 -147 -44 -147 5 16 c 0,96,97
 36 119 36 119 103 197 c 1,98,99
 197 303 197 303 394 384 c 0,100,101
 482 421 482 421 503 424 c 0,102,103
 506 425 506 425 508 425 c 1,104,-1
 508 426 l 1,105,-1
 480 430 l 1,106,107
 495 446 495 446 538 451 c 1,108,-1
 538 453 l 1,109,-1
 475 461 l 1,110,-1
 475 462 l 1,111,-1
 520 477 l 1,112,-1
 520 479 l 1,34,35
EndSplineSet
AlternateSubs2: "gsub_alternate_dfl_aalt_arab_FAR_Lookup_01_Subtable_01" uniFEA6 uniFEA7 afii57422 uniFEA8
Substitution2: "gsub_single_rtl_fina_arab_FAR_Lookup_01_Subtable_01" uniFEA6
Substitution2: "gsub_single_rtl_init_arab_FAR_Lookup_01_Subtable_01" uniFEA7
Substitution2: "gsub_single_rtl_medi_arab_FAR_Lookup_01_Subtable_01" uniFEA8
EndChar

StartChar: uniFEA6
Encoding: 65190 65190 374
Width: 814
VWidth: 1639
GlyphClass: 2
Flags: HW
AnchorPoint: "GposMark2BaseAnchorClassErabAbove_01_02" 494.5 1221 basechar 0
AnchorPoint: "GposMark2BaseAnchorClassErabBelow_01_02" 494.5 -567 basechar 0
LayerCount: 2
Fore
SplineSet
726 1069 m 0,0,1
 735 1071 735 1071 750 1055 c 0,2,3
 781 1015 781 1015 794 995 c 0,4,5
 808 975 l 0,6,7
 808 972 808 972 808 971 c 0,8,9
 807 968 807 968 804 963 c 128,-1,10
 801 958 801 958 798.5 955.5 c 128,-1,11
 796 953 796 953 790 948 c 2,12,-1
 783 943 l 1,13,-1
 722 891 l 2,14,15
 696 870 696 870 693 868 c 1,16,17
 688 868 688 868 686.5 867 c 128,-1,18
 685 866 685 866 681 869 c 128,-1,19
 677 872 677 872 675.5 873 c 128,-1,20
 674 874 674 874 672 879 c 2,21,-1
 669 884 l 2,22,23
 662 894 662 894 649 912 c 0,24,25
 635 931 635 931 629 940 c 0,26,27
 614 962 614 962 613 966 c 0,28,29
 614 976 614 976 635 994 c 2,30,-1
 637 995 l 1,31,-1
 698 1048 l 2,32,33
 722 1067 722 1067 726 1069 c 0,0,1
551 484 m 1,34,35
 537 484 537 484 386 498 c 0,36,37
 381 498 381 498 379 499 c 0,38,39
 316 505 316 505 277 489 c 0,40,41
 249 477 249 477 180 424 c 0,42,43
 176 421 176 421 173 418 c 0,44,45
 143 400 143 400 137 400 c 0,46,47
 134 401 134 401 132 402 c 0,48,49
 126 407 126 407 131 431 c 1,50,51
 137 471 137 471 161 518 c 0,52,53
 247 692 247 692 359 742 c 0,54,55
 380 751 380 751 400 754 c 0,56,57
 435 761 435 761 507 751 c 0,58,59
 528 748 528 748 698 713 c 0,60,61
 776 696 776 696 857 689 c 1,62,63
 856 686 856 686 944 687 c 2,64,-1
 1031 689 l 1,65,-1
 936 515 l 1,66,-1
 912 469 l 1,67,-1
 899 451 l 1,68,-1
 881 449 l 1,69,-1
 837 449 l 1,70,-1
 843 423 l 1,71,-1
 807 423 l 1,72,73
 812 398 812 398 828 377 c 0,74,75
 849 348 849 348 854 344 c 0,76,77
 893 319 893 319 1003 323 c 0,78,79
 1022 324 1022 324 1034 323 c 1,80,-1
 959 0 l 1,81,82
 854 0 854 0 838 3 c 0,83,84
 821 6 821 6 808 11 c 0,85,86
 710 50 710 50 720 211 c 0,87,88
 723 264 723 264 740 318 c 0,89,90
 746 336 746 336 759 371 c 0,91,92
 773 407 773 407 778 425 c 1,93,-1
 753 420 l 1,94,-1
 749 425 l 1,95,-1
 760 451 l 1,96,97
 749 449 749 449 672 426 c 1,98,99
 501 368 501 368 396 254 c 0,100,101
 297 147 297 147 277 8 c 0,102,103
 264 -92 264 -92 305 -157 c 0,104,105
 337 -205 337 -205 362 -226 c 0,106,107
 435 -280 435 -280 609 -290 c 0,108,109
 617 -290 617 -290 648 -292 c 0,110,111
 660 -293 660 -293 684 -292 c 0,112,113
 717 -292 717 -292 733 -294 c 0,114,115
 763 -300 763 -300 767 -305 c 0,116,117
 780 -323 780 -323 744 -348 c 0,118,119
 739 -351 739 -351 736 -353 c 0,120,121
 653 -391 653 -391 536 -400 c 0,122,123
 299 -417 299 -417 158 -353 c 1,124,125
 55 -310 55 -310 20 -249 c 1,126,127
 -45 -131 -45 -131 10 32 c 0,128,129
 50 148 50 148 135 230 c 0,130,131
 209 300 209 300 385 372 c 0,132,133
 390 374 390 374 400 379 c 2,134,-1
 402 380 l 1,135,-1
 404 380 l 1,136,-1
 406 381 l 1,137,-1
 407 382 l 1,138,-1
 409 383 l 1,139,-1
 412 384 l 2,140,141
 512 425 512 425 532 429 c 0,142,143
 536 430 536 430 538 430 c 1,144,-1
 539 431 l 1,145,-1
 506 433 l 1,146,-1
 506 435 l 1,147,-1
 569 456 l 1,148,-1
 569 458 l 1,149,-1
 500 464 l 1,150,-1
 501 466 l 1,151,-1
 550 482 l 1,152,-1
 551 484 l 1,34,35
762 453 m 1,153,-1
 760 451 l 1,154,-1
 762 453 l 1,153,-1
756 426 m 1,155,-1
 754 425 l 1,156,-1
 756 426 l 1,155,-1
780 426 m 1,157,-1
 778 425 l 1,158,-1
 780 426 l 1,157,-1
EndSplineSet
EndChar

StartChar: uniFEA7
Encoding: 65191 65191 375
Width: 1053
VWidth: 1639
GlyphClass: 2
Flags: HW
AnchorPoint: "GposMark2BaseAnchorClassErabAbove_01_02" 501 1322 basechar 0
AnchorPoint: "GposMark2BaseAnchorClassErabBelow_01_02" 501 -152 basechar 0
LayerCount: 2
Fore
SplineSet
717 1169 m 0,0,1
 731 1172 731 1172 756 1130 c 0,2,3
 757 1128 757 1128 759 1127 c 0,4,5
 764 1120 764 1120 773 1108 c 0,6,7
 783 1095 783 1095 787 1089 c 0,8,9
 796 1075 796 1075 796 1071 c 0,10,11
 794 1061 794 1061 771 1043 c 2,12,-1
 707 987 l 2,13,14
 683 967 683 967 677 966 c 0,15,16
 665 965 665 965 640 1007 c 0,17,18
 639 1009 639 1009 637 1010 c 0,19,20
 612 1046 l 2,21,22
 602 1058 602 1058 601 1066 c 0,23,24
 602 1069 602 1069 603.5 1072.5 c 128,-1,25
 605 1076 605 1076 608 1079 c 128,-1,26
 611 1082 611 1082 613 1084 c 128,-1,27
 615 1086 615 1086 620 1090 c 2,28,-1
 625 1094 l 2,29,30
 635 1103 635 1103 656 1122 c 0,31,32
 678 1141 678 1141 688 1150 c 0,33,34
 711 1167 711 1167 717 1169 c 0,0,1
605 420 m 1,35,36
 599 429 599 429 547 451 c 0,37,38
 543 453 543 453 541 454 c 2,39,-1
 417 513 l 1,40,41
 375 528 375 528 347 525 c 0,42,43
 321 521 321 521 257 481 c 0,44,45
 245 474 245 474 236 469 c 0,46,47
 200 450 200 450 191 459 c 0,48,49
 187 465 187 465 193 485 c 0,50,51
 202 522 202 522 232 564 c 0,52,53
 354 739 354 739 473 763 c 0,54,55
 565 781 565 781 674 698 c 0,56,57
 684 691 684 691 703 675 c 0,58,59
 718 663 718 663 725 658 c 0,60,61
 887 537 887 537 1031 515 c 1,62,63
 1025 498 1025 498 991 446 c 0,64,65
 981 430 981 430 959 397 c 0,66,67
 913 327 913 327 895 292 c 1,68,69
 776 291 776 291 698 254 c 0,70,71
 647 229 647 229 518 138 c 0,72,73
 433 78 433 78 378 52 c 0,74,75
 261 -2 261 -2 64 -1 c 0,76,77
 50 -1 50 -1 23 -0 c 0,78,79
 -13 0 -13 0 -29 0 c 1,80,-1
 45 323 l 1,81,82
 318 323 318 323 381 328 c 0,83,84
 401 330 401 330 418 331 c 0,85,86
 485 339 485 339 539 353 c 0,87,88
 548 355 548 355 566 360 c 0,89,90
 585 366 585 366 593 367 c 1,91,-1
 575 379 l 1,92,-1
 623 394 l 1,93,-1
 588 415 l 1,94,-1
 605 420 l 1,35,36
EndSplineSet
EndChar

StartChar: uniFEA8
Encoding: 65192 65192 376
Width: 969
VWidth: 1639
GlyphClass: 2
Flags: HW
AnchorPoint: "GposMark2BaseAnchorClassErabAbove_01_02" 521.5 1322 basechar 0
AnchorPoint: "GposMark2BaseAnchorClassErabBelow_01_02" 521.5 -150 basechar 0
LayerCount: 2
Fore
SplineSet
717 1169 m 0,0,1
 731 1172 731 1172 756 1130 c 0,2,3
 757 1128 757 1128 759 1127 c 0,4,5
 764 1120 764 1120 773 1108 c 0,6,7
 783 1095 783 1095 787 1089 c 0,8,9
 796 1075 796 1075 796 1071 c 0,10,11
 794 1061 794 1061 771 1043 c 2,12,-1
 707 987 l 2,13,14
 683 967 683 967 677 966 c 0,15,16
 665 965 665 965 640 1007 c 0,17,18
 639 1009 639 1009 637 1010 c 0,19,20
 612 1046 l 2,21,22
 602 1058 602 1058 601 1066 c 0,23,24
 602 1069 602 1069 603.5 1072.5 c 128,-1,25
 605 1076 605 1076 608 1079 c 128,-1,26
 611 1082 611 1082 613 1084 c 128,-1,27
 615 1086 615 1086 620 1090 c 2,28,-1
 625 1094 l 2,29,30
 635 1103 635 1103 656 1122 c 0,31,32
 678 1141 678 1141 688 1150 c 0,33,34
 711 1167 711 1167 717 1169 c 0,0,1
184 440 m 1,35,36
 189 533 189 533 278 651 c 0,37,38
 360 761 360 761 436 781 c 0,39,40
 451 785 451 785 465 786 c 0,41,42
 507 789 507 789 576 766 c 0,43,44
 612 755 612 755 746 704 c 0,45,46
 839 669 839 669 925 659 c 0,47,48
 947 657 947 657 1047 658 c 1,49,-1
 921 417 l 1,50,-1
 795 417 l 1,51,52
 807 400 807 400 825 392 c 1,53,-1
 825 390 l 1,54,-1
 764 390 l 1,55,56
 776 373 776 373 795 366 c 1,57,-1
 795 364 l 1,58,-1
 782 364 l 1,59,60
 807 331 807 331 879 325 c 0,61,62
 903 323 903 323 1072 323 c 1,63,-1
 997 0 l 1,64,-1
 883 0 l 2,65,66
 757 0 757 0 712 29 c 0,67,68
 690 44 690 44 677 64 c 0,69,70
 655 98 655 98 645 192 c 0,71,72
 642 215 642 215 640 228 c 1,73,-1
 624 212 l 1,74,-1
 621 254 l 1,75,-1
 593 223 l 1,76,-1
 591 223 l 1,77,-1
 591 228 l 1,78,79
 554 176 554 176 443 110 c 1,80,81
 287 20 287 20 121 2 c 0,82,83
 101 0 101 0 -29 0 c 1,84,-1
 45 323 l 1,85,86
 263 323 263 323 330 331 c 0,87,88
 352 334 352 334 372 338 c 0,89,90
 477 359 477 359 599 408 c 1,91,-1
 585 413 l 1,92,93
 591 419 591 419 629 435 c 1,94,-1
 587 449 l 1,95,-1
 587 451 l 1,96,-1
 611 461 l 1,97,98
 601 466 601 466 552 482 c 0,99,100
 442 515 442 515 435 517 c 0,101,102
 375 530 375 530 346 522 c 0,103,104
 323 515 323 515 265 473 c 0,105,106
 216 438 216 438 184 440 c 1,35,36
EndSplineSet
EndChar

StartChar: afii57423
Encoding: 1583 1583 377
AltUni2: 00fea9.ffffffff.0
Width: 744
VWidth: 1639
GlyphClass: 4
Flags: HW
AnchorPoint: "GposMark2BaseAnchorClassErabAbove_01_02" 378 1047 basechar 0
AnchorPoint: "GposMark2BaseAnchorClassErabBelow_01_02" 378 -155 basechar 0
LayerCount: 2
Fore
SplineSet
505 897 m 1,0,1
 561 877 561 877 621 792 c 0,2,3
 741 620 741 620 691 384 c 0,4,5
 683 348 683 348 673 315 c 0,6,7
 618 151 618 151 540 82 c 1,8,9
 457 12 457 12 314 2 c 0,10,11
 212 -5 212 -5 133 25 c 0,12,13
 89 41 89 41 68 69 c 1,14,15
 15 153 15 153 85 331 c 1,16,17
 113 397 113 397 128 428 c 0,18,19
 143 457 143 457 152 466 c 1,20,21
 167 476 167 476 178 466 c 1,22,23
 180 460 180 460 181 430 c 1,24,25
 187 385 187 385 198 367 c 0,26,27
 225 330 225 330 233 325 c 0,28,29
 258 312 258 312 305 308 c 1,30,31
 351 303 351 303 442 307 c 1,32,33
 523 312 523 312 542 336 c 0,34,35
 546 342 546 342 547 346 c 1,36,37
 599 361 599 361 552 429 c 0,38,39
 552 430 552 430 550 431 c 2,40,-1
 549 433 l 1,41,-1
 539 448 l 2,42,43
 492 515 492 515 357 612 c 0,44,45
 339 625 339 625 329 631 c 1,46,-1
 384 715 l 1,47,-1
 505 897 l 1,0,1
EndSplineSet
AlternateSubs2: "gsub_alternate_dfl_aalt_arab_FAR_Lookup_01_Subtable_01" uniFEAA afii57423
Substitution2: "gsub_single_rtl_fina_arab_FAR_Lookup_01_Subtable_01" uniFEAA
EndChar

StartChar: uniFEAA
Encoding: 65194 65194 378
Width: 799
VWidth: 1639
GlyphClass: 2
Flags: HW
AnchorPoint: "GposMark2BaseAnchorClassErabAbove_01_02" 471.5 1029 basechar 0
AnchorPoint: "GposMark2BaseAnchorClassErabBelow_01_02" 471.5 -187 basechar 0
LayerCount: 2
Fore
SplineSet
523 179 m 1,0,1
 513 158 513 158 468 108 c 0,2,3
 418 50 418 50 399 34 c 0,4,5
 307 -37 307 -37 185 -28 c 0,6,7
 92 -20 92 -20 62 21 c 0,8,9
 41 53 41 53 42 125 c 0,10,11
 43 272 43 272 124 415 c 0,12,13
 143 449 143 449 162 451 c 0,14,15
 168 451 168 451 172 451 c 0,16,17
 180 450 180 450 186 446 c 1,18,19
 188 442 188 442 190 415 c 0,20,21
 193 359 193 359 200 344 c 1,22,23
 225 305 225 305 241 294 c 0,24,25
 291 263 291 263 396 285 c 0,26,27
 463 300 463 300 490 321 c 1,28,29
 528 354 528 354 530 357 c 0,30,31
 535 364 535 364 538 369 c 0,32,33
 542 382 542 382 530 436 c 0,34,35
 529 442 529 442 528 446 c 0,36,37
 509 574 509 574 498 638 c 1,38,-1
 491 687 l 2,39,40
 488 704 488 704 488 708 c 0,41,42
 490 717 490 717 526 746 c 0,43,44
 529 749 529 749 531 749 c 0,45,46
 545 763 545 763 632 838 c 0,47,48
 674 874 674 874 677 876 c 0,49,50
 681 878 681 878 683 879 c 1,51,52
 683 862 683 862 696 756 c 0,53,54
 700 717 700 717 708 638 c 0,55,56
 717 559 717 559 720 520 c 0,57,58
 732 408 732 408 758 369 c 0,59,60
 770 351 770 351 785 338 c 0,61,62
 808 320 808 320 885 323 c 0,63,64
 896 323 896 323 902 323 c 1,65,-1
 828 0 l 1,66,67
 711 0 711 0 670 18 c 0,68,69
 638 33 638 33 617 59 c 1,70,71
 601 83 601 83 588 120 c 0,72,73
 574 160 574 160 573 179 c 1,74,-1
 572 179 l 1,75,-1
 564 167 l 1,76,-1
 555 205 l 1,77,-1
 553 205 l 1,78,-1
 527 169 l 1,79,-1
 524 179 l 1,80,-1
 523 179 l 1,0,1
EndSplineSet
EndChar

StartChar: afii57424
Encoding: 1584 1584 379
AltUni2: 00feab.ffffffff.0
Width: 744
VWidth: 1639
GlyphClass: 2
Flags: HW
AnchorPoint: "GposMark2BaseAnchorClassErabAbove_01_02" 378 1376 basechar 0
AnchorPoint: "GposMark2BaseAnchorClassErabBelow_01_02" 378 -155 basechar 0
LayerCount: 2
Fore
SplineSet
498 1222 m 1,0,1
 512 1226 512 1226 524 1209 c 0,2,3
 552 1169 552 1169 565 1151 c 0,4,5
 580 1133 580 1133 582 1125 c 0,6,7
 581 1122 581 1122 579.5 1118.5 c 128,-1,8
 578 1115 578 1115 575 1112 c 128,-1,9
 572 1109 572 1109 569 1106.5 c 128,-1,10
 566 1104 566 1104 562 1100 c 2,11,-1
 557 1096 l 1,12,-1
 498 1045 l 2,13,14
 472 1024 472 1024 468 1022 c 0,15,16
 458 1019 458 1019 443 1036 c 0,17,18
 436 1045 436 1045 423 1064 c 0,19,20
 410 1083 410 1083 404 1092 c 0,21,22
 388 1112 388 1112 387 1120 c 1,23,24
 389 1130 389 1130 408 1146 c 2,25,-1
 410 1148 l 1,26,-1
 468 1197 l 2,27,28
 471 1199 471 1199 476 1205 c 0,29,30
 491 1218 491 1218 498 1222 c 1,0,1
505 897 m 1,31,32
 561 877 561 877 621 792 c 0,33,34
 741 620 741 620 691 384 c 0,35,36
 683 348 683 348 673 315 c 0,37,38
 618 151 618 151 540 82 c 1,39,40
 457 12 457 12 314 2 c 0,41,42
 212 -5 212 -5 133 25 c 0,43,44
 89 41 89 41 68 69 c 1,45,46
 15 153 15 153 85 331 c 1,47,48
 113 397 113 397 128 428 c 0,49,50
 143 457 143 457 152 466 c 1,51,52
 167 476 167 476 178 466 c 1,53,54
 180 460 180 460 181 430 c 1,55,56
 187 385 187 385 198 367 c 0,57,58
 225 330 225 330 233 325 c 0,59,60
 258 312 258 312 305 308 c 1,61,62
 351 303 351 303 442 307 c 1,63,64
 523 312 523 312 542 336 c 0,65,66
 546 342 546 342 547 346 c 1,67,68
 599 361 599 361 552 429 c 0,69,70
 552 430 552 430 550 431 c 2,71,-1
 549 433 l 1,72,-1
 539 448 l 2,73,74
 492 515 492 515 357 612 c 0,75,76
 339 625 339 625 329 631 c 1,77,-1
 384 715 l 1,78,-1
 505 897 l 1,31,32
EndSplineSet
AlternateSubs2: "gsub_alternate_dfl_aalt_arab_FAR_Lookup_01_Subtable_01" uniFEAC afii57424
Substitution2: "gsub_single_rtl_fina_arab_FAR_Lookup_01_Subtable_01" uniFEAC
EndChar

StartChar: uniFEAC
Encoding: 65196 65196 380
Width: 799
VWidth: 1639
GlyphClass: 2
Flags: HW
AnchorPoint: "GposMark2BaseAnchorClassErabAbove_01_02" 471.5 1354 basechar 0
AnchorPoint: "GposMark2BaseAnchorClassErabBelow_01_02" 471.5 -187 basechar 0
LayerCount: 2
Fore
SplineSet
661 1202 m 1,0,1
 673 1204 673 1204 685 1187 c 0,2,3
 713 1147 713 1147 728 1128 c 0,4,5
 742 1108 l 0,6,7
 742 1106 742 1106 742 1104 c 0,8,9
 741 1101 741 1101 740 1097.5 c 128,-1,10
 739 1094 739 1094 736 1090.5 c 128,-1,11
 733 1087 733 1087 731 1085.5 c 128,-1,12
 729 1084 729 1084 724 1080 c 2,13,-1
 719 1076 l 1,14,-1
 656 1022 l 2,15,16
 632 1002 632 1002 627 1000 c 0,17,18
 619 998 619 998 609 1009 c 0,19,20
 606 1013 606 1013 580 1050 c 0,21,22
 577 1054 577 1054 570 1062 c 0,23,24
 549 1087 549 1087 549 1099 c 0,25,26
 550 1109 550 1109 570 1126 c 2,27,-1
 573 1128 l 1,28,-1
 634 1181 l 2,29,30
 651 1198 651 1198 661 1202 c 1,0,1
523 179 m 1,31,32
 513 158 513 158 468 108 c 0,33,34
 418 50 418 50 399 34 c 0,35,36
 307 -37 307 -37 185 -28 c 0,37,38
 92 -20 92 -20 62 21 c 0,39,40
 41 53 41 53 42 125 c 0,41,42
 43 272 43 272 124 415 c 0,43,44
 143 449 143 449 162 451 c 0,45,46
 168 451 168 451 172 451 c 0,47,48
 180 450 180 450 186 446 c 1,49,50
 188 442 188 442 190 415 c 0,51,52
 193 359 193 359 200 344 c 1,53,54
 225 305 225 305 241 294 c 0,55,56
 291 263 291 263 396 285 c 0,57,58
 463 300 463 300 490 321 c 1,59,60
 528 354 528 354 530 357 c 0,61,62
 535 364 535 364 538 369 c 0,63,64
 542 382 542 382 530 436 c 0,65,66
 529 442 529 442 528 446 c 0,67,68
 509 574 509 574 498 638 c 1,69,-1
 491 687 l 2,70,71
 488 704 488 704 488 708 c 0,72,73
 490 717 490 717 526 746 c 0,74,75
 529 749 529 749 531 749 c 0,76,77
 545 763 545 763 632 838 c 0,78,79
 674 874 674 874 677 876 c 0,80,81
 681 878 681 878 683 879 c 1,82,83
 683 862 683 862 696 756 c 0,84,85
 700 717 700 717 708 638 c 0,86,87
 717 559 717 559 720 520 c 0,88,89
 732 408 732 408 758 369 c 0,90,91
 770 351 770 351 785 338 c 0,92,93
 808 320 808 320 885 323 c 0,94,95
 896 323 896 323 902 323 c 1,96,-1
 828 0 l 1,97,98
 711 0 711 0 670 18 c 0,99,100
 638 33 638 33 617 59 c 1,101,102
 601 83 601 83 588 120 c 0,103,104
 574 160 574 160 573 179 c 1,105,-1
 572 179 l 1,106,-1
 564 167 l 1,107,-1
 555 205 l 1,108,-1
 553 205 l 1,109,-1
 527 169 l 1,110,-1
 524 179 l 1,111,-1
 523 179 l 1,31,32
EndSplineSet
EndChar

StartChar: afii57425
Encoding: 1585 1585 381
AltUni2: 00fead.ffffffff.0
Width: 528
VWidth: 1639
GlyphClass: 4
Flags: HW
AnchorPoint: "GposMark2BaseAnchorClassErabAbove_01_02" 74 640 basechar 0
AnchorPoint: "GposMark2BaseAnchorClassErabBelow_01_02" 74 -586 basechar 0
LayerCount: 2
Fore
SplineSet
340 490 m 1,0,1
 347 488 347 488 351 483.5 c 128,-1,2
 355 479 355 479 362 468 c 2,3,-1
 369 458 l 2,4,5
 402 407 402 407 415 343 c 0,6,7
 435 260 435 260 410 113 c 0,8,9
 377 -82 377 -82 292 -238 c 1,10,11
 245 -321 245 -321 190 -384 c 1,12,13
 156 -420 156 -420 150 -424 c 0,14,15
 145 -427 145 -427 141 -428 c 0,16,17
 108 -436 108 -436 34 -433 c 1,18,-1
 -197 -433 l 1,19,-1
 -261 -433 l 2,20,21
 -277 -432 -277 -432 -282 -425 c 0,22,23
 -287 -415 -287 -415 -279 -394 c 1,24,25
 -272 -382 -272 -382 -245 -371 c 1,26,27
 -182 -338 -182 -338 -151 -320 c 0,28,29
 80 -191 80 -191 192 -95 c 0,30,31
 197 -91 197 -91 209 -81 c 0,32,33
 284 -19 284 -19 285 16 c 0,34,35
 284 39 284 39 268 72 c 0,36,37
 248 111 248 111 201 179 c 2,38,-1
 175 215 l 2,39,40
 166 229 166 229 165 231 c 0,41,42
 165 236 165 236 176 249 c 2,43,-1
 178 251 l 2,44,45
 184 259 184 259 195 276 c 0,46,47
 207 294 207 294 212 302 c 0,48,49
 294 423 294 423 303 436 c 0,50,51
 308 443 308 443 317 457 c 0,52,53
 333 478 333 478 340 490 c 1,0,1
EndSplineSet
AlternateSubs2: "gsub_alternate_dfl_aalt_arab_FAR_Lookup_01_Subtable_01" uniFEAE afii57425
Substitution2: "gsub_single_rtl_fina_arab_FAR_Lookup_01_Subtable_01" uniFEAE
EndChar

StartChar: uniFEAE
Encoding: 65198 65198 382
Width: 526
VWidth: 1639
GlyphClass: 2
Flags: HW
AnchorPoint: "GposMark2BaseAnchorClassErabAbove_01_02" 196 640 basechar 0
AnchorPoint: "GposMark2BaseAnchorClassErabBelow_01_02" 196 -586 basechar 0
LayerCount: 2
Fore
SplineSet
387 490 m 1,0,1
 395 487 395 487 412 461 c 0,2,3
 446 413 446 413 463 390 c 0,4,5
 507 336 507 336 562 325 c 0,6,7
 575 323 575 323 629 323 c 1,8,-1
 555 0 l 1,9,10
 547 0 547 0 530 -1 c 0,11,12
 469 -3 469 -3 447 18 c 1,13,-1
 438 -21 l 1,14,-1
 417 -8 l 1,15,16
 394 -106 394 -106 385 -133 c 0,17,18
 352 -221 352 -221 278 -326 c 0,19,20
 260 -352 260 -352 223 -397 c 0,21,22
 202 -420 202 -420 194 -426 c 1,23,24
 164 -436 164 -436 93 -433 c 1,25,-1
 -140 -433 l 1,26,-1
 -215 -433 l 1,27,28
 -235 -428 -235 -428 -236 -420 c 1,29,30
 -237 -398 -237 -398 -227 -385 c 0,31,32
 -222 -381 -222 -381 -191 -367 c 1,33,34
 -128 -334 -128 -334 -98 -318 c 0,35,36
 110 -195 110 -195 199 -128 c 1,37,38
 286 -64 286 -64 318 -21 c 1,39,40
 341 13 341 13 321 61 c 1,41,42
 301 102 301 102 242 187 c 0,43,44
 240 190 240 190 233 198 c 0,45,46
 214 221 214 221 213 231 c 0,47,48
 213 236 213 236 223 249 c 2,49,-1
 225 251 l 2,50,51
 231 259 231 259 242 276 c 0,52,53
 254 294 254 294 260 302 c 0,54,55
 342 423 342 423 350 436 c 0,56,57
 355 443 355 443 365 457 c 0,58,59
 380 478 380 478 387 490 c 1,0,1
EndSplineSet
EndChar

StartChar: afii57426
Encoding: 1586 1586 383
AltUni2: 00feaf.ffffffff.0
Width: 528
VWidth: 1639
GlyphClass: 2
Flags: HW
AnchorPoint: "GposMark2BaseAnchorClassErabAbove_01_02" 74.5 1057 basechar 0
AnchorPoint: "GposMark2BaseAnchorClassErabBelow_01_02" 74.5 -586 basechar 0
LayerCount: 2
Fore
SplineSet
353 904 m 0,0,1
 363 907 363 907 378 889 c 0,2,3
 394 868 394 868 421 830 c 0,4,5
 422 828 422 828 426 824 c 0,6,7
 435 813 435 813 436 807 c 0,8,9
 435 804 435 804 433.5 800.5 c 128,-1,10
 432 797 432 797 429 793.5 c 128,-1,11
 426 790 426 790 423 788 c 128,-1,12
 420 786 420 786 415 781 c 2,13,-1
 411 777 l 1,14,-1
 350 725 l 2,15,16
 324 704 324 704 320 702 c 1,17,18
 315 702 315 702 313.5 701 c 128,-1,19
 312 700 312 700 308 703.5 c 128,-1,20
 304 707 304 707 303 707.5 c 128,-1,21
 302 708 302 708 299 713 c 2,22,-1
 296 718 l 2,23,24
 289 728 289 728 275 747 c 0,25,26
 261 766 261 766 255 776 c 0,27,28
 242 796 242 796 242 802 c 1,29,30
 246 812 246 812 266 830 c 0,31,32
 287 850 287 850 325 882 c 0,33,34
 349 902 349 902 353 904 c 0,0,1
340 490 m 1,35,36
 347 488 347 488 351 483.5 c 128,-1,37
 355 479 355 479 362 468 c 2,38,-1
 369 458 l 2,39,40
 402 407 402 407 415 343 c 0,41,42
 435 260 435 260 410 113 c 0,43,44
 377 -82 377 -82 292 -238 c 1,45,46
 245 -321 245 -321 190 -384 c 1,47,48
 156 -420 156 -420 150 -424 c 0,49,50
 145 -427 145 -427 141 -428 c 0,51,52
 108 -436 108 -436 34 -433 c 1,53,-1
 -197 -433 l 1,54,-1
 -261 -433 l 2,55,56
 -277 -432 -277 -432 -282 -425 c 0,57,58
 -287 -415 -287 -415 -279 -394 c 1,59,60
 -272 -382 -272 -382 -245 -371 c 1,61,62
 -182 -338 -182 -338 -151 -320 c 0,63,64
 80 -191 80 -191 192 -95 c 0,65,66
 197 -91 197 -91 209 -81 c 0,67,68
 284 -19 284 -19 285 16 c 0,69,70
 284 39 284 39 268 72 c 0,71,72
 248 111 248 111 201 179 c 2,73,-1
 175 215 l 2,74,75
 166 229 166 229 165 231 c 0,76,77
 165 236 165 236 176 249 c 2,78,-1
 178 251 l 2,79,80
 184 259 184 259 195 276 c 0,81,82
 207 294 207 294 212 302 c 0,83,84
 294 423 294 423 303 436 c 0,85,86
 308 443 308 443 317 457 c 0,87,88
 333 478 333 478 340 490 c 1,35,36
EndSplineSet
AlternateSubs2: "gsub_alternate_dfl_aalt_arab_FAR_Lookup_01_Subtable_01" uniFEB0 afii57426
Substitution2: "gsub_single_rtl_fina_arab_FAR_Lookup_01_Subtable_01" uniFEB0
EndChar

StartChar: uniFEB0
Encoding: 65200 65200 384
Width: 526
VWidth: 1639
GlyphClass: 2
Flags: HW
AnchorPoint: "GposMark2BaseAnchorClassErabAbove_01_02" 196 1057 basechar 0
AnchorPoint: "GposMark2BaseAnchorClassErabBelow_01_02" 196 -586 basechar 0
LayerCount: 2
Fore
SplineSet
400 904 m 0,0,1
 410 907 410 907 426 889 c 0,2,3
 442 868 442 868 469 830 c 0,4,5
 470 828 470 828 473 824 c 0,6,7
 482 813 482 813 483 807 c 0,8,9
 482 804 482 804 480.5 800.5 c 128,-1,10
 479 797 479 797 476 793.5 c 128,-1,11
 473 790 473 790 470 788 c 128,-1,12
 467 786 467 786 463 781 c 2,13,-1
 458 777 l 1,14,-1
 397 725 l 2,15,16
 371 704 371 704 367 702 c 1,17,18
 362 702 362 702 360.5 701 c 128,-1,19
 359 700 359 700 355.5 703.5 c 128,-1,20
 352 707 352 707 350.5 707.5 c 128,-1,21
 349 708 349 708 346 713 c 2,22,-1
 344 718 l 2,23,24
 337 728 337 728 323 747 c 0,25,26
 309 766 309 766 302 776 c 0,27,28
 289 796 289 796 290 802 c 1,29,30
 294 812 294 812 313 830 c 0,31,32
 334 850 334 850 372 882 c 0,33,34
 396 902 396 902 400 904 c 0,0,1
387 490 m 1,35,36
 395 487 395 487 412 461 c 0,37,38
 446 413 446 413 463 390 c 0,39,40
 507 336 507 336 562 325 c 0,41,42
 575 323 575 323 629 323 c 1,43,-1
 555 0 l 1,44,45
 547 0 547 0 530 -1 c 0,46,47
 469 -3 469 -3 447 18 c 1,48,-1
 438 -21 l 1,49,-1
 417 -8 l 1,50,51
 394 -106 394 -106 385 -133 c 0,52,53
 352 -221 352 -221 278 -326 c 0,54,55
 260 -352 260 -352 223 -397 c 0,56,57
 202 -420 202 -420 194 -426 c 1,58,59
 164 -436 164 -436 93 -433 c 1,60,-1
 -140 -433 l 1,61,-1
 -215 -433 l 1,62,63
 -235 -428 -235 -428 -236 -420 c 1,64,65
 -237 -398 -237 -398 -227 -385 c 0,66,67
 -222 -381 -222 -381 -191 -367 c 1,68,69
 -128 -334 -128 -334 -98 -318 c 0,70,71
 110 -195 110 -195 199 -128 c 1,72,73
 286 -64 286 -64 318 -21 c 1,74,75
 341 13 341 13 321 61 c 1,76,77
 301 102 301 102 242 187 c 0,78,79
 240 190 240 190 233 198 c 0,80,81
 214 221 214 221 213 231 c 0,82,83
 213 236 213 236 223 249 c 2,84,-1
 225 251 l 2,85,86
 231 259 231 259 242 276 c 0,87,88
 254 294 254 294 260 302 c 0,89,90
 342 423 342 423 350 436 c 0,91,92
 355 443 355 443 365 457 c 0,93,94
 380 478 380 478 387 490 c 1,35,36
EndSplineSet
EndChar

StartChar: afii57427
Encoding: 1587 1587 385
AltUni2: 00feb1.ffffffff.0
Width: 1536
VWidth: 1639
GlyphClass: 2
Flags: HW
AnchorPoint: "GposMark2BaseAnchorClassErabAbove_01_02" 736 763 basechar 0
AnchorPoint: "GposMark2BaseAnchorClassErabBelow_01_02" 736 -586 basechar 0
LayerCount: 2
Fore
SplineSet
1501 613 m 1,0,1
 1506 603 1506 603 1506 574 c 0,2,3
 1508 522 1508 522 1500 471 c 0,4,5
 1479 312 1479 312 1395 154 c 0,6,7
 1348 67 1348 67 1316 34 c 0,8,9
 1265 -16 1265 -16 1188 9 c 0,10,11
 1170 15 1170 15 1156 25 c 0,12,13
 1128 46 1128 46 1126 71 c 1,14,15
 1111 67 1111 67 1107 97 c 1,16,-1
 1104 97 l 1,17,-1
 1081 62 l 1,18,-1
 1078 62 l 1,19,-1
 1077 71 l 1,20,-1
 1074 71 l 1,21,22
 1069 60 1069 60 1057 44 c 0,23,24
 997 -30 997 -30 884 34 c 1,25,-1
 874 -3 l 1,26,-1
 854 8 l 1,27,28
 800 -206 800 -206 688 -307 c 1,29,30
 618 -368 618 -368 499 -399 c 0,31,32
 442 -413 442 -413 359 -418 c 0,33,34
 111 -436 111 -436 7 -323 c 1,35,36
 -30 -279 -30 -279 -31 -197 c 1,37,38
 -36 -65 -36 -65 59 128 c 1,39,40
 112 232 112 232 142 262 c 0,41,42
 155 275 155 275 177 274 c 0,43,44
 185 273 185 273 186 269 c 0,45,46
 189 260 189 260 181 226 c 0,47,48
 179 216 179 216 143 121 c 0,49,50
 117 51 117 51 128 11 c 1,51,52
 170 -113 170 -113 392 -113 c 0,53,54
 452 -113 452 -113 464 -112 c 0,55,56
 504 -109 504 -109 541 -102 c 0,57,58
 648 -84 648 -84 700 -43 c 0,59,60
 747 -4 747 -4 758 18 c 0,61,62
 787 73 787 73 720 157 c 0,63,64
 717 161 717 161 704 180 c 1,65,-1
 672 220 l 2,66,67
 661 236 661 236 661 238 c 0,68,69
 664 246 664 246 675 259 c 0,70,71
 682 268 682 268 704 300 c 0,72,73
 720 323 720 323 753 368 c 0,74,75
 803 436 803 436 825 471 c 1,76,77
 842 455 842 455 888 387 c 0,78,79
 925 333 925 333 963 315 c 1,80,81
 1023 292 1023 292 1062 321 c 0,82,83
 1096 348 1096 348 1112 369 c 0,84,85
 1117 377 1117 377 1144 441 c 0,86,87
 1161 481 1161 481 1172 488 c 0,88,89
 1177 490 1177 490 1180 490 c 0,90,91
 1207 494 1207 494 1206 457 c 0,92,93
 1206 454 1206 454 1206 449 c 0,94,95
 1206 441 1206 441 1206 438 c 0,96,97
 1204 395 1204 395 1205 380 c 0,98,99
 1212 345 1212 345 1243 322 c 0,100,101
 1246 320 1246 320 1248 318 c 0,102,103
 1289 294 1289 294 1336 316 c 0,104,105
 1341 318 1341 318 1343 320 c 0,106,107
 1349 324 1349 324 1358 333 c 0,108,109
 1366 341 1366 341 1369 343 c 0,110,111
 1403 369 1403 369 1407 392 c 0,112,113
 1408 397 1408 397 1408.5 402 c 128,-1,114
 1409 407 1409 407 1409.5 412.5 c 128,-1,115
 1410 418 1410 418 1410 421.5 c 128,-1,116
 1410 425 1410 425 1409.5 431.5 c 128,-1,117
 1409 438 1409 438 1408.5 440.5 c 128,-1,118
 1408 443 1408 443 1407 450.5 c 128,-1,119
 1406 458 1406 458 1405.5 459.5 c 128,-1,120
 1405 461 1405 461 1404 470 c 2,121,-1
 1403 479 l 2,122,123
 1403 482 1403 482 1401 490 c 0,124,125
 1398 511 1398 511 1400 518 c 1,126,127
 1403 522 1403 522 1428 546 c 0,128,129
 1437 554 1437 554 1453 570 c 0,130,131
 1485 599 1485 599 1501 613 c 1,0,1
EndSplineSet
AlternateSubs2: "gsub_alternate_dfl_aalt_arab_FAR_Lookup_01_Subtable_01" uniFEB2 uniFEB3 afii57427 uniFEB4
Substitution2: "gsub_single_rtl_fina_arab_FAR_Lookup_01_Subtable_01" uniFEB2
Substitution2: "gsub_single_rtl_init_arab_FAR_Lookup_01_Subtable_01" uniFEB3
Substitution2: "gsub_single_rtl_medi_arab_FAR_Lookup_01_Subtable_01" uniFEB4
EndChar

StartChar: uniFEB2
Encoding: 65202 65202 386
Width: 1501
VWidth: 1639
GlyphClass: 2
Flags: HW
AnchorPoint: "GposMark2BaseAnchorClassErabAbove_01_02" 764 642 basechar 0
AnchorPoint: "GposMark2BaseAnchorClassErabBelow_01_02" 764 -603 basechar 0
LayerCount: 2
Fore
SplineSet
824 471 m 1,0,1
 833 463 833 463 859 425 c 0,2,3
 922 335 922 335 977 319 c 0,4,5
 980 318 980 318 982 318 c 0,6,7
 1024 310 1024 310 1054 323 c 0,8,9
 1062 327 1062 327 1087 351 c 1,10,11
 1116 374 1116 374 1125 387 c 0,12,13
 1133 401 1133 401 1145 429 c 0,14,15
 1154 449 1154 449 1158 458 c 0,16,17
 1168 480 1168 480 1173 485 c 0,18,19
 1181 490 1181 490 1202 490 c 1,20,21
 1211 486 1211 486 1210 472 c 0,22,23
 1209 463 1209 463 1209 446 c 0,24,25
 1208 428 1208 428 1207 420 c 0,26,27
 1204 385 1204 385 1204 382 c 0,28,29
 1205 374 1205 374 1221 349 c 0,30,31
 1223 346 1223 346 1224 346 c 0,32,33
 1258 305 1258 305 1299 317 c 0,34,35
 1313 322 1313 322 1341 346 c 0,36,37
 1345 350 1345 350 1353 356 c 0,38,39
 1364 365 1364 365 1368 369 c 0,40,41
 1379 383 1379 383 1400 430 c 1,42,43
 1420 481 1420 481 1433 489 c 0,44,45
 1439 492 1439 492 1443 492 c 0,46,47
 1460 490 1460 490 1459 462 c 0,48,49
 1459 455 1459 455 1458 439 c 0,50,51
 1455 391 1455 391 1463 374 c 0,52,53
 1485 335 1485 335 1506 326 c 1,54,55
 1533 319 1533 319 1604 323 c 1,56,-1
 1530 0 l 1,57,58
 1435 0 1435 0 1406 12 c 0,59,60
 1392 18 1392 18 1382 26 c 0,61,62
 1367 39 1367 39 1354 61 c 0,63,64
 1352 64 1352 64 1348 69 c 0,65,66
 1338 82 1338 82 1335 90 c 1,67,68
 1329 86 1329 86 1285 44 c 0,69,70
 1271 31 1271 31 1261 25 c 0,71,72
 1205 -10 1205 -10 1147 15 c 0,73,74
 1115 31 1115 31 1105 59 c 1,75,76
 1098 56 1098 56 1088 80 c 0,77,78
 1086 84 1086 84 1086 85 c 2,79,-1
 1060 52 l 1,80,-1
 1058 52 l 1,81,-1
 1055 59 l 1,82,83
 1017 -8 1017 -8 933 12 c 0,84,85
 904 20 904 20 883 34 c 1,86,-1
 873 -3 l 1,87,-1
 853 8 l 1,88,89
 799 -206 799 -206 687 -307 c 1,90,91
 631 -354 631 -354 532 -389 c 1,92,93
 337 -453 337 -453 152 -402 c 0,94,95
 145 -400 145 -400 140 -399 c 0,96,97
 31 -368 31 -368 -7 -305 c 1,98,99
 -76 -178 -76 -178 35 74 c 0,100,101
 53 117 53 117 95 194 c 1,102,103
 123 242 123 242 143 262 c 0,104,105
 156 275 156 275 177 273 c 0,106,107
 183 271 183 271 185 269 c 0,108,109
 188 260 188 260 180 226 c 0,110,111
 177 215 177 215 142 121 c 0,112,113
 116 49 116 49 128 8 c 1,114,115
 133 -1 133 -1 151 -26 c 0,116,117
 213 -113 213 -113 392 -113 c 0,118,119
 452 -113 452 -113 464 -112 c 0,120,121
 504 -109 504 -109 541 -102 c 0,122,123
 648 -84 648 -84 699 -43 c 0,124,125
 746 -4 746 -4 757 18 c 0,126,127
 786 73 786 73 719 157 c 0,128,129
 716 161 716 161 703 180 c 1,130,-1
 671 220 l 2,131,132
 660 236 660 236 660 238 c 0,133,134
 663 246 663 246 674 259 c 0,135,136
 681 268 681 268 704 300 c 0,137,138
 720 323 720 323 752 368 c 0,139,140
 802 436 802 436 824 471 c 1,0,1
EndSplineSet
EndChar

StartChar: uniFEB3
Encoding: 65203 65203 387
Width: 931
VWidth: 1639
GlyphClass: 2
Flags: HW
AnchorPoint: "GposMark2BaseAnchorClassErabAbove_01_02" 437 763 basechar 0
AnchorPoint: "GposMark2BaseAnchorClassErabBelow_01_02" 437 -165 basechar 0
LayerCount: 2
Fore
SplineSet
896 613 m 1,0,1
 899 606 899 606 900 576 c 1,2,3
 903 528 903 528 895 467 c 0,4,5
 868 301 868 301 792 159 c 0,6,7
 745 74 745 74 707 38 c 0,8,9
 655 -15 655 -15 578 1 c 0,10,11
 506 16 506 16 498 76 c 0,12,13
 498 80 498 80 498 82 c 1,14,-1
 496 82 l 1,15,-1
 491 74 l 1,16,-1
 479 108 l 1,17,-1
 478 108 l 1,18,-1
 452 71 l 1,19,-1
 451 71 l 1,20,-1
 449 82 l 1,21,-1
 447 82 l 1,22,23
 417 15 417 15 342 1 c 0,24,25
 267 -13 267 -13 235 37 c 0,26,27
 223 57 223 57 223 82 c 1,28,-1
 220 82 l 1,29,-1
 213 71 l 1,30,-1
 205 108 l 1,31,-1
 202 108 l 1,32,-1
 177 72 l 1,33,-1
 175 72 l 1,34,-1
 174 82 l 1,35,-1
 171 82 l 1,36,37
 163 67 163 67 151 52 c 0,38,39
 107 -5 107 -5 18 -2 c 0,40,41
 10 -2 10 -2 -7 -1 c 0,42,43
 -23 0 -23 0 -29 0 c 1,44,-1
 45 323 l 1,45,-1
 113 323 l 2,46,47
 116 323 116 323 122 322 c 0,48,49
 132 321 132 321 137 321 c 0,50,51
 172 330 172 330 218 379 c 0,52,53
 233 394 233 394 263 458 c 0,54,55
 266 464 266 464 268 467 c 0,56,57
 286 495 286 495 301 499 c 1,58,59
 325 500 325 500 324 455 c 0,60,61
 324 439 324 439 323 436 c 0,62,63
 322 400 322 400 324 389 c 0,64,65
 333 348 333 348 370 327 c 0,66,67
 375 324 375 324 379 323 c 0,68,69
 442 302 442 302 500 375 c 0,70,71
 516 397 516 397 527 420 c 1,72,73
 549 480 549 480 559 490 c 0,74,75
 568 498 568 498 574 500 c 0,76,77
 601 504 601 504 601 467 c 0,78,79
 601 464 601 464 600 459 c 0,80,81
 600 450 600 450 600 446 c 0,82,83
 600 440 600 440 599 426 c 0,84,85
 597 393 597 393 600 380 c 0,86,87
 601 376 601 376 618 351 c 0,88,89
 620 349 620 349 620 348 c 0,90,91
 640 321 640 321 646 317 c 0,92,93
 695 296 695 296 741 321 c 0,94,95
 747 325 747 325 755 334 c 0,96,97
 761 340 761 340 764 343 c 0,98,99
 789 365 789 365 790 366 c 0,100,101
 792 369 792 369 793 371 c 0,102,103
 795 374 795 374 796.5 377 c 128,-1,104
 798 380 798 380 799 384.5 c 128,-1,105
 800 389 800 389 801.5 391.5 c 128,-1,106
 803 394 803 394 803.5 398.5 c 128,-1,107
 804 403 804 403 804.5 405.5 c 128,-1,108
 805 408 805 408 805 414 c 2,109,-1
 806 420 l 1,110,111
 807 447 807 447 799 487 c 1,112,113
 795 518 l 0,114,115
 798 525 798 525 810 535 c 2,116,-1
 821 544 l 1,117,118
 896 613 l 1,0,1
EndSplineSet
EndChar

StartChar: uniFEB4
Encoding: 65204 65204 388
Width: 910
VWidth: 1639
GlyphClass: 2
Flags: HW
AnchorPoint: "GposMark2BaseAnchorClassErabAbove_01_02" 492.5 663 basechar 0
AnchorPoint: "GposMark2BaseAnchorClassErabBelow_01_02" 492.5 -174 basechar 0
LayerCount: 2
Fore
SplineSet
45 323 m 1,0,-1
 113 323 l 2,1,2
 117 323 117 323 125 322 c 0,3,4
 136 321 136 321 141 321 c 0,5,6
 177 332 177 332 223 380 c 0,7,8
 240 398 240 398 273 471 c 0,9,10
 275 475 275 475 276 477 c 0,11,12
 295 511 295 511 315 513 c 1,13,14
 339 513 339 513 336 463 c 0,15,16
 335 448 335 448 335 443 c 0,17,18
 335 392 335 392 341 379 c 0,19,20
 343 374 343 374 358 354 c 0,21,22
 379 324 379 324 395 321 c 0,23,24
 398 320 398 320 399 320 c 0,25,26
 435 318 435 318 476 351 c 0,27,28
 480 355 480 355 488 361 c 0,29,30
 503 374 503 374 509 384 c 0,31,32
 516 394 516 394 537 438 c 0,33,34
 560 490 560 490 563 493 c 0,35,36
 578 510 578 510 595 510 c 0,37,38
 614 509 614 509 610 459 c 0,39,40
 609 450 609 450 609 446 c 0,41,42
 607 391 607 391 614 374 c 0,43,44
 616 370 616 370 621 363 c 0,45,46
 627 356 627 356 629 353 c 0,47,48
 647 328 647 328 654 325 c 0,49,50
 686 312 686 312 732 349 c 0,51,52
 736 352 736 352 739 354 c 0,53,54
 765 375 765 375 774 387 c 0,55,56
 780 397 780 397 789 419 c 0,57,58
 795 434 795 434 799 441 c 0,59,60
 801 445 801 445 804 455 c 0,61,62
 819 495 819 495 830 503 c 1,63,64
 838 507 838 507 857 507 c 1,65,66
 870 503 870 503 869 476 c 0,67,68
 869 467 869 467 869 447 c 0,69,70
 868 399 868 399 874 382 c 0,71,72
 895 335 895 335 923 325 c 1,73,74
 943 321 943 321 1014 323 c 1,75,-1
 939 0 l 1,76,77
 846 0 846 0 818 16 c 0,78,79
 795 30 795 30 782 52 c 0,80,81
 772 68 772 68 770 80 c 1,82,-1
 763 77 l 1,83,-1
 752 107 l 1,84,85
 740 99 740 99 693 52 c 0,86,87
 684 44 684 44 679 39 c 0,88,89
 604 -24 604 -24 546 13 c 0,90,91
 527 25 527 25 518 38 c 1,92,93
 504 63 504 63 503 84 c 1,94,-1
 500 84 l 1,95,-1
 495 77 l 1,96,97
 485 89 485 89 484 110 c 1,98,-1
 481 110 l 1,99,-1
 456 80 l 1,100,-1
 451 84 l 1,101,102
 407 17 407 17 340 3 c 0,103,104
 286 -9 286 -9 255 30 c 0,105,106
 243 46 243 46 236 84 c 1,107,-1
 234 84 l 1,108,-1
 230 77 l 1,109,-1
 227 77 l 1,110,-1
 217 110 l 1,111,-1
 216 110 l 1,112,-1
 189 79 l 1,113,-1
 187 84 l 1,114,-1
 185 84 l 1,115,116
 182 79 182 79 160 54 c 0,117,118
 107 -2 107 -2 14 -1 c 0,119,120
 5 -1 5 -1 -13 -1 c 0,121,122
 -24 -1 -24 -1 -29 0 c 1,123,-1
 45 323 l 1,0,-1
EndSplineSet
EndChar

StartChar: afii57428
Encoding: 1588 1588 389
AltUni2: 00feb5.ffffffff.0
Width: 1536
VWidth: 1639
GlyphClass: 2
Flags: HW
AnchorPoint: "GposMark2BaseAnchorClassErabAbove_01_02" 736 1296 basechar 0
AnchorPoint: "GposMark2BaseAnchorClassErabBelow_01_02" 736 -586 basechar 0
LayerCount: 2
Fore
SplineSet
1371 1145 m 0,0,1
 1379 1146 1379 1146 1386 1137 c 0,2,3
 1397 1124 1397 1124 1412 1100 c 0,4,5
 1414 1097 1414 1097 1420 1091 c 0,6,7
 1437 1071 1437 1071 1437 1061 c 1,8,9
 1434 1052 1434 1052 1416 1038 c 0,10,11
 1383 1009 1383 1009 1368 995 c 1,12,13
 1346 977 1346 977 1342 976 c 0,14,15
 1334 973 1334 973 1324 987 c 2,16,-1
 1323 989 l 2,17,18
 1317 997 1317 997 1304.5 1013.5 c 128,-1,19
 1292 1030 1292 1030 1287 1038 c 0,20,21
 1276 1054 1276 1054 1275 1055 c 0,22,23
 1275 1058 1275 1058 1275 1059 c 0,24,25
 1278 1068 1278 1068 1295 1082 c 2,26,-1
 1347 1127 l 2,27,28
 1368 1144 1368 1144 1371 1145 c 0,0,1
1228 954 m 0,29,30
 1237 959 1237 959 1248 943 c 2,31,-1
 1249 941 l 2,32,33
 1255 933 1255 933 1266 918 c 0,34,35
 1278 902 1278 902 1284 894 c 0,36,37
 1297 874 1297 874 1297 872 c 0,38,39
 1296 869 1296 869 1293 865 c 128,-1,40
 1290 861 1290 861 1282 855 c 2,41,-1
 1275 850 l 2,42,43
 1268 844 1268 844 1254 829 c 0,44,45
 1220 795 1220 795 1203 787 c 1,46,47
 1192 785 1192 785 1183 799 c 1,48,49
 1169 815 1169 815 1144 850 c 0,50,51
 1133 867 1133 867 1134 871 c 0,52,53
 1135 874 1135 874 1137 877.5 c 128,-1,54
 1139 881 1139 881 1142 883.5 c 128,-1,55
 1145 886 1145 886 1149 890 c 2,56,-1
 1154 894 l 2,57,58
 1160 899 1160 899 1173 911 c 0,59,60
 1211 945 1211 945 1228 954 c 0,29,30
1426 954 m 0,61,62
 1434 957 1434 957 1444 943 c 2,63,-1
 1446 941 l 2,64,65
 1452 933 1452 933 1463.5 917.5 c 128,-1,66
 1475 902 1475 902 1481 894 c 0,67,68
 1492 877 1492 877 1491 872 c 0,69,70
 1491 864 1491 864 1474 850 c 2,71,-1
 1471 848 l 1,72,-1
 1422 805 l 2,73,74
 1403 789 1403 789 1398 787 c 0,75,76
 1390 786 1390 786 1378 799 c 0,77,78
 1364 817 1364 817 1341 850 c 0,79,80
 1327 873 1327 873 1327 871 c 1,81,82
 1328 874 1328 874 1332 878 c 128,-1,83
 1336 882 1336 882 1343 888 c 2,84,-1
 1351 894 l 1,85,86
 1396 932 1396 932 1404 938 c 0,87,88
 1423 953 1423 953 1426 954 c 0,61,62
1501 613 m 1,89,90
 1506 603 1506 603 1506 574 c 0,91,92
 1508 522 1508 522 1500 471 c 0,93,94
 1479 312 1479 312 1395 154 c 0,95,96
 1348 67 1348 67 1316 34 c 0,97,98
 1265 -16 1265 -16 1188 9 c 0,99,100
 1170 15 1170 15 1156 25 c 0,101,102
 1128 46 1128 46 1126 71 c 1,103,104
 1111 67 1111 67 1107 97 c 1,105,-1
 1104 97 l 1,106,-1
 1081 62 l 1,107,-1
 1078 62 l 1,108,-1
 1077 71 l 1,109,-1
 1074 71 l 1,110,111
 1069 60 1069 60 1057 44 c 0,112,113
 997 -30 997 -30 884 34 c 1,114,-1
 874 -3 l 1,115,-1
 854 8 l 1,116,117
 800 -206 800 -206 688 -307 c 1,118,119
 618 -368 618 -368 499 -399 c 0,120,121
 442 -413 442 -413 359 -418 c 0,122,123
 111 -436 111 -436 7 -323 c 1,124,125
 -30 -279 -30 -279 -31 -197 c 1,126,127
 -36 -65 -36 -65 59 128 c 1,128,129
 112 232 112 232 142 262 c 0,130,131
 155 275 155 275 177 274 c 0,132,133
 185 273 185 273 186 269 c 0,134,135
 189 260 189 260 181 226 c 0,136,137
 179 216 179 216 143 121 c 0,138,139
 117 51 117 51 128 11 c 1,140,141
 170 -113 170 -113 392 -113 c 0,142,143
 452 -113 452 -113 464 -112 c 0,144,145
 504 -109 504 -109 541 -102 c 0,146,147
 648 -84 648 -84 700 -43 c 0,148,149
 747 -4 747 -4 758 18 c 0,150,151
 787 73 787 73 720 157 c 0,152,153
 717 161 717 161 704 180 c 1,154,-1
 672 220 l 2,155,156
 661 236 661 236 661 238 c 0,157,158
 664 246 664 246 675 259 c 0,159,160
 682 268 682 268 704 300 c 0,161,162
 720 323 720 323 753 368 c 0,163,164
 803 436 803 436 825 471 c 1,165,166
 842 455 842 455 888 387 c 0,167,168
 925 333 925 333 963 315 c 1,169,170
 1023 292 1023 292 1062 321 c 0,171,172
 1096 348 1096 348 1112 369 c 0,173,174
 1117 377 1117 377 1144 441 c 0,175,176
 1161 481 1161 481 1172 488 c 0,177,178
 1177 490 1177 490 1180 490 c 0,179,180
 1207 494 1207 494 1206 457 c 0,181,182
 1206 454 1206 454 1206 449 c 0,183,184
 1206 441 1206 441 1206 438 c 0,185,186
 1204 395 1204 395 1205 380 c 0,187,188
 1212 345 1212 345 1243 322 c 0,189,190
 1246 320 1246 320 1248 318 c 0,191,192
 1289 294 1289 294 1336 316 c 0,193,194
 1341 318 1341 318 1343 320 c 0,195,196
 1349 324 1349 324 1358 333 c 0,197,198
 1366 341 1366 341 1369 343 c 0,199,200
 1403 369 1403 369 1407 392 c 0,201,202
 1408 397 1408 397 1408.5 402 c 128,-1,203
 1409 407 1409 407 1409.5 412.5 c 128,-1,204
 1410 418 1410 418 1410 421.5 c 128,-1,205
 1410 425 1410 425 1409.5 431.5 c 128,-1,206
 1409 438 1409 438 1408.5 440.5 c 128,-1,207
 1408 443 1408 443 1407 450.5 c 128,-1,208
 1406 458 1406 458 1405.5 459.5 c 128,-1,209
 1405 461 1405 461 1404 470 c 2,210,-1
 1403 479 l 2,211,212
 1403 482 1403 482 1401 490 c 0,213,214
 1398 511 1398 511 1400 518 c 1,215,216
 1403 522 1403 522 1428 546 c 0,217,218
 1437 554 1437 554 1453 570 c 0,219,220
 1485 599 1485 599 1501 613 c 1,89,90
EndSplineSet
AlternateSubs2: "gsub_alternate_dfl_aalt_arab_FAR_Lookup_01_Subtable_01" uniFEB6 uniFEB7 afii57428 uniFEB8
Substitution2: "gsub_single_rtl_fina_arab_FAR_Lookup_01_Subtable_01" uniFEB6
Substitution2: "gsub_single_rtl_init_arab_FAR_Lookup_01_Subtable_01" uniFEB7
Substitution2: "gsub_single_rtl_medi_arab_FAR_Lookup_01_Subtable_01" uniFEB8
EndChar

StartChar: uniFEB6
Encoding: 65206 65206 390
Width: 1501
VWidth: 1639
GlyphClass: 2
Flags: HW
AnchorPoint: "GposMark2BaseAnchorClassErabAbove_01_02" 764 1296 basechar 0
AnchorPoint: "GposMark2BaseAnchorClassErabBelow_01_02" 764 -603 basechar 0
LayerCount: 2
Fore
SplineSet
1370 1145 m 0,0,1
 1378 1146 1378 1146 1385 1137 c 0,2,3
 1396 1124 1396 1124 1411 1100 c 0,4,5
 1413 1097 1413 1097 1419 1091 c 0,6,7
 1436 1071 1436 1071 1436 1061 c 1,8,9
 1433 1052 1433 1052 1415 1038 c 0,10,11
 1382 1009 1382 1009 1367 995 c 1,12,13
 1345 977 1345 977 1342 976 c 0,14,15
 1334 973 1334 973 1323 987 c 2,16,-1
 1322 989 l 2,17,18
 1316 997 1316 997 1303.5 1013.5 c 128,-1,19
 1291 1030 1291 1030 1286 1038 c 0,20,21
 1275 1054 1275 1054 1274 1055 c 0,22,23
 1274 1058 1274 1058 1274 1059 c 0,24,25
 1277 1068 1277 1068 1294 1082 c 2,26,-1
 1346 1127 l 2,27,28
 1367 1144 1367 1144 1370 1145 c 0,0,1
1227 954 m 0,29,30
 1236 959 1236 959 1247 943 c 2,31,-1
 1248 941 l 2,32,33
 1254 933 1254 933 1266 918 c 0,34,35
 1278 902 1278 902 1283 894 c 0,36,37
 1296 874 1296 874 1296 872 c 0,38,39
 1295 869 1295 869 1292 865 c 128,-1,40
 1289 861 1289 861 1282 855 c 2,41,-1
 1274 850 l 2,42,43
 1267 844 1267 844 1253 829 c 0,44,45
 1219 795 1219 795 1202 787 c 1,46,47
 1191 785 1191 785 1182 799 c 1,48,49
 1168 815 1168 815 1143 850 c 0,50,51
 1133 867 1133 867 1133 871 c 0,52,53
 1134 874 1134 874 1136 877.5 c 128,-1,54
 1138 881 1138 881 1141 883.5 c 128,-1,55
 1144 886 1144 886 1149 890 c 2,56,-1
 1153 894 l 2,57,58
 1159 899 1159 899 1172 911 c 0,59,60
 1210 945 1210 945 1227 954 c 0,29,30
1425 954 m 0,61,62
 1433 957 1433 957 1444 943 c 2,63,-1
 1445 941 l 2,64,65
 1451 933 1451 933 1462.5 917.5 c 128,-1,66
 1474 902 1474 902 1480 894 c 0,67,68
 1491 877 1491 877 1490 872 c 0,69,70
 1490 864 1490 864 1473 850 c 2,71,-1
 1471 848 l 1,72,-1
 1421 805 l 2,73,74
 1402 789 1402 789 1397 787 c 0,75,76
 1389 786 1389 786 1377 799 c 0,77,78
 1363 817 1363 817 1340 850 c 0,79,80
 1326 873 1326 873 1326 871 c 1,81,82
 1327 874 1327 874 1331 878 c 128,-1,83
 1335 882 1335 882 1343 888 c 2,84,-1
 1350 894 l 1,85,86
 1395 932 1395 932 1403 938 c 0,87,88
 1422 953 1422 953 1425 954 c 0,61,62
824 471 m 1,89,90
 833 463 833 463 859 425 c 0,91,92
 922 335 922 335 977 319 c 0,93,94
 980 318 980 318 982 318 c 0,95,96
 1024 310 1024 310 1054 323 c 0,97,98
 1062 327 1062 327 1087 351 c 1,99,100
 1116 374 1116 374 1125 387 c 0,101,102
 1133 401 1133 401 1145 429 c 0,103,104
 1154 449 1154 449 1158 458 c 0,105,106
 1168 480 1168 480 1173 485 c 0,107,108
 1181 490 1181 490 1202 490 c 1,109,110
 1211 486 1211 486 1210 472 c 0,111,112
 1209 463 1209 463 1209 446 c 0,113,114
 1208 428 1208 428 1207 420 c 0,115,116
 1204 385 1204 385 1204 382 c 0,117,118
 1205 374 1205 374 1221 349 c 0,119,120
 1223 346 1223 346 1224 346 c 0,121,122
 1258 305 1258 305 1299 317 c 0,123,124
 1313 322 1313 322 1341 346 c 0,125,126
 1345 350 1345 350 1353 356 c 0,127,128
 1364 365 1364 365 1368 369 c 0,129,130
 1379 383 1379 383 1400 430 c 1,131,132
 1420 481 1420 481 1433 489 c 0,133,134
 1439 492 1439 492 1443 492 c 0,135,136
 1460 490 1460 490 1459 462 c 0,137,138
 1459 455 1459 455 1458 439 c 0,139,140
 1455 391 1455 391 1463 374 c 0,141,142
 1485 335 1485 335 1506 326 c 1,143,144
 1533 319 1533 319 1604 323 c 1,145,-1
 1530 0 l 1,146,147
 1435 0 1435 0 1406 12 c 0,148,149
 1392 18 1392 18 1382 26 c 0,150,151
 1367 39 1367 39 1354 61 c 0,152,153
 1352 64 1352 64 1348 69 c 0,154,155
 1338 82 1338 82 1335 90 c 1,156,157
 1329 86 1329 86 1285 44 c 0,158,159
 1271 31 1271 31 1261 25 c 0,160,161
 1205 -10 1205 -10 1147 15 c 0,162,163
 1115 31 1115 31 1105 59 c 1,164,165
 1098 56 1098 56 1088 80 c 0,166,167
 1086 84 1086 84 1086 85 c 2,168,-1
 1060 52 l 1,169,-1
 1058 52 l 1,170,-1
 1055 59 l 1,171,172
 1017 -8 1017 -8 933 12 c 0,173,174
 904 20 904 20 883 34 c 1,175,-1
 873 -3 l 1,176,-1
 853 8 l 1,177,178
 799 -206 799 -206 687 -307 c 1,179,180
 631 -354 631 -354 532 -389 c 1,181,182
 337 -453 337 -453 152 -402 c 0,183,184
 145 -400 145 -400 140 -399 c 0,185,186
 31 -368 31 -368 -7 -305 c 1,187,188
 -76 -178 -76 -178 35 74 c 0,189,190
 53 117 53 117 95 194 c 1,191,192
 123 242 123 242 143 262 c 0,193,194
 156 275 156 275 177 273 c 0,195,196
 183 271 183 271 185 269 c 0,197,198
 188 260 188 260 180 226 c 0,199,200
 177 215 177 215 142 121 c 0,201,202
 116 49 116 49 128 8 c 1,203,204
 133 -1 133 -1 151 -26 c 0,205,206
 213 -113 213 -113 392 -113 c 0,207,208
 452 -113 452 -113 464 -112 c 0,209,210
 504 -109 504 -109 541 -102 c 0,211,212
 648 -84 648 -84 699 -43 c 0,213,214
 746 -4 746 -4 757 18 c 0,215,216
 786 73 786 73 719 157 c 0,217,218
 716 161 716 161 703 180 c 1,219,-1
 671 220 l 2,220,221
 660 236 660 236 660 238 c 0,222,223
 663 246 663 246 674 259 c 0,224,225
 681 268 681 268 704 300 c 0,226,227
 720 323 720 323 752 368 c 0,228,229
 802 436 802 436 824 471 c 1,89,90
EndSplineSet
EndChar

StartChar: uniFEB7
Encoding: 65207 65207 391
Width: 931
VWidth: 1639
GlyphClass: 2
Flags: HW
AnchorPoint: "GposMark2BaseAnchorClassErabAbove_01_02" 437 1297 basechar 0
AnchorPoint: "GposMark2BaseAnchorClassErabBelow_01_02" 437 -165 basechar 0
LayerCount: 2
Fore
SplineSet
720 1143 m 0,0,1
 731 1147 731 1147 740 1133 c 0,2,3
 754 1115 754 1115 777 1082 c 0,4,5
 788 1065 788 1065 788 1061 c 0,6,7
 786 1052 786 1052 769 1038 c 2,8,9
 721 997 l 2,10,11
 719 995 719 995 714 991 c 0,12,13
 701 979 701 979 695 976 c 0,14,15
 685 973 685 973 675 987 c 2,16,-1
 674 989 l 2,17,18
 668 997 668 997 656 1013 c 0,19,20
 644 1029 644 1029 639 1036 c 0,21,22
 627 1054 627 1054 627 1058 c 0,23,24
 629 1067 629 1067 646 1081 c 2,25,-1
 695 1123 l 2,26,27
 719 1142 719 1142 720 1143 c 0,0,1
582 954 m 0,28,29
 590 957 590 957 600 943 c 2,30,-1
 602 941 l 2,31,32
 608 933 608 933 620 917 c 0,33,34
 633 900 633 900 637 892 c 0,35,36
 649 875 l 0,37,38
 649 873 649 873 649 871 c 0,39,40
 648 868 648 868 644.5 863.5 c 128,-1,41
 641 859 641 859 634 854 c 2,42,-1
 628 850 l 2,43,44
 619 843 619 843 603 827 c 0,45,46
 586 812 586 812 578 805 c 0,47,48
 557 788 557 788 554 787 c 0,49,50
 546 784 546 784 535 798 c 2,51,-1
 534 800 l 2,52,53
 527 807 527 807 516 824 c 0,54,55
 504 841 504 841 498 848 c 0,56,57
 486 862 486 862 486 871 c 0,58,59
 487 874 487 874 489 877.5 c 128,-1,60
 491 881 491 881 494 883.5 c 128,-1,61
 497 886 497 886 502 890 c 2,62,-1
 507 894 l 2,63,64
 516 901 516 901 531 914 c 0,65,66
 548 928 548 928 556 935 c 0,67,68
 576 952 576 952 582 954 c 0,28,29
678 869 m 1,69,70
 689 886 689 886 740 925 c 0,71,72
 750 932 750 932 754 936 c 0,73,74
 777 955 777 955 783 956 c 0,75,76
 793 955 793 955 818 916 c 0,77,78
 820 913 820 913 820 912 c 0,79,80
 822 910 822 910 827 904 c 0,81,82
 845 881 845 881 845 871 c 1,83,84
 842 862 842 862 824 848 c 2,85,-1
 769 800 l 1,86,87
 750 786 750 786 743 787 c 1,88,89
 734 792 734 792 720 813 c 0,90,91
 685 862 685 862 678 869 c 1,69,70
896 613 m 1,92,93
 899 606 899 606 900 576 c 1,94,95
 903 528 903 528 895 467 c 0,96,97
 868 301 868 301 792 159 c 0,98,99
 745 74 745 74 707 38 c 0,100,101
 655 -15 655 -15 578 1 c 0,102,103
 506 16 506 16 498 76 c 0,104,105
 498 80 498 80 498 82 c 1,106,-1
 496 82 l 1,107,-1
 491 74 l 1,108,-1
 479 108 l 1,109,-1
 478 108 l 1,110,-1
 452 71 l 1,111,-1
 451 71 l 1,112,-1
 449 82 l 1,113,-1
 447 82 l 1,114,115
 417 15 417 15 342 1 c 0,116,117
 267 -13 267 -13 235 37 c 0,118,119
 223 57 223 57 223 82 c 1,120,-1
 220 82 l 1,121,-1
 213 71 l 1,122,-1
 205 108 l 1,123,-1
 202 108 l 1,124,-1
 177 72 l 1,125,-1
 175 72 l 1,126,-1
 174 82 l 1,127,-1
 171 82 l 1,128,129
 163 67 163 67 151 52 c 0,130,131
 107 -5 107 -5 18 -2 c 0,132,133
 10 -2 10 -2 -7 -1 c 0,134,135
 -23 0 -23 0 -29 0 c 1,136,-1
 45 323 l 1,137,-1
 113 323 l 2,138,139
 116 323 116 323 122 322 c 0,140,141
 132 321 132 321 137 321 c 0,142,143
 172 330 172 330 218 379 c 0,144,145
 233 394 233 394 263 458 c 0,146,147
 266 464 266 464 268 467 c 0,148,149
 286 495 286 495 301 499 c 1,150,151
 325 500 325 500 324 455 c 0,152,153
 324 439 324 439 323 436 c 0,154,155
 322 400 322 400 324 389 c 0,156,157
 333 348 333 348 370 327 c 0,158,159
 375 324 375 324 379 323 c 0,160,161
 442 302 442 302 500 375 c 0,162,163
 516 397 516 397 527 420 c 1,164,165
 549 480 549 480 559 490 c 0,166,167
 568 498 568 498 574 500 c 0,168,169
 601 504 601 504 601 467 c 0,170,171
 601 464 601 464 600 459 c 0,172,173
 600 450 600 450 600 446 c 0,174,175
 600 440 600 440 599 426 c 0,176,177
 597 393 597 393 600 380 c 0,178,179
 601 376 601 376 618 351 c 0,180,181
 620 349 620 349 620 348 c 0,182,183
 640 321 640 321 646 317 c 0,184,185
 695 296 695 296 741 321 c 0,186,187
 747 325 747 325 755 334 c 0,188,189
 761 340 761 340 764 343 c 0,190,191
 789 365 789 365 790 366 c 0,192,193
 792 369 792 369 793 371 c 0,194,195
 795 374 795 374 796.5 377 c 128,-1,196
 798 380 798 380 799 384.5 c 128,-1,197
 800 389 800 389 801.5 391.5 c 128,-1,198
 803 394 803 394 803.5 398.5 c 128,-1,199
 804 403 804 403 804.5 405.5 c 128,-1,200
 805 408 805 408 805 414 c 2,201,-1
 806 420 l 1,202,203
 807 447 807 447 799 487 c 1,204,205
 795 518 l 0,206,207
 798 525 798 525 810 535 c 2,208,-1
 821 544 l 1,209,210
 896 613 l 1,92,93
EndSplineSet
EndChar

StartChar: uniFEB8
Encoding: 65208 65208 392
Width: 914
VWidth: 1639
GlyphClass: 2
Flags: HW
AnchorPoint: "GposMark2BaseAnchorClassErabAbove_01_02" 494 1297 basechar 0
AnchorPoint: "GposMark2BaseAnchorClassErabBelow_01_02" 494 -174 basechar 0
LayerCount: 2
Fore
SplineSet
720 1143 m 0,0,1
 731 1147 731 1147 740 1133 c 0,2,3
 754 1115 754 1115 777 1082 c 0,4,5
 788 1065 788 1065 788 1061 c 0,6,7
 786 1052 786 1052 769 1038 c 2,8,9
 721 997 l 2,10,11
 719 995 719 995 714 991 c 0,12,13
 701 979 701 979 695 976 c 0,14,15
 685 973 685 973 675 987 c 2,16,-1
 674 989 l 2,17,18
 668 997 668 997 656 1013 c 0,19,20
 644 1029 644 1029 639 1036 c 0,21,22
 627 1054 627 1054 627 1058 c 0,23,24
 629 1067 629 1067 646 1081 c 2,25,-1
 695 1123 l 2,26,27
 719 1142 719 1142 720 1143 c 0,0,1
582 954 m 0,28,29
 590 957 590 957 600 943 c 2,30,-1
 602 941 l 2,31,32
 608 933 608 933 620 917 c 0,33,34
 633 900 633 900 637 892 c 0,35,36
 649 875 l 0,37,38
 649 873 649 873 649 871 c 0,39,40
 648 868 648 868 644.5 863.5 c 128,-1,41
 641 859 641 859 634 854 c 2,42,-1
 628 850 l 2,43,44
 619 843 619 843 603 827 c 0,45,46
 586 812 586 812 578 805 c 0,47,48
 557 788 557 788 554 787 c 0,49,50
 546 784 546 784 535 798 c 2,51,-1
 534 800 l 2,52,53
 527 807 527 807 516 824 c 0,54,55
 504 841 504 841 498 848 c 0,56,57
 486 862 486 862 486 871 c 0,58,59
 487 874 487 874 489 877.5 c 128,-1,60
 491 881 491 881 494 883.5 c 128,-1,61
 497 886 497 886 502 890 c 2,62,-1
 507 894 l 2,63,64
 516 901 516 901 531 914 c 0,65,66
 548 928 548 928 556 935 c 0,67,68
 576 952 576 952 582 954 c 0,28,29
678 869 m 1,69,70
 689 886 689 886 740 925 c 0,71,72
 750 932 750 932 754 936 c 0,73,74
 777 955 777 955 783 956 c 0,75,76
 793 955 793 955 818 916 c 0,77,78
 820 913 820 913 820 912 c 0,79,80
 822 910 822 910 827 904 c 0,81,82
 845 881 845 881 845 871 c 1,83,84
 842 862 842 862 824 848 c 2,85,-1
 769 800 l 1,86,87
 750 786 750 786 743 787 c 1,88,89
 734 792 734 792 720 813 c 0,90,91
 685 862 685 862 678 869 c 1,69,70
45 323 m 1,92,-1
 113 323 l 2,93,94
 117 323 117 323 125 322 c 0,95,96
 136 321 136 321 141 321 c 0,97,98
 177 332 177 332 223 380 c 0,99,100
 240 398 240 398 273 471 c 0,101,102
 275 475 275 475 276 477 c 0,103,104
 295 511 295 511 315 513 c 1,105,106
 339 513 339 513 336 463 c 0,107,108
 335 448 335 448 335 443 c 0,109,110
 335 392 335 392 341 379 c 0,111,112
 343 374 343 374 358 354 c 0,113,114
 379 324 379 324 395 321 c 0,115,116
 398 320 398 320 399 320 c 0,117,118
 435 318 435 318 476 351 c 0,119,120
 480 355 480 355 488 361 c 0,121,122
 503 374 503 374 509 384 c 0,123,124
 516 394 516 394 537 438 c 0,125,126
 560 490 560 490 563 493 c 0,127,128
 578 510 578 510 595 510 c 0,129,130
 614 509 614 509 610 459 c 0,131,132
 609 450 609 450 609 446 c 0,133,134
 607 391 607 391 614 374 c 0,135,136
 616 370 616 370 621 363 c 0,137,138
 627 356 627 356 629 353 c 0,139,140
 647 328 647 328 654 325 c 0,141,142
 686 312 686 312 732 349 c 0,143,144
 736 352 736 352 739 354 c 0,145,146
 765 375 765 375 774 387 c 0,147,148
 780 397 780 397 789 419 c 0,149,150
 795 434 795 434 799 441 c 0,151,152
 801 445 801 445 804 455 c 0,153,154
 819 495 819 495 830 503 c 1,155,156
 838 507 838 507 857 507 c 1,157,158
 871 503 871 503 870 474 c 0,159,160
 868 402 868 402 871 393 c 0,161,162
 873 385 873 385 875 380 c 0,163,164
 894 337 894 337 923 325 c 1,165,166
 943 321 943 321 1017 323 c 1,167,-1
 942 0 l 1,168,169
 849 0 849 0 822 13 c 0,170,171
 796 27 796 27 782 52 c 0,172,173
 772 68 772 68 770 80 c 1,174,-1
 763 77 l 1,175,-1
 752 107 l 1,176,177
 740 99 740 99 693 52 c 0,178,179
 684 44 684 44 679 39 c 0,180,181
 604 -24 604 -24 546 13 c 0,182,183
 527 25 527 25 518 38 c 1,184,185
 504 63 504 63 503 84 c 1,186,-1
 500 84 l 1,187,-1
 495 77 l 1,188,189
 485 89 485 89 484 110 c 1,190,-1
 481 110 l 1,191,-1
 456 80 l 1,192,-1
 451 84 l 1,193,194
 407 17 407 17 340 3 c 0,195,196
 286 -9 286 -9 255 30 c 0,197,198
 243 46 243 46 236 84 c 1,199,-1
 234 84 l 1,200,-1
 230 77 l 1,201,-1
 227 77 l 1,202,-1
 217 110 l 1,203,-1
 216 110 l 1,204,-1
 189 79 l 1,205,-1
 187 84 l 1,206,-1
 185 84 l 1,207,208
 182 79 182 79 160 54 c 0,209,210
 107 -2 107 -2 14 -1 c 0,211,212
 5 -1 5 -1 -13 -1 c 0,213,214
 -24 -1 -24 -1 -29 0 c 1,215,-1
 45 323 l 1,92,-1
EndSplineSet
EndChar

StartChar: sadarabic
Encoding: 1589 1589 393
AltUni2: 00feb9.ffffffff.0
Width: 1648
VWidth: 1639
GlyphClass: 2
Flags: HW
AnchorPoint: "GposMark2BaseAnchorClassErabAbove_01_02" 802.5 901 basechar 0
AnchorPoint: "GposMark2BaseAnchorClassErabBelow_01_02" 802.5 -580 basechar 0
LayerCount: 2
Fore
SplineSet
824 469 m 1,0,1
 830 462 830 462 851 426 c 0,2,3
 867 401 867 401 898 358 c 0,4,5
 922 326 922 326 932 326 c 1,6,7
 942 330 942 330 973 359 c 0,8,9
 998 381 998 381 1089 472 c 0,10,11
 1137 518 1137 518 1159 538 c 0,12,13
 1407 751 1407 751 1550 701 c 0,14,15
 1579 690 1579 690 1603 669 c 0,16,17
 1641 631 1641 631 1630 543 c 0,18,19
 1611 410 1611 410 1513 267 c 0,20,21
 1391 91 1391 91 1204 27 c 0,22,23
 1107 -6 1107 -6 1013 0 c 0,24,25
 962 4 962 4 884 34 c 1,26,-1
 875 0 l 1,27,-1
 854 8 l 1,28,29
 800 -206 800 -206 688 -307 c 1,30,31
 624 -361 624 -361 512 -395 c 0,32,33
 442 -415 442 -415 360 -418 c 0,34,35
 101 -430 101 -430 6 -321 c 1,36,37
 -30 -277 -30 -277 -31 -197 c 0,38,39
 -36 -65 -36 -65 59 128 c 1,40,41
 108 223 108 223 126 245 c 0,42,43
 136 256 136 256 144 264 c 0,44,45
 158 276 158 276 179 273 c 0,46,47
 185 271 185 271 186 267 c 0,48,49
 188 253 188 253 175 202 c 0,50,51
 173 193 173 193 140 109 c 0,52,53
 117 51 117 51 129 13 c 0,54,55
 133 0 133 0 152 -26 c 0,56,57
 202 -97 202 -97 339 -110 c 0,58,59
 348 -111 348 -111 356 -112 c 0,60,61
 419 -118 419 -118 463 -112 c 0,62,63
 540 -102 540 -102 541 -102 c 0,64,65
 639 -84 639 -84 689 -51 c 0,66,67
 700 -43 700 -43 736 -11 c 1,68,69
 794 44 794 44 738 131 c 0,70,71
 734 138 734 138 725 151 c 128,-1,72
 716 164 716 164 712 169 c 0,73,74
 709 174 709 174 702 183 c 0,75,76
 695 193 695 193 691 197 c 0,77,78
 689 200 689 200 681 208 c 0,79,80
 663 227 663 227 661 236 c 0,81,82
 662 239 662 239 671 254 c 0,83,84
 678 263 678 263 700 295 c 0,85,86
 817 459 817 459 824 469 c 1,0,1
1029 285 m 1,87,88
 1048 281 1048 281 1111 284 c 1,89,90
 1249 285 1249 285 1347 317 c 0,91,92
 1386 331 1386 331 1402 343 c 0,93,94
 1405 345 1405 345 1410 351 c 0,95,96
 1416 357 1416 357 1418 359 c 0,97,98
 1442 377 1442 377 1443 379 c 0,99,100
 1446 385 1446 385 1448 390 c 0,101,102
 1456 430 1456 430 1431 467 c 2,103,-1
 1414 492 l 1,104,105
 1385 514 1385 514 1327 508 c 0,106,107
 1246 498 1246 498 1110 394 c 0,108,109
 1102 388 1102 388 1092 380 c 0,110,111
 1028 331 1028 331 1011 312 c 1,112,-1
 1057 310 l 1,113,-1
 1057 308 l 1,114,-1
 1029 285 l 1,87,88
EndSplineSet
AlternateSubs2: "gsub_alternate_dfl_aalt_arab_FAR_Lookup_01_Subtable_01" uniFEBA uniFEBB sadarabic uniFEBC
Substitution2: "gsub_single_rtl_fina_arab_FAR_Lookup_01_Subtable_01" uniFEBA
Substitution2: "gsub_single_rtl_init_arab_FAR_Lookup_01_Subtable_01" uniFEBB
Substitution2: "gsub_single_rtl_medi_arab_FAR_Lookup_01_Subtable_01" uniFEBC
EndChar

StartChar: uniFEBA
Encoding: 65210 65210 394
Width: 1596
VWidth: 1639
GlyphClass: 2
Flags: HW
AnchorPoint: "GposMark2BaseAnchorClassErabAbove_01_02" 832 890 basechar 0
AnchorPoint: "GposMark2BaseAnchorClassErabBelow_01_02" 832 -580 basechar 0
LayerCount: 2
Fore
SplineSet
824 469 m 1,0,1
 830 462 830 462 851 426 c 0,2,3
 867 401 867 401 895 361 c 1,4,5
 921 328 921 328 930 326 c 0,6,7
 935 326 935 326 943 332 c 128,-1,8
 951 338 951 338 963 349 c 2,9,-1
 975 361 l 1,10,11
 1000 384 1000 384 1048 432 c 0,12,13
 1081 465 1081 465 1097 481 c 0,14,15
 1161 540 l 1,16,17
 1392 740 1392 740 1542 705 c 1,18,19
 1588 692 1588 692 1611 664 c 1,20,21
 1655 599 1655 599 1612 464 c 1,22,23
 1595 417 1595 417 1583 394 c 0,24,25
 1582 392 1582 392 1579 385 c 0,26,27
 1570 370 1570 370 1572 364 c 0,28,29
 1573 360 1573 360 1584 353 c 0,30,31
 1587 351 1587 351 1588 349 c 0,32,33
 1590 347 1590 347 1591 340 c 0,34,35
 1593 332 1593 332 1596 330 c 0,36,37
 1599 328 1599 328 1602 326.5 c 128,-1,38
 1605 325 1605 325 1609.5 324 c 128,-1,39
 1614 323 1614 323 1616.5 323 c 128,-1,40
 1619 323 1619 323 1626 323 c 2,41,-1
 1632 323 l 1,42,-1
 1700 323 l 1,43,-1
 1625 0 l 1,44,45
 1525 0 1525 0 1499 8 c 0,46,47
 1468 19 1468 19 1448 41 c 1,48,49
 1437 57 1437 57 1432 75 c 0,50,51
 1421 107 1421 107 1420 116 c 1,52,-1
 1418 116 l 1,53,-1
 1411 108 l 1,54,-1
 1402 143 l 1,55,-1
 1400 143 l 1,56,57
 1383 120 1383 120 1370 116 c 1,58,59
 1360 104 1360 104 1335 85 c 1,60,61
 1293 57 1293 57 1248 38 c 0,62,63
 1109 -19 1109 -19 969 5 c 0,64,65
 940 11 940 11 884 34 c 1,66,-1
 875 0 l 1,67,-1
 854 8 l 1,68,69
 800 -206 800 -206 688 -307 c 1,70,71
 624 -361 624 -361 512 -395 c 0,72,73
 442 -415 442 -415 360 -418 c 0,74,75
 101 -430 101 -430 6 -321 c 1,76,77
 -30 -277 -30 -277 -31 -197 c 0,78,79
 -36 -65 -36 -65 59 128 c 1,80,81
 108 223 108 223 126 245 c 0,82,83
 136 256 136 256 144 264 c 0,84,85
 158 276 158 276 179 273 c 0,86,87
 185 271 185 271 186 267 c 0,88,89
 188 253 188 253 175 202 c 0,90,91
 173 193 173 193 140 109 c 0,92,93
 117 51 117 51 129 13 c 0,94,95
 133 0 133 0 152 -26 c 0,96,97
 202 -97 202 -97 339 -110 c 0,98,99
 348 -111 348 -111 356 -112 c 0,100,101
 419 -118 419 -118 463 -112 c 0,102,103
 540 -102 540 -102 541 -102 c 0,104,105
 639 -84 639 -84 689 -51 c 0,106,107
 700 -43 700 -43 736 -11 c 1,108,109
 794 44 794 44 738 131 c 0,110,111
 734 138 734 138 725 151 c 128,-1,112
 716 164 716 164 712 169 c 0,113,114
 709 174 709 174 702 183 c 0,115,116
 695 193 695 193 691 197 c 0,117,118
 689 200 689 200 681 208 c 0,119,120
 663 227 663 227 661 236 c 0,121,122
 662 239 662 239 671 254 c 0,123,124
 678 263 678 263 700 295 c 0,125,126
 817 459 817 459 824 469 c 1,0,1
1029 285 m 1,127,128
 1048 281 1048 281 1111 284 c 1,129,130
 1249 285 1249 285 1347 317 c 0,131,132
 1386 331 1386 331 1402 343 c 0,133,134
 1405 345 1405 345 1410 351 c 0,135,136
 1416 357 1416 357 1418 359 c 0,137,138
 1442 377 1442 377 1443 379 c 0,139,140
 1446 385 1446 385 1448 390 c 0,141,142
 1456 430 1456 430 1431 467 c 2,143,-1
 1414 492 l 1,144,145
 1385 514 1385 514 1327 508 c 0,146,147
 1246 498 1246 498 1110 394 c 0,148,149
 1102 388 1102 388 1092 380 c 0,150,151
 1028 331 1028 331 1011 312 c 1,152,-1
 1057 310 l 1,153,-1
 1057 308 l 1,154,-1
 1029 285 l 1,127,128
EndSplineSet
EndChar

StartChar: uniFEBB
Encoding: 65211 65211 395
Width: 1089
VWidth: 1639
GlyphClass: 2
Flags: HW
AnchorPoint: "GposMark2BaseAnchorClassErabAbove_01_02" 525.5 871 basechar 0
AnchorPoint: "GposMark2BaseAnchorClassErabBelow_01_02" 525.5 -154 basechar 0
LayerCount: 2
Fore
SplineSet
45 323 m 1,0,1
 53 323 53 323 71 322 c 0,2,3
 117 320 117 320 138 326 c 0,4,5
 175 338 175 338 221 389 c 0,6,7
 232 403 232 403 271 474 c 0,8,9
 274 480 274 480 276 484 c 0,10,11
 290 511 290 511 295 513 c 0,12,13
 299 514 299 514 300 515 c 0,14,15
 314 516 314 516 316 489 c 0,16,17
 317 480 317 480 316 479 c 0,18,19
 321 404 321 404 325 392 c 0,20,21
 332 373 332 373 342 359 c 0,22,23
 344 357 344 357 348 351 c 0,24,25
 364 328 364 328 377 333 c 0,26,27
 384 337 384 337 407 358 c 0,28,29
 434 381 434 381 505 451 c 0,30,31
 536 482 536 482 593 536 c 0,32,33
 608 550 608 550 667 597 c 1,34,35
 833 721 833 721 951 712 c 1,36,37
 1020 705 1020 705 1049 667 c 1,38,39
 1080 621 1080 621 1070 538 c 1,40,41
 1050 401 1050 401 940 256 c 0,42,43
 876 173 876 173 819 126 c 0,44,45
 655 -4 655 -4 459 4 c 0,46,47
 417 6 417 6 377 15 c 0,48,49
 263 40 263 40 216 105 c 1,50,-1
 191 75 l 1,51,-1
 186 79 l 1,52,53
 136 5 136 5 33 0 c 0,54,55
 24 0 24 0 -29 0 c 1,56,-1
 45 323 l 1,0,1
470 290 m 1,57,58
 489 286 489 286 552 289 c 1,59,60
 697 290 697 290 789 321 c 0,61,62
 824 334 824 334 857 362 c 0,63,64
 883 384 883 384 886 392 c 0,65,66
 889 399 889 399 890 405 c 0,67,68
 895 440 895 440 870 472 c 1,69,70
 861 489 861 489 855 495 c 0,71,72
 827 519 827 519 767 513 c 1,73,74
 677 501 677 501 525 380 c 0,75,76
 465 331 465 331 456 322 c 0,77,78
 453 318 453 318 451 317 c 1,79,-1
 497 315 l 1,80,-1
 470 290 l 1,57,58
EndSplineSet
EndChar

StartChar: uniFEBC
Encoding: 65212 65212 396
Width: 1029
VWidth: 1639
GlyphClass: 2
Flags: HW
AnchorPoint: "GposMark2BaseAnchorClassErabAbove_01_02" 552 865 basechar 0
AnchorPoint: "GposMark2BaseAnchorClassErabBelow_01_02" 552 -175 basechar 0
LayerCount: 2
Fore
SplineSet
45 323 m 1,0,1
 53 323 53 323 71 322 c 0,2,3
 117 320 117 320 138 326 c 0,4,5
 175 338 175 338 221 389 c 0,6,7
 232 403 232 403 271 474 c 0,8,9
 274 480 274 480 276 484 c 0,10,11
 290 511 290 511 295 513 c 0,12,13
 299 514 299 514 300 515 c 0,14,15
 314 516 314 516 316 489 c 0,16,17
 317 480 317 480 316 479 c 0,18,19
 317 470 317 470 317 452 c 0,20,21
 318 405 318 405 325 385 c 0,22,23
 326 383 326 383 343 362 c 1,24,25
 360 332 360 332 372 333 c 0,26,27
 376 334 376 334 378 335 c 0,28,29
 391 342 391 342 429 379 c 0,30,31
 447 396 447 396 523 471 c 0,32,33
 718 659 718 659 847 700 c 0,34,35
 897 715 897 715 941 713 c 0,36,37
 1015 709 1015 709 1049 667 c 1,38,39
 1088 612 1088 612 1064 508 c 0,40,41
 1052 457 1052 457 1028 412 c 0,42,43
 1026 408 1026 408 1018 395 c 0,44,45
 1005 375 1005 375 1003 369 c 1,46,47
 1003 353 1003 353 1025 351 c 1,48,49
 1019 329 1019 329 1043 325 c 0,50,51
 1059 322 1059 322 1133 323 c 1,52,-1
 1058 0 l 1,53,54
 959 0 959 0 937 6 c 0,55,56
 901 16 901 16 881 39 c 0,57,58
 871 51 871 51 863 77 c 0,59,60
 854 108 854 108 853 116 c 1,61,-1
 850 116 l 1,62,-1
 846 110 l 1,63,-1
 843 110 l 1,64,-1
 835 143 l 1,65,-1
 832 143 l 1,66,67
 825 133 825 133 799 112 c 0,68,69
 738 58 738 58 658 31 c 0,70,71
 485 -25 485 -25 335 26 c 0,72,73
 254 52 254 52 216 105 c 1,74,-1
 191 75 l 1,75,-1
 186 79 l 1,76,77
 136 5 136 5 33 0 c 0,78,79
 24 0 24 0 -29 0 c 1,80,-1
 45 323 l 1,0,1
470 290 m 1,81,82
 489 286 489 286 552 289 c 1,83,84
 697 290 697 290 789 321 c 0,85,86
 824 334 824 334 857 362 c 0,87,88
 883 384 883 384 886 392 c 0,89,90
 889 399 889 399 890 405 c 0,91,92
 895 440 895 440 870 472 c 1,93,94
 861 489 861 489 855 495 c 0,95,96
 827 519 827 519 767 513 c 1,97,98
 677 501 677 501 525 380 c 0,99,100
 465 331 465 331 456 322 c 0,101,102
 453 318 453 318 451 317 c 1,103,-1
 497 315 l 1,104,-1
 470 290 l 1,81,82
EndSplineSet
EndChar

StartChar: afii57430
Encoding: 1590 1590 397
AltUni2: 00febd.ffffffff.0
Width: 1648
VWidth: 1639
GlyphClass: 2
Flags: HW
AnchorPoint: "GposMark2BaseAnchorClassErabAbove_01_02" 802.5 1274 basechar 0
AnchorPoint: "GposMark2BaseAnchorClassErabBelow_01_02" 802.5 -580 basechar 0
LayerCount: 2
Fore
SplineSet
1442 1122 m 0,0,1
 1450 1124 1450 1124 1461 1112 c 0,2,3
 1466 1105 1466 1105 1475 1092 c 0,4,5
 1485 1078 1485 1078 1490 1073 c 0,6,7
 1492 1070 1492 1070 1499 1061 c 0,8,9
 1523 1036 1523 1036 1521 1023 c 0,10,11
 1522 1020 1522 1020 1518.5 1015 c 128,-1,12
 1515 1010 1515 1010 1513 1007.5 c 128,-1,13
 1511 1005 1511 1005 1504 1000 c 2,14,-1
 1498 995 l 1,15,-1
 1435 941 l 2,16,17
 1411 921 1411 921 1406 920 c 0,18,19
 1399 919 1399 919 1388 930 c 0,20,21
 1376 945 1376 945 1359 969 c 0,22,23
 1357 972 1357 972 1350 980 c 0,24,25
 1328 1006 1328 1006 1328 1018 c 0,26,27
 1329 1028 1329 1028 1349 1046 c 2,28,-1
 1351 1048 l 1,29,-1
 1414 1102 l 2,30,31
 1437 1121 1437 1121 1442 1122 c 0,0,1
824 469 m 1,32,33
 830 462 830 462 851 426 c 0,34,35
 867 401 867 401 898 358 c 0,36,37
 922 326 922 326 932 326 c 1,38,39
 942 330 942 330 973 359 c 0,40,41
 998 381 998 381 1089 472 c 0,42,43
 1137 518 1137 518 1159 538 c 0,44,45
 1407 751 1407 751 1550 701 c 0,46,47
 1579 690 1579 690 1603 669 c 0,48,49
 1641 631 1641 631 1630 543 c 0,50,51
 1611 410 1611 410 1513 267 c 0,52,53
 1391 91 1391 91 1204 27 c 0,54,55
 1107 -6 1107 -6 1013 0 c 0,56,57
 962 4 962 4 884 34 c 1,58,-1
 875 0 l 1,59,-1
 854 8 l 1,60,61
 800 -206 800 -206 688 -307 c 1,62,63
 624 -361 624 -361 512 -395 c 0,64,65
 442 -415 442 -415 360 -418 c 0,66,67
 101 -430 101 -430 6 -321 c 1,68,69
 -30 -277 -30 -277 -31 -197 c 0,70,71
 -36 -65 -36 -65 59 128 c 1,72,73
 108 223 108 223 126 245 c 0,74,75
 136 256 136 256 144 264 c 0,76,77
 158 276 158 276 179 273 c 0,78,79
 185 271 185 271 186 267 c 0,80,81
 188 253 188 253 175 202 c 0,82,83
 173 193 173 193 140 109 c 0,84,85
 117 51 117 51 129 13 c 0,86,87
 133 0 133 0 152 -26 c 0,88,89
 202 -97 202 -97 339 -110 c 0,90,91
 348 -111 348 -111 356 -112 c 0,92,93
 419 -118 419 -118 463 -112 c 0,94,95
 540 -102 540 -102 541 -102 c 0,96,97
 639 -84 639 -84 689 -51 c 0,98,99
 700 -43 700 -43 736 -11 c 1,100,101
 794 44 794 44 738 131 c 0,102,103
 734 138 734 138 725 151 c 128,-1,104
 716 164 716 164 712 169 c 0,105,106
 709 174 709 174 702 183 c 0,107,108
 695 193 695 193 691 197 c 0,109,110
 689 200 689 200 681 208 c 0,111,112
 663 227 663 227 661 236 c 0,113,114
 662 239 662 239 671 254 c 0,115,116
 678 263 678 263 700 295 c 0,117,118
 817 459 817 459 824 469 c 1,32,33
1029 285 m 1,119,120
 1048 281 1048 281 1111 284 c 1,121,122
 1249 285 1249 285 1347 317 c 0,123,124
 1386 331 1386 331 1402 343 c 0,125,126
 1405 345 1405 345 1410 351 c 0,127,128
 1416 357 1416 357 1418 359 c 0,129,130
 1442 377 1442 377 1443 379 c 0,131,132
 1446 385 1446 385 1448 390 c 0,133,134
 1456 430 1456 430 1431 467 c 2,135,-1
 1414 492 l 1,136,137
 1385 514 1385 514 1327 508 c 0,138,139
 1246 498 1246 498 1110 394 c 0,140,141
 1102 388 1102 388 1092 380 c 0,142,143
 1028 331 1028 331 1011 312 c 1,144,-1
 1057 310 l 1,145,-1
 1057 308 l 1,146,-1
 1029 285 l 1,119,120
EndSplineSet
AlternateSubs2: "gsub_alternate_dfl_aalt_arab_FAR_Lookup_01_Subtable_01" uniFEBE uniFEBF afii57430 uniFEC0
Substitution2: "gsub_single_rtl_fina_arab_FAR_Lookup_01_Subtable_01" uniFEBE
Substitution2: "gsub_single_rtl_init_arab_FAR_Lookup_01_Subtable_01" uniFEBF
Substitution2: "gsub_single_rtl_medi_arab_FAR_Lookup_01_Subtable_01" uniFEC0
EndChar

StartChar: uniFEBE
Encoding: 65214 65214 398
Width: 1596
VWidth: 1639
GlyphClass: 2
Flags: HW
AnchorPoint: "GposMark2BaseAnchorClassErabAbove_01_02" 832 1274 basechar 0
AnchorPoint: "GposMark2BaseAnchorClassErabBelow_01_02" 832 -580 basechar 0
LayerCount: 2
Fore
SplineSet
1442 1122 m 0,0,1
 1450 1124 1450 1124 1461 1112 c 0,2,3
 1466 1105 1466 1105 1475 1092 c 0,4,5
 1485 1078 1485 1078 1490 1073 c 0,6,7
 1492 1070 1492 1070 1499 1061 c 0,8,9
 1523 1036 1523 1036 1521 1023 c 0,10,11
 1522 1020 1522 1020 1518.5 1015 c 128,-1,12
 1515 1010 1515 1010 1513 1007.5 c 128,-1,13
 1511 1005 1511 1005 1504 1000 c 2,14,-1
 1498 995 l 1,15,-1
 1435 941 l 2,16,17
 1411 921 1411 921 1406 920 c 0,18,19
 1399 919 1399 919 1388 930 c 0,20,21
 1376 945 1376 945 1359 969 c 0,22,23
 1357 972 1357 972 1350 980 c 0,24,25
 1328 1006 1328 1006 1328 1018 c 0,26,27
 1329 1028 1329 1028 1349 1046 c 2,28,-1
 1351 1048 l 1,29,-1
 1414 1102 l 2,30,31
 1437 1121 1437 1121 1442 1122 c 0,0,1
824 469 m 1,32,33
 830 462 830 462 851 426 c 0,34,35
 867 401 867 401 895 361 c 1,36,37
 921 328 921 328 930 326 c 0,38,39
 935 326 935 326 943 332 c 128,-1,40
 951 338 951 338 963 349 c 2,41,-1
 975 361 l 1,42,43
 1000 384 1000 384 1048 432 c 0,44,45
 1081 465 1081 465 1097 481 c 0,46,47
 1161 540 l 1,48,49
 1392 740 1392 740 1542 705 c 1,50,51
 1588 692 1588 692 1611 664 c 1,52,53
 1655 599 1655 599 1612 464 c 1,54,55
 1595 417 1595 417 1583 394 c 0,56,57
 1582 392 1582 392 1579 385 c 0,58,59
 1570 370 1570 370 1572 364 c 0,60,61
 1573 360 1573 360 1584 353 c 0,62,63
 1587 351 1587 351 1588 349 c 0,64,65
 1590 347 1590 347 1591 340 c 0,66,67
 1593 332 1593 332 1596 330 c 0,68,69
 1599 328 1599 328 1602 326.5 c 128,-1,70
 1605 325 1605 325 1609.5 324 c 128,-1,71
 1614 323 1614 323 1616.5 323 c 128,-1,72
 1619 323 1619 323 1626 323 c 2,73,-1
 1632 323 l 1,74,-1
 1700 323 l 1,75,-1
 1625 0 l 1,76,77
 1525 0 1525 0 1499 8 c 0,78,79
 1468 19 1468 19 1448 41 c 1,80,81
 1437 57 1437 57 1432 75 c 0,82,83
 1421 107 1421 107 1420 116 c 1,84,-1
 1418 116 l 1,85,-1
 1411 108 l 1,86,-1
 1402 143 l 1,87,-1
 1400 143 l 1,88,89
 1383 120 1383 120 1370 116 c 1,90,91
 1360 104 1360 104 1335 85 c 1,92,93
 1293 57 1293 57 1248 38 c 0,94,95
 1109 -19 1109 -19 969 5 c 0,96,97
 940 11 940 11 884 34 c 1,98,-1
 875 0 l 1,99,-1
 854 8 l 1,100,101
 800 -206 800 -206 688 -307 c 1,102,103
 624 -361 624 -361 512 -395 c 0,104,105
 442 -415 442 -415 360 -418 c 0,106,107
 101 -430 101 -430 6 -321 c 1,108,109
 -30 -277 -30 -277 -31 -197 c 0,110,111
 -36 -65 -36 -65 59 128 c 1,112,113
 108 223 108 223 126 245 c 0,114,115
 136 256 136 256 144 264 c 0,116,117
 158 276 158 276 179 273 c 0,118,119
 185 271 185 271 186 267 c 0,120,121
 188 253 188 253 175 202 c 0,122,123
 173 193 173 193 140 109 c 0,124,125
 117 51 117 51 129 13 c 0,126,127
 133 0 133 0 152 -26 c 0,128,129
 202 -97 202 -97 339 -110 c 0,130,131
 348 -111 348 -111 356 -112 c 0,132,133
 419 -118 419 -118 463 -112 c 0,134,135
 540 -102 540 -102 541 -102 c 0,136,137
 639 -84 639 -84 689 -51 c 0,138,139
 700 -43 700 -43 736 -11 c 1,140,141
 794 44 794 44 738 131 c 0,142,143
 734 138 734 138 725 151 c 128,-1,144
 716 164 716 164 712 169 c 0,145,146
 709 174 709 174 702 183 c 0,147,148
 695 193 695 193 691 197 c 0,149,150
 689 200 689 200 681 208 c 0,151,152
 663 227 663 227 661 236 c 0,153,154
 662 239 662 239 671 254 c 0,155,156
 678 263 678 263 700 295 c 0,157,158
 817 459 817 459 824 469 c 1,32,33
1029 285 m 1,159,160
 1048 281 1048 281 1111 284 c 1,161,162
 1249 285 1249 285 1347 317 c 0,163,164
 1386 331 1386 331 1402 343 c 0,165,166
 1405 345 1405 345 1410 351 c 0,167,168
 1416 357 1416 357 1418 359 c 0,169,170
 1442 377 1442 377 1443 379 c 0,171,172
 1446 385 1446 385 1448 390 c 0,173,174
 1456 430 1456 430 1431 467 c 2,175,-1
 1414 492 l 1,176,177
 1385 514 1385 514 1327 508 c 0,178,179
 1246 498 1246 498 1110 394 c 0,180,181
 1102 388 1102 388 1092 380 c 0,182,183
 1028 331 1028 331 1011 312 c 1,184,-1
 1057 310 l 1,185,-1
 1057 308 l 1,186,-1
 1029 285 l 1,159,160
EndSplineSet
EndChar

StartChar: uniFEBF
Encoding: 65215 65215 399
Width: 1089
VWidth: 1639
GlyphClass: 2
Flags: HW
AnchorPoint: "GposMark2BaseAnchorClassErabAbove_01_02" 525.5 1277 basechar 0
AnchorPoint: "GposMark2BaseAnchorClassErabBelow_01_02" 525.5 -154 basechar 0
LayerCount: 2
Fore
SplineSet
831 1122 m 0,0,1
 841 1127 841 1127 854 1109 c 2,2,-1
 855 1107 l 2,3,4
 883 1067 883 1067 896 1050 c 0,5,6
 911 1032 911 1032 912 1023 c 0,7,8
 913 1020 913 1020 909.5 1015 c 128,-1,9
 906 1010 906 1010 904 1007.5 c 128,-1,10
 902 1005 902 1005 895 1000 c 2,11,-1
 889 995 l 1,12,-1
 826 941 l 2,13,14
 802 921 802 921 796 920 c 0,15,16
 786 917 786 917 774 935 c 2,17,-1
 773 936 l 2,18,19
 766 945 766 945 752 964 c 0,20,21
 738 983 738 983 732 992 c 0,22,23
 718 1013 718 1013 718 1018 c 0,24,25
 719 1028 719 1028 739 1046 c 2,26,-1
 742 1048 l 1,27,-1
 803 1100 l 2,28,29
 827 1120 827 1120 831 1122 c 0,0,1
45 323 m 1,30,31
 53 323 53 323 71 322 c 0,32,33
 117 320 117 320 138 326 c 0,34,35
 175 338 175 338 221 389 c 0,36,37
 232 403 232 403 271 474 c 0,38,39
 274 480 274 480 276 484 c 0,40,41
 290 511 290 511 295 513 c 0,42,43
 299 514 299 514 300 515 c 0,44,45
 314 516 314 516 316 489 c 0,46,47
 317 480 317 480 316 479 c 0,48,49
 321 404 321 404 325 392 c 0,50,51
 332 373 332 373 342 359 c 0,52,53
 344 357 344 357 348 351 c 0,54,55
 364 328 364 328 377 333 c 0,56,57
 384 337 384 337 407 358 c 0,58,59
 434 381 434 381 505 451 c 0,60,61
 536 482 536 482 593 536 c 0,62,63
 608 550 608 550 667 597 c 1,64,65
 833 721 833 721 951 712 c 1,66,67
 1020 705 1020 705 1049 667 c 1,68,69
 1080 621 1080 621 1070 538 c 1,70,71
 1050 401 1050 401 940 256 c 0,72,73
 876 173 876 173 819 126 c 0,74,75
 655 -4 655 -4 459 4 c 0,76,77
 417 6 417 6 377 15 c 0,78,79
 263 40 263 40 216 105 c 1,80,-1
 191 75 l 1,81,-1
 186 79 l 1,82,83
 136 5 136 5 33 0 c 0,84,85
 24 0 24 0 -29 0 c 1,86,-1
 45 323 l 1,30,31
470 290 m 1,87,88
 489 286 489 286 552 289 c 1,89,90
 697 290 697 290 789 321 c 0,91,92
 824 334 824 334 857 362 c 0,93,94
 883 384 883 384 886 392 c 0,95,96
 889 399 889 399 890 405 c 0,97,98
 895 440 895 440 870 472 c 1,99,100
 861 489 861 489 855 495 c 0,101,102
 827 519 827 519 767 513 c 1,103,104
 677 501 677 501 525 380 c 0,105,106
 465 331 465 331 456 322 c 0,107,108
 453 318 453 318 451 317 c 1,109,-1
 497 315 l 1,110,-1
 470 290 l 1,87,88
EndSplineSet
EndChar

StartChar: uniFEC0
Encoding: 65216 65216 400
Width: 1029
VWidth: 1639
GlyphClass: 2
Flags: HW
AnchorPoint: "GposMark2BaseAnchorClassErabAbove_01_02" 552 1277 basechar 0
AnchorPoint: "GposMark2BaseAnchorClassErabBelow_01_02" 552 -175 basechar 0
LayerCount: 2
Fore
SplineSet
831 1122 m 0,0,1
 841 1127 841 1127 854 1109 c 2,2,-1
 855 1107 l 2,3,4
 883 1067 883 1067 896 1050 c 0,5,6
 911 1032 911 1032 912 1023 c 0,7,8
 913 1020 913 1020 909.5 1015 c 128,-1,9
 906 1010 906 1010 904 1007.5 c 128,-1,10
 902 1005 902 1005 895 1000 c 2,11,-1
 889 995 l 1,12,-1
 826 941 l 2,13,14
 802 921 802 921 796 920 c 0,15,16
 786 917 786 917 774 935 c 2,17,-1
 773 936 l 2,18,19
 766 945 766 945 752 964 c 0,20,21
 738 983 738 983 732 992 c 0,22,23
 718 1013 718 1013 718 1018 c 0,24,25
 719 1028 719 1028 739 1046 c 2,26,-1
 742 1048 l 1,27,-1
 803 1100 l 2,28,29
 827 1120 827 1120 831 1122 c 0,0,1
45 323 m 1,30,31
 53 323 53 323 71 322 c 0,32,33
 117 320 117 320 138 326 c 0,34,35
 175 338 175 338 221 389 c 0,36,37
 232 403 232 403 271 474 c 0,38,39
 274 480 274 480 276 484 c 0,40,41
 290 511 290 511 295 513 c 0,42,43
 299 514 299 514 300 515 c 0,44,45
 314 516 314 516 316 489 c 0,46,47
 317 480 317 480 316 479 c 0,48,49
 317 470 317 470 317 452 c 0,50,51
 318 405 318 405 325 385 c 0,52,53
 326 383 326 383 343 362 c 1,54,55
 360 332 360 332 372 333 c 0,56,57
 376 334 376 334 378 335 c 0,58,59
 391 342 391 342 429 379 c 0,60,61
 447 396 447 396 523 471 c 0,62,63
 718 659 718 659 847 700 c 0,64,65
 897 715 897 715 941 713 c 0,66,67
 1015 709 1015 709 1049 667 c 1,68,69
 1088 612 1088 612 1064 508 c 0,70,71
 1052 457 1052 457 1028 412 c 0,72,73
 1026 408 1026 408 1018 395 c 0,74,75
 1005 375 1005 375 1003 369 c 1,76,77
 1003 353 1003 353 1025 351 c 1,78,79
 1019 329 1019 329 1043 325 c 0,80,81
 1059 322 1059 322 1133 323 c 1,82,-1
 1058 0 l 1,83,84
 959 0 959 0 937 6 c 0,85,86
 901 16 901 16 881 39 c 0,87,88
 871 51 871 51 863 77 c 0,89,90
 854 108 854 108 853 116 c 1,91,-1
 850 116 l 1,92,-1
 846 110 l 1,93,-1
 843 110 l 1,94,-1
 835 143 l 1,95,-1
 832 143 l 1,96,97
 825 133 825 133 799 112 c 0,98,99
 738 58 738 58 658 31 c 0,100,101
 485 -25 485 -25 335 26 c 0,102,103
 254 52 254 52 216 105 c 1,104,-1
 191 75 l 1,105,-1
 186 79 l 1,106,107
 136 5 136 5 33 0 c 0,108,109
 24 0 24 0 -29 0 c 1,110,-1
 45 323 l 1,30,31
470 290 m 1,111,112
 489 286 489 286 552 289 c 1,113,114
 697 290 697 290 789 321 c 0,115,116
 824 334 824 334 857 362 c 0,117,118
 883 384 883 384 886 392 c 0,119,120
 889 399 889 399 890 405 c 0,121,122
 895 440 895 440 870 472 c 1,123,124
 861 489 861 489 855 495 c 0,125,126
 827 519 827 519 767 513 c 1,127,128
 677 501 677 501 525 380 c 0,129,130
 465 331 465 331 456 322 c 0,131,132
 453 318 453 318 451 317 c 1,133,-1
 497 315 l 1,134,-1
 470 290 l 1,111,112
EndSplineSet
EndChar

StartChar: afii57431
Encoding: 1591 1591 401
AltUni2: 00fec1.ffffffff.0
Width: 1192
VWidth: 1639
GlyphClass: 2
Flags: HW
AnchorPoint: "GposMark2BaseAnchorClassErabAbove_01_02" 627.5 1357 basechar 0
AnchorPoint: "GposMark2BaseAnchorClassErabBelow_01_02" 627.5 -165 basechar 0
LayerCount: 2
Fore
SplineSet
666 1207 m 1,0,1
 667 1203 667 1203 675 1168 c 0,2,3
 677 1157 677 1157 681 1134 c 0,4,5
 685 1111 685 1111 687 1100 c 0,6,7
 691 1078 691 1078 701 1036 c 0,8,9
 722 940 722 940 726 891 c 1,10,-1
 684 902 l 1,11,12
 683 882 683 882 678 876 c 1,13,-1
 678 869 l 1,14,-1
 654 876 l 1,15,16
 654 854 654 854 634 771 c 0,17,18
 602 634 602 634 492 431 c 1,19,-1
 539 472 l 1,20,-1
 516 431 l 1,21,-1
 533 446 l 1,22,-1
 510 405 l 1,23,24
 687 560 687 560 764 614 c 0,25,26
 777 623 777 623 788 630 c 0,27,28
 827 657 827 657 855 671 c 2,29,-1
 912 700 l 1,30,31
 1043 758 1043 758 1123 726 c 1,32,33
 1170 705 1170 705 1182 654 c 0,34,35
 1188 621 1188 621 1185 589 c 1,36,37
 1178 538 1178 538 1162 494 c 0,38,39
 1143 442 1143 442 1092 362 c 1,40,41
 1015 246 1015 246 928 175 c 0,42,43
 750 31 750 31 539 6 c 0,44,45
 361 -15 361 -15 244 64 c 0,46,47
 153 127 153 127 98 213 c 0,48,49
 67 266 67 266 69 295 c 0,50,51
 70 303 70 303 71 308 c 1,52,53
 107 315 107 315 189 312 c 0,54,55
 295 309 295 309 350 308 c 1,56,-1
 356 335 l 1,57,-1
 381 335 l 1,58,59
 435 571 435 571 436 813 c 1,60,61
 434 903 434 903 428 961 c 0,62,63
 424 994 424 994 422 1002 c 0,64,65
 421 1020 421 1020 422 1020 c 0,66,67
 426 1025 426 1025 439 1036 c 2,68,-1
 485 1071 l 2,69,70
 502 1084 502 1084 537 1113 c 0,71,72
 622 1182 622 1182 666 1207 c 1,0,1
549 315 m 1,73,74
 718 301 718 301 857 343 c 1,75,76
 901 358 901 358 936 387 c 0,77,78
 939 390 939 390 946 395 c 0,79,80
 961 407 961 407 965 415 c 1,81,82
 978 454 978 454 949 492 c 0,83,84
 908 544 908 544 857 540 c 0,85,86
 758 530 758 530 606 407 c 0,87,88
 544 357 544 357 530 341 c 1,89,-1
 576 339 l 1,90,-1
 549 315 l 1,73,74
492 431 m 1,91,-1
 490 430 l 1,92,-1
 492 431 l 1,91,-1
516 431 m 1,93,-1
 514 430 l 1,94,-1
 516 431 l 1,93,-1
510 405 m 1,95,-1
 508 403 l 1,96,-1
 510 405 l 1,95,-1
EndSplineSet
AlternateSubs2: "gsub_alternate_dfl_aalt_arab_FAR_Lookup_01_Subtable_01" uniFEC2 uniFEC3 afii57431 uniFEC4
Substitution2: "gsub_single_rtl_fina_arab_FAR_Lookup_01_Subtable_01" uniFEC2
Substitution2: "gsub_single_rtl_init_arab_FAR_Lookup_01_Subtable_01" uniFEC3
Substitution2: "gsub_single_rtl_medi_arab_FAR_Lookup_01_Subtable_01" uniFEC4
EndChar

StartChar: uniFEC2
Encoding: 65218 65218 402
Width: 1143
VWidth: 1639
GlyphClass: 2
Flags: HW
AnchorPoint: "GposMark2BaseAnchorClassErabAbove_01_02" 656 1357 basechar 0
AnchorPoint: "GposMark2BaseAnchorClassErabBelow_01_02" 656 -173 basechar 0
LayerCount: 2
Fore
SplineSet
666 1207 m 1,0,1
 667 1203 667 1203 675 1168 c 0,2,3
 677 1157 677 1157 681 1134 c 0,4,5
 685 1111 685 1111 687 1100 c 0,6,7
 691 1078 691 1078 701 1036 c 0,8,9
 722 940 722 940 726 891 c 1,10,-1
 684 902 l 1,11,12
 683 882 683 882 678 876 c 1,13,-1
 678 869 l 1,14,-1
 654 876 l 1,15,16
 654 854 654 854 634 771 c 0,17,18
 602 634 602 634 492 431 c 1,19,-1
 539 472 l 1,20,-1
 516 431 l 1,21,-1
 533 446 l 1,22,-1
 510 405 l 1,23,24
 685 559 685 559 757 610 c 0,25,26
 872 691 872 691 975 723 c 0,27,28
 1079 756 1079 756 1141 719 c 0,29,30
 1163 704 1163 704 1173 682 c 0,31,32
 1207 597 1207 597 1147 449 c 0,33,34
 1136 423 1136 423 1117 394 c 0,35,36
 1103 374 1103 374 1104 369 c 0,37,38
 1105 361 1105 361 1125 353 c 1,39,40
 1118 335 1118 335 1142 328 c 0,41,42
 1144 327 1144 327 1146 326 c 0,43,44
 1167 322 1167 322 1247 323 c 1,45,-1
 1173 0 l 1,46,47
 1055 0 1055 0 1012 26 c 0,48,49
 993 38 993 38 979 54 c 0,50,51
 971 66 971 66 959 98 c 1,52,53
 948 131 948 131 947 149 c 1,54,-1
 936 143 l 1,55,-1
 928 175 l 1,56,57
 918 168 918 168 900 155 c 0,58,59
 881 141 881 141 871 134 c 0,60,61
 811 94 811 94 745 64 c 0,62,63
 548 -23 548 -23 384 7 c 0,64,65
 369 10 369 10 355 13 c 0,66,67
 268 36 268 36 188 107 c 0,68,69
 131 156 131 156 92 225 c 0,70,71
 65 275 65 275 71 308 c 1,72,73
 107 315 107 315 189 312 c 0,74,75
 295 309 295 309 350 308 c 1,76,-1
 356 335 l 1,77,-1
 381 335 l 1,78,79
 435 571 435 571 436 813 c 1,80,81
 434 903 434 903 428 961 c 0,82,83
 424 994 424 994 422 1002 c 0,84,85
 421 1020 421 1020 422 1020 c 0,86,87
 426 1025 426 1025 439 1036 c 2,88,-1
 485 1071 l 2,89,90
 502 1084 502 1084 537 1113 c 0,91,92
 622 1182 622 1182 666 1207 c 1,0,1
549 315 m 1,93,94
 718 301 718 301 857 343 c 1,95,96
 901 358 901 358 936 387 c 0,97,98
 939 390 939 390 946 395 c 0,99,100
 961 407 961 407 965 415 c 1,101,102
 978 454 978 454 949 492 c 0,103,104
 908 544 908 544 857 540 c 0,105,106
 758 530 758 530 606 407 c 0,107,108
 544 357 544 357 530 341 c 1,109,-1
 576 339 l 1,110,-1
 549 315 l 1,93,94
492 431 m 1,111,-1
 490 430 l 1,112,-1
 492 431 l 1,111,-1
516 431 m 1,113,-1
 514 430 l 1,114,-1
 516 431 l 1,113,-1
510 405 m 1,115,-1
 508 403 l 1,116,-1
 510 405 l 1,115,-1
EndSplineSet
EndChar

